<svg xmlns="http://www.w3.org/2000/svg" width="108.279" height="32.63" viewBox="0 0 108.279 32.63">
  <g id="Amazon_logo" opacity="0.2">
    <path id="path8" d="M192.632,196.967c-6.292,4.638-15.413,7.112-23.265,7.112a42.1,42.1,0,0,1-28.421-10.845c-.589-.533-.061-1.258.646-.844a57.2,57.2,0,0,0,28.435,7.541,56.544,56.544,0,0,0,21.691-4.435c1.065-.452,1.956.7.914,1.471" transform="translate(-125.458 -171.449)" fill="#fff"/>
    <path id="path10" d="M579.758,184.653c-.8-1.027-5.317-.485-7.343-.245-.617.075-.712-.462-.156-.848,3.6-2.531,9.5-1.8,10.185-.952s-.179,6.768-3.559,9.592c-.518.434-1.013.2-.782-.372.759-1.895,2.46-6.141,1.654-7.174" transform="translate(-509.968 -162.128)" fill="#fff"/>
    <path id="path12" d="M572.864,7.523V5.062a.607.607,0,0,1,.622-.622H584.5a.613.613,0,0,1,.636.622V7.169a3.466,3.466,0,0,1-.829,1.546L578.6,16.865a12.162,12.162,0,0,1,6.283,1.348,1.121,1.121,0,0,1,.584.957v2.625c0,.358-.4.778-.811.561a12.689,12.689,0,0,0-11.637.019c-.382.207-.782-.207-.782-.566V19.315a2.975,2.975,0,0,1,.405-1.692l6.613-9.483H573.5a.609.609,0,0,1-.636-.617" transform="translate(-510.276 -3.959)" fill="#fff"/>
    <path id="path14" d="M174.411,20.273H171.06a.633.633,0,0,1-.6-.57V2.5a.629.629,0,0,1,.646-.617h3.125a.631.631,0,0,1,.608.575V4.71h.061a4.423,4.423,0,0,1,4.412-3.186c2.1,0,3.408,1.013,4.35,3.186A4.949,4.949,0,0,1,192.171,3.4c1.06,1.447.844,3.549.844,5.392l0,10.855a.633.633,0,0,1-.646.622h-3.346a.637.637,0,0,1-.6-.622V10.536a21.527,21.527,0,0,0-.094-3.224,1.745,1.745,0,0,0-1.97-1.48,2.226,2.226,0,0,0-2,1.409,10.412,10.412,0,0,0-.311,3.295v9.116a.633.633,0,0,1-.646.622h-3.346a.633.633,0,0,1-.6-.622l0-9.116c0-1.918.316-4.742-2.064-4.742-2.409,0-2.314,2.753-2.314,4.742v9.116a.633.633,0,0,1-.646.622" transform="translate(-152.004 -1.359)" fill="#fff"/>
    <path id="path16" d="M716.852,1.524c4.973,0,7.664,4.27,7.664,9.7,0,5.246-2.974,9.408-7.664,9.408-4.883,0-7.541-4.27-7.541-9.592,0-5.354,2.691-9.516,7.541-9.516m.028,3.511c-2.47,0-2.625,3.365-2.625,5.463s-.033,6.589,2.6,6.589c2.6,0,2.72-3.62,2.72-5.826a15.9,15.9,0,0,0-.5-4.562,2.1,2.1,0,0,0-2.192-1.664" transform="translate(-632.507 -1.359)" fill="#fff"/>
    <path id="path18" d="M876.8,20.273h-3.337a.637.637,0,0,1-.6-.622l0-17.2a.634.634,0,0,1,.646-.561H876.6a.641.641,0,0,1,.6.481V5h.061c.938-2.352,2.253-3.474,4.567-3.474a4.4,4.4,0,0,1,3.912,2.027c.877,1.376.877,3.691.877,5.354V19.731a.644.644,0,0,1-.646.542h-3.361a.635.635,0,0,1-.594-.542V10.39c0-1.881.217-4.633-2.1-4.633a2.19,2.19,0,0,0-1.937,1.376,7.612,7.612,0,0,0-.533,3.257v9.262a.644.644,0,0,1-.655.622" transform="translate(-778.339 -1.359)" fill="#fff"/>
    <path id="path28" d="M415.612,10.7a6.555,6.555,0,0,1-.627,3.554,2.723,2.723,0,0,1-2.319,1.522c-1.287,0-2.041-.98-2.041-2.427,0-2.856,2.559-3.375,4.987-3.375V10.7m3.379,8.168a.7.7,0,0,1-.792.08,8.168,8.168,0,0,1-1.923-2.234,6.636,6.636,0,0,1-5.524,2.437c-2.823,0-5.015-1.739-5.015-5.222a5.687,5.687,0,0,1,3.573-5.477c1.819-.8,4.36-.943,6.3-1.164V6.853a4.274,4.274,0,0,0-.41-2.427,2.231,2.231,0,0,0-1.881-.872,2.549,2.549,0,0,0-2.691,2.013.7.7,0,0,1-.584.613L406.8,5.831a.59.59,0,0,1-.5-.7C407.043,1.188,410.606,0,413.792,0a7.6,7.6,0,0,1,5.048,1.669c1.631,1.522,1.475,3.554,1.475,5.764v5.222a4.583,4.583,0,0,0,1.263,3.106.634.634,0,0,1-.014.891c-.683.57-1.9,1.631-2.569,2.225l0-.009" transform="translate(-361.804 0)" fill="#fff"/>
    <path id="path30" d="M9.874,10.7a6.555,6.555,0,0,1-.627,3.554,2.717,2.717,0,0,1-2.319,1.522c-1.287,0-2.036-.98-2.036-2.427,0-2.856,2.559-3.375,4.982-3.375V10.7m3.379,8.168a.7.7,0,0,1-.792.08,8.251,8.251,0,0,1-1.923-2.234A6.631,6.631,0,0,1,5.015,19.15C2.2,19.15,0,17.411,0,13.928A5.694,5.694,0,0,1,3.573,8.451c1.819-.8,4.36-.943,6.3-1.164V6.853a4.312,4.312,0,0,0-.405-2.427,2.242,2.242,0,0,0-1.881-.872,2.555,2.555,0,0,0-2.7,2.013.7.7,0,0,1-.58.613L1.06,5.831a.594.594,0,0,1-.5-.7C1.31,1.188,4.869,0,8.055,0A7.6,7.6,0,0,1,13.1,1.669c1.631,1.522,1.475,3.554,1.475,5.764v5.222a4.583,4.583,0,0,0,1.263,3.106.63.63,0,0,1-.009.891c-.683.57-1.9,1.631-2.569,2.225l-.009-.009" transform="translate(0 0)" fill="#fff"/>
  </g>
</svg>
