<svg xmlns="http://www.w3.org/2000/svg" width="38.149" height="36.141" viewBox="0 0 38.149 36.141">
  <path id="np_analytics_2281278_000000" d="M32.579,20.552a4,4,0,0,0,3.456-2.008h7.141a4.016,4.016,0,1,0,0-4.015H36.035a4,4,0,0,0-7.192,3.448l-3.75,6.645a3.872,3.872,0,0,0-4.519,3.535l-4.058,1.536V12.52H12.5V48.66H48.64V24.566H44.625V44.645H38.6V30.59H34.585V44.645H28.562V36.613H24.547v8.032H16.515V33.986l5.692-2.153a4,4,0,0,0,6.076-4.691l3.75-6.645a4.221,4.221,0,0,0,.546.055" transform="translate(-12.5 -12.52)" fill="#fff"/>
</svg>
