<svg xmlns="http://www.w3.org/2000/svg" width="20.401" height="32.641" viewBox="0 0 20.401 32.641">
  <g id="noun_analysis_2252851" transform="translate(-15 -3)">
    <path id="Path_744" data-name="Path 744" d="M24.18,35.641h2.04a1.532,1.532,0,0,0,1.53-1.53v-8.67h.51a1.021,1.021,0,0,0,1.02-1.02V22.543a10.2,10.2,0,1,0-8.16,0v1.878a1.021,1.021,0,0,0,1.02,1.02h.51v8.67A1.532,1.532,0,0,0,24.18,35.641Zm2.55-1.53a.51.51,0,0,1-.51.51H24.18a.51.51,0,0,1-.51-.51v-8.67h3.06ZM16.02,13.2a9.18,9.18,0,1,1,9.18,9.18A9.191,9.191,0,0,1,16.02,13.2Zm6.12,11.22V22.93a10.189,10.189,0,0,0,6.12,0v1.49Z" fill="#fff"/>
    <path id="Path_745" data-name="Path 745" d="M35.3,15.65a7.65,7.65,0,1,0-7.65,7.65A7.659,7.659,0,0,0,35.3,15.65ZM32.68,19.959l-3.8-3.8h5.373A6.6,6.6,0,0,1,32.68,19.959ZM28.16,9.046a6.632,6.632,0,0,1,6.094,6.094H28.16Zm-7.14,6.6a6.635,6.635,0,0,1,6.12-6.6v6.6a.513.513,0,0,0,.15.361l4.668,4.668A6.621,6.621,0,0,1,21.02,15.65Z" transform="translate(-2.45 -2.45)" fill="#fff"/>
  </g>
</svg>
