<svg xmlns="http://www.w3.org/2000/svg" width="1278.558" height="1178.537" viewBox="0 0 1278.558 1178.537">
  <g id="Group_143" data-name="Group 143" transform="translate(-297.944 703.307) rotate(-42)" opacity="0.1">
    <path id="Path_538" data-name="Path 538" d="M0,1093.991C0,967.464,17.689,828.608,77.376,720.207c83.1-150.925,78.666-336.87,60.308-466.28A1287.268,1287.268,0,0,0,76.982,5.7L85.007,0a1303.429,1303.429,0,0,1,61.517,251.266c18.749,131.953,23.23,321.709-61.91,476.338-159.5,289.676-16.246,808.375-14.785,813.575L61.38,1545.6A1954.1,1954.1,0,0,1,7.729,1245.4C2.7,1195.22.121,1144.639,0,1093.991Z" transform="translate(1545.597 481.745) rotate(90)" fill="#02183a"/>
    <path id="Path_539" data-name="Path 539" d="M73.737,0s75.621,425.273-27.918,721.116.769,819.73.769,819.73" transform="translate(1542.808 489.003) rotate(90)" fill="#02183a" opacity="0.3" style="mix-blend-mode: normal;isolation: isolate"/>
    <path id="Path_540" data-name="Path 540" d="M0,404.28A1094.95,1094.95,0,0,1,11.217,251.266,1303.4,1303.4,0,0,1,72.734,0l8.025,5.7a1287.266,1287.266,0,0,0-60.7,248.226C1.7,383.331-2.735,569.279,80.365,720.207c85.067,154.494,84.828,370.9,69.647,525.2A1954.086,1954.086,0,0,1,96.362,1545.6l-8.449-4.418c1.465-5.206,144.721-523.894-14.785-813.576C17.293,626.2,0,509.686,0,404.28Z" transform="translate(1545.598 445.27) rotate(90)" fill="#02183a" opacity="0.3" style="mix-blend-mode: normal;isolation: isolate"/>
    <path id="Path_541" data-name="Path 541" d="M0,405.871C0,192.407,56.223,2.844,57.082,0l8.369,4.695C64.175,8.914-60.79,430.513,65.16,720.264c128.144,294.762,13.76,819.149,12.589,824.41l-8.661-3.575c1.158-5.206,114.395-524.459-11.714-814.557C14.337,627.542,0,513.655,0,405.871Z" transform="translate(1545.094 481.708) rotate(90)" fill="#02183a" opacity="0.3" style="mix-blend-mode: normal;isolation: isolate"/>
    <path id="Path_542" data-name="Path 542" d="M46.017,0s-103.539,425.212,0,721.054S55.8,1540.537,55.8,1540.537" transform="translate(1542.746 503.917) rotate(90)" fill="#02183a" opacity="0.3" style="mix-blend-mode: normal;isolation: isolate"/>
    <path id="Path_543" data-name="Path 543" d="M76.616,0s162.9,425.212,0,721.054-15.392,819.483-15.392,819.483" transform="translate(1542.746 486.124) rotate(90)" fill="#02183a" opacity="0.3" style="mix-blend-mode: normal;isolation: isolate"/>
  </g>
</svg>
