<svg xmlns="http://www.w3.org/2000/svg" width="108.279" height="58.832" viewBox="0 0 108.279 58.832">
  <g id="Disney__logo" data-name="Disney+_logo" opacity="0.2">
    <path id="Path_380" data-name="Path 380" d="M49.156,227.624l.131.018a10.2,10.2,0,0,1,2.667.636,2.754,2.754,0,0,1,1.442,1.357,3.853,3.853,0,0,1-1.852,5.4,7.206,7.206,0,0,1-2.421.656,8.621,8.621,0,0,1-4.577-.818,5.491,5.491,0,0,1-2.32-1.973,1.964,1.964,0,0,1,.092-2.11c.718-.983,2.257-1.2,3.416-1.159a14.163,14.163,0,0,1,3.313.606,6.383,6.383,0,0,1,1.24.571.411.411,0,0,1,.126.4c-.192.586-1.616.9-2.028.957-1.1.169-1.673-.248-2.925-.742a4.3,4.3,0,0,0-1.041-.286c-.568-.054-1.255.105-1.363.725-.054.32.321.619.607.745a4.582,4.582,0,0,0,1.878.4,9.832,9.832,0,0,0,5.744-1.421.892.892,0,0,0,.436-.672c.007-.581-1.012-.937-1.012-.937a16.565,16.565,0,0,0-4.087-.751c-1.075-.093-2.765-.232-3.171-.292a4.788,4.788,0,0,1-1.234-.306,1.537,1.537,0,0,1-.825-.939,2.91,2.91,0,0,1,.459-2.218c1.067-1.534,3.567-2.117,5.434-2.348,1.807-.225,4.729-.223,6.5.721.274.147.414.284.357.577a1.424,1.424,0,0,1-1.03,1.06,11.391,11.391,0,0,1-2.091.263,34.776,34.776,0,0,0-6.765.613,1.406,1.406,0,0,0-.525.22c-.319.346.592.445.788.485a.763.763,0,0,0,.13.022l4.505.531m-12.732-9.543s.348-.522.64-.918a16.524,16.524,0,0,1,2.216-2.341c.221-.189.482-.4.482-.4s-.408.042-.64.09a4.884,4.884,0,0,0-1.757.988c-.664.568-1.394,1.492-1.064,2.313.048.116.122.272.122.272m3.691.988a7.01,7.01,0,0,0,2.946-.882c.9-.5,2.217-1.481,2.08-2.632a.968.968,0,0,0-.593-.785,1.342,1.342,0,0,0-1.12.006,3.361,3.361,0,0,0-.889.375,13.556,13.556,0,0,0-3.28,2.9c-.183.241-.368.51-.513.695-.091.114-.162.218-.154.246a4.641,4.641,0,0,0,1.523.077m-2.671,1.962a4.579,4.579,0,0,0-.341.59,1.177,1.177,0,0,1-.259.3.536.536,0,0,1-.768-.022,1.874,1.874,0,0,1-.6-1.324,4.01,4.01,0,0,0-.012-.633,4.127,4.127,0,0,0-.538-.912,3.583,3.583,0,0,1-.37-1.331,4.446,4.446,0,0,1,1.4-3.2,9.239,9.239,0,0,1,3.107-2.127,6.093,6.093,0,0,1,3.991-.367,3.029,3.029,0,0,1,1.239.835.912.912,0,0,0,.169.193,1.264,1.264,0,0,0,.312.07,3.115,3.115,0,0,1,1.188.563A2.274,2.274,0,0,1,46.8,215a3.675,3.675,0,0,1-1.139,3.086,11.283,11.283,0,0,1-4.1,2.812,6.556,6.556,0,0,1-2.6.46c-.248-.021-.5-.086-.745-.1a3.413,3.413,0,0,1-.622-.16c-.06-.046-.137-.086-.151-.07m1.432,2.475a1.11,1.11,0,0,1,.189.055A1.655,1.655,0,0,1,40,224.866a39.477,39.477,0,0,1,.511,5.412c.039.863.061,1.711.1,2.564a10.21,10.21,0,0,1-.062,2.358,1.111,1.111,0,0,1-.45.671,2.049,2.049,0,0,1-1.208.115c-.823-.17-1.091-.7-1.208-1.514a40.652,40.652,0,0,1,.02-7.363,16.007,16.007,0,0,1,.532-2.947c.095-.241.3-.725.648-.657m-25.041,3.232s-1.225.087-2.068.18a22.857,22.857,0,0,0-4.252.879c-.349.125-1.058.422-1.119.78a1.2,1.2,0,0,0,.423.964c.148.175.989.983,1.224,1.179a21.2,21.2,0,0,0,4.465,2.714c.507.21,1.345.51,1.345.51s-.062-2.387-.051-4.738c.006-1.24.033-2.468.033-2.468m22.463.95a10.3,10.3,0,0,1-.123,2.014,9.283,9.283,0,0,1-.376,1.323,15.084,15.084,0,0,1-.68,1.362,11.282,11.282,0,0,1-1.924,2.36,16.053,16.053,0,0,1-8.174,3.2,20.827,20.827,0,0,1-6.1-.177c-.693-.126-1.724-.364-1.724-.364s0,.412-.03.7A2.918,2.918,0,0,1,17,238.7a.939.939,0,0,1-.736.526A2.2,2.2,0,0,1,15,239.166a1.808,1.808,0,0,1-.981-1.559c-.09-.552-.185-1.512-.185-1.512s-.479-.227-.878-.426a22.711,22.711,0,0,1-3.41-2.089c-.282-.211-1.5-1.226-1.763-1.479a10.005,10.005,0,0,1-1.939-2.331,2.23,2.23,0,0,1-.211-2.094c.419-1.05,1.924-1.84,2.953-2.29a24.571,24.571,0,0,1,4.083-1.243c.461-.066,1.176-.194,1.22-.223a.281.281,0,0,0,.043-.04c.023-.032.061-1.071.053-1.451s.277-2.828.368-3.347a6.08,6.08,0,0,1,.478-1.645.433.433,0,0,1,.6-.05c1.12.7,1.46,3.111,1.543,4.34.05.749.075,1.875.075,1.875s1.285-.038,2.075-.016a18.652,18.652,0,0,1,2.411.266,16.978,16.978,0,0,1,4.15,1.176,4.228,4.228,0,0,1,2.1,2.128,2.165,2.165,0,0,1-.178,2.02,2.826,2.826,0,0,1-2.18,1.432,3.584,3.584,0,0,1-1.532-.346.267.267,0,0,1-.027-.372c.032-.04.487-.282.756-.423a1.74,1.74,0,0,0,.351-.248c.223-.2.424-.413.4-.666-.031-.329-.379-.532-.711-.663a25.991,25.991,0,0,0-6.171-1.221c-.588-.035-1.425-.064-1.425-.064l.177,8.3s.692.132,1.237.22c.313.047,1.638.167,1.99.175a18.336,18.336,0,0,0,8.136-1.331,8.477,8.477,0,0,0,2.822-2,5.8,5.8,0,0,0,1.37-4.307,11.234,11.234,0,0,0-2.391-5.152c-2.629-3.381-7.135-6.162-11.1-7.792a35.369,35.369,0,0,0-12.343-2.781,20.476,20.476,0,0,0-4.742.352c-.174.049-.35.108-.512.144a1.426,1.426,0,0,0-.385.161.6.6,0,0,0-.061.059s.075.042.147.072c.129.056.673.09.955.142a.921.921,0,0,1,.618.364.366.366,0,0,1-.007.46c-.277.336-1.317.28-1.776.207-.476-.076-1.069-.222-1.178-.636a1.941,1.941,0,0,1,.356-1.41,3.4,3.4,0,0,1,2.281-1.635,23.216,23.216,0,0,1,4.812-.756,28.085,28.085,0,0,1,9.349,1.383,44.667,44.667,0,0,1,5.811,2.261,45.579,45.579,0,0,1,4.232,2.383c.341.225,2.339,1.693,2.65,1.951.647.529,1.494,1.29,2.107,1.9a19.584,19.584,0,0,1,3.379,4.408c.172.342.306.679.529,1.076A9.532,9.532,0,0,1,36,226.006c.054.232.133.574.144.588a8.43,8.43,0,0,1,.156,1.093m40.315-1.835a48.594,48.594,0,0,1-5.451.539l-.5,1.56a22.148,22.148,0,0,1,3.409-.019s.465-.054.52.528a9.042,9.042,0,0,1-.046,1.125s-.03.352-.529.442c-.541.09-4.254.234-4.254.234l-.6,2.033s-.223.47.277.336a34.627,34.627,0,0,1,4.862-.749,1.386,1.386,0,0,1,.97,1.518c-.207.818-4.089,3.294-6.454,3.121,0,0-1.242.08-2.292-1.6-.978-1.6.371-4.623.371-4.623s-.618-1.412-.17-1.891a1.826,1.826,0,0,1,1.044-.3l.952-1.969a2.207,2.207,0,0,1-1.729-.723c-.6-.756-.651-1.1-.19-1.313a32.319,32.319,0,0,1,8.112-.962s1.079-.106,2.016,1.766c0,0,.454.757-.317.94m-11.682,7.569a2.065,2.065,0,0,1-2.756,1.314c-1.289-.622-3.343-4.826-3.343-4.826s-.78-1.568-.93-1.527c0,0-.168-.306-.272,1.407s.021,5.032-.66,5.555a1.2,1.2,0,0,1-1.83-.3c-.368-.6-.521-2.04-.32-4.561.236-2.526.823-5.214,1.573-6.051a.967.967,0,0,1,1.584-.009A18.235,18.235,0,0,1,60.63,228l.291.493A22.54,22.54,0,0,0,62.579,231s.123.116.232.033c.158-.045.094-.853.094-.853a48.5,48.5,0,0,0-1.681-7.39,2.179,2.179,0,0,1-.067-1.122c.139-.549.689-.291.689-.291S63.969,222.448,65,225.9a12.489,12.489,0,0,1-.068,7.518m22.841-2.069c-.966,1.686-3.693,5.215-7.318,4.382a37.7,37.7,0,0,0-2.777,10.232s-.126.854-.836.557a4,4,0,0,1-2.1-3.033c-.252-2.125.694-5.716,2.627-9.834a5.65,5.65,0,0,1-.619-4.091,12.012,12.012,0,0,1,3.963-6.584s.417-.36.659-.249c.266.112.143,1.238-.068,1.786s-1.768,3.225-1.768,3.225a6.005,6.005,0,0,0-.694,3.239c1.824-2.8,5.97-8.459,8.54-6.676a4.182,4.182,0,0,1,1.261,3.409,7.721,7.721,0,0,1-.873,3.636m-.75-4.441s-.143-1.115-1.233.113a26.525,26.525,0,0,0-3.99,5.616,6.62,6.62,0,0,0,3.222-1.33,5.36,5.36,0,0,0,2-4.4m20.717-.254H101.1a52.266,52.266,0,0,0-.833-6.722.5.5,0,0,0-.485-.4H98.245a.452.452,0,0,0-.441.538,48.617,48.617,0,0,1,.847,6.591H92.26a.539.539,0,0,0-.54.538v1.381a.541.541,0,0,0,.54.54h6.482c0,.341.007.646.007.933a48.369,48.369,0,0,1-.287,5.481.5.5,0,0,0,.5.556h1.42a.536.536,0,0,0,.535-.485,51,51,0,0,0,.277-5.553c0-.285,0-.592-.007-.932h6.552a.541.541,0,0,0,.539-.54V227.2a.541.541,0,0,0-.54-.54" transform="translate(0.001 -187.753)" fill="#fff"/>
    <path id="Path_381" data-name="Path 381" d="M173.959,29.51a.535.535,0,0,0-.063.473.547.547,0,0,0,.338.339l1.191.4a.715.715,0,0,0,.214.034.662.662,0,0,0,.55-.293,43.329,43.329,0,0,1,35.86-19,43.378,43.378,0,0,1,39.934,26.474.624.624,0,0,0,.576.381h1.422a.5.5,0,0,0,.459-.683,45.765,45.765,0,0,0-80.481-8.126" transform="translate(-155.041 -9.115)" fill="#fff"/>
  </g>
</svg>
