<svg xmlns="http://www.w3.org/2000/svg" width="107.135" height="25.117" viewBox="0 0 107.135 25.117">
  <g id="layer1" opacity="0.2">
    <path id="path2" d="M41.164,89.068a7.354,7.354,0,0,1,6.4,3.1h.066v-2.6H51.09v18.454H47.625v-2.865h-.066a7.019,7.019,0,0,1-6.263,3.331A9.517,9.517,0,0,1,31.5,99.1C31.5,93.2,35.734,89.068,41.164,89.068Zm-55.081,0A9.745,9.745,0,0,1-4.09,98.929a9.913,9.913,0,0,1-10.441,9.554,9.882,9.882,0,0,1-9.48-9.747A9.758,9.758,0,0,1-13.917,89.068Zm27.915,0a5.454,5.454,0,0,1,5.664,5.4H16.2a2.262,2.262,0,0,0-2.366-2.231A2,2,0,0,0,11.668,94.2c0,1.567,1.6,2.033,3.432,2.6,2.6.8,5,2.364,5,5.8,0,3.563-2.6,5.9-6.2,5.9a6.29,6.29,0,0,1-6.53-6.53h3.466c.166,2.234,1.3,3.366,3.13,3.366a2.468,2.468,0,0,0,2.665-2.532c0-1.265-.965-2.1-3.132-2.8-4.53-1.433-5.3-3.4-5.3-5.5a5.554,5.554,0,0,1,5.8-5.43Zm-57.584-5.7a3.464,3.464,0,0,1,3.465,3.465v4.7h.067a5.844,5.844,0,0,1,5.163-2.465c4.4,0,7.7,2.8,7.7,7.861v11.092H-30.66V98c0-3.964-1.532-5.763-4.6-5.763-3.033,0-4.865,2.2-4.865,5.8v9.993h-3.465Zm46.891,0v6.2H6.338v3.165H3.3v15.29a3.465,3.465,0,0,1-3.465-3.465V92.733h-1.43V89.569h1.43v-6.2H3.3Zm24.065,0v6.2H30.4v3.165H27.372v15.29a3.464,3.464,0,0,1-3.465-3.465V92.733H22.476V89.569h1.432v-6.2h3.465Zm36.179,5.7v3.563c-3,.1-4.53,1.931-4.53,5.031v6.894a3.464,3.464,0,0,1-3.465,3.465V89.569h3.232v1.664h.066c.832-1.231,2.265-2.03,4.7-2.163Zm-77.632,3.165a6.559,6.559,0,0,0-6.262,8.149,6.484,6.484,0,0,0,6.384,4.94,6.546,6.546,0,0,0,6.4-6.593A6.488,6.488,0,0,0-14.083,92.234Zm55.346,0a6.5,6.5,0,0,0-6.27,7.205,6.393,6.393,0,0,0,6.138,5.884,6.488,6.488,0,0,0,6.562-6.494A6.367,6.367,0,0,0,41.263,92.234Z" transform="translate(43.586 -83.373)" fill="#fff"/>
  </g>
</svg>
