<svg xmlns="http://www.w3.org/2000/svg" xmlns:xlink="http://www.w3.org/1999/xlink" width="659.521" height="455.285" viewBox="0 0 659.521 455.285">
  <defs>
    <linearGradient id="linear-gradient" y1="0.5" x2="1" y2="0.5" gradientUnits="objectBoundingBox">
      <stop offset="0" stop-color="gray" stop-opacity="0.251"/>
      <stop offset="0.54" stop-color="gray" stop-opacity="0.122"/>
      <stop offset="1" stop-color="gray" stop-opacity="0.102"/>
    </linearGradient>
  </defs>
  <g id="Group_145" data-name="Group 145" transform="translate(0 0.006)">
    <path id="Path_573" data-name="Path 573" d="M389.953,109.446c-42.274.057-82.965-11.927-121.886-25.24s-77.541-28.221-119.03-34.538c-26.682-4.061-57.024-3.687-77.881,11.056-20.077,14.184-25.89,37.659-28.7,59.348-2.109,16.316-3.082,33.44,4.818,48.365,5.486,10.361,14.874,18.9,21.491,28.775,23.1,34.351,9.207,78.231-13.239,113.38-10.525,16.491-22.854,32.3-30.811,49.734s-11.22,37.207-3.1,54.416c8.042,17.057,26.207,29.436,45.7,37.891,39.588,17.2,85.68,20.891,130.533,22.311,99.287,3.15,198.765-3.274,297.978-9.7,36.715-2.375,73.594-4.767,109.551-11.65,19.964-3.817,40.521-9.484,54.677-21.9,17.967-15.767,21.643-41.511,8.568-60.015C646.7,340.64,588.882,334.787,573.16,301.2c-8.67-18.488-1.193-39.69,9.818-57.51,23.617-38.236,64.268-72.485,64.952-115.252.469-29.369-20.671-58.019-52.245-70.783-33.1-13.369-78.22-9.931-101.407,14.987C470.435,98.317,427.279,109.407,389.953,109.446Z" transform="translate(-16.91 -47.46)" fill="#3f506c"/>
    <path id="Path_574" data-name="Path 574" d="M998.809,690.9s-6.951-4.586-13.839-1.323c0,0,2.121,4.083,10.841,3.7Z" transform="translate(-437.491 -325.927)" fill="#f3f6f9"/>
    <path id="Path_575" data-name="Path 575" d="M1007.461,693.25s2.115,8.053-3.19,13.533c0,0-3.19-3.32,0-11.452Z" transform="translate(-445.261 -328.031)" fill="#f3f6f9"/>
    <path id="Path_576" data-name="Path 576" d="M1014,675.71s-.515-6.849-15.982-4.575c0,0-.074,4.417,5.356,6.509S1011.293,677.972,1014,675.71Z" transform="translate(-443.161 -318.222)" fill="#f3f6f9"/>
    <path id="Path_577" data-name="Path 577" d="M1024.516,679.5s6.538,2.1.707,16.6c0,0-4.315-.961-5.09-6.736S1021.654,681.6,1024.516,679.5Z" transform="translate(-452.702 -322.057)" fill="#f3f6f9"/>
    <path id="Path_578" data-name="Path 578" d="M1031.96,654.484s.888-11.271-14.919-10.118c0,0-1.131,10.18,12.131,12.826Z" transform="translate(-451.415 -306.757)" fill="#f3f6f9"/>
    <path id="Path_579" data-name="Path 579" d="M1048.107,632.385s-2.166-12.776-17.967-8.969c0,0-.057,11.045,15.388,12.012Z" transform="translate(-457.116 -297.384)" fill="#f3f6f9"/>
    <path id="Path_580" data-name="Path 580" d="M1060.595,609.327s-3.631-12.442-19.285-8.721c0,0,3.727,11.192,18.244,11.017Z" transform="translate(-461.969 -287.48)" fill="#f3f6f9"/>
    <path id="Path_581" data-name="Path 581" d="M1073.893,586.335s-3.546-12.911-18.663-9.049c0,0,5.045,12.267,17.662,11.232Z" transform="translate(-468.016 -277.336)" fill="#f3f6f9"/>
    <path id="Path_582" data-name="Path 582" d="M1083.569,562.427s-2.726-15.79-16.819-12.295c0,0,4.095,14.365,15.784,14.6Z" transform="translate(-473.021 -265.633)" fill="#f3f6f9"/>
    <path id="Path_583" data-name="Path 583" d="M1090.772,536.859s-3.274-15.914-17.532-11.311c0,0,5.588,15.043,16.519,13.488Z" transform="translate(-475.841 -254.809)" fill="#f3f6f9"/>
    <path id="Path_584" data-name="Path 584" d="M1096.54,510.024s-5.2-15.92-16.22-15.49c0,0,5.31,16.814,15.3,18.663Z" transform="translate(-478.917 -241.694)" fill="#f3f6f9"/>
    <path id="Path_585" data-name="Path 585" d="M1100.845,484.6s-5.655-19.161-14.625-17.685c0,0,3.914,14.648,14.308,20.671Z" transform="translate(-481.48 -229.664)" fill="#f3f6f9"/>
    <path id="Path_586" data-name="Path 586" d="M1102.958,457.244s-5.3-15.965-14.138-16.6c0,0,3.608,15.711,13.963,20.755Z" transform="translate(-482.61 -218.283)" fill="#f3f6f9"/>
    <path id="Path_587" data-name="Path 587" d="M1106.152,431.084s-6.611-15.982-12.442-16.344c0,0,2.873,15.739,11.876,18.968Z" transform="translate(-484.734 -207.03)" fill="#f3f6f9"/>
    <path id="Path_588" data-name="Path 588" d="M1109.388,404.679s-4.066-17.356-9.908-18.8c0,0,.8,14.2,9.32,20.1Z" transform="translate(-487.241 -194.492)" fill="#f3f6f9"/>
    <path id="Path_589" data-name="Path 589" d="M1113.979,374.748s-4.276-13.839-9.009-15.948c0,0,.933,16.316,7.918,19.33Z" transform="translate(-489.626 -182.727)" fill="#f3f6f9"/>
    <path id="Path_590" data-name="Path 590" d="M1121.4,347.258l.86-24.4s-8.851,18.391-1.5,28.679Z" transform="translate(-495.217 -167.112)" fill="#f3f6f9"/>
    <path id="Path_591" data-name="Path 591" d="M1133.565,308.64s6.374-17.815,7.918-18.81c0,0-12.5,11.56-11.277,26.428Z" transform="translate(-500.554 -152.762)" fill="#f3f6f9"/>
    <path id="Path_592" data-name="Path 592" d="M1042.232,662.143s11.209-1.465,10.875,14.376c0,0-10.129,1.651-13.437-11.452Z" transform="translate(-461.256 -314.501)" fill="#f3f6f9"/>
    <path id="Path_593" data-name="Path 593" d="M1060.864,639.06s12.951-.04,11.876,16.174c0,0-10.875,1.945-14.461-13.109Z" transform="translate(-469.342 -304.488)" fill="#f3f6f9"/>
    <path id="Path_594" data-name="Path 594" d="M1074.831,617.6s11.758-5.514,19.279,8.721c0,0-10.858,4.592-20.32-6.419Z" transform="translate(-476.08 -294.709)" fill="#f3f6f9"/>
    <path id="Path_595" data-name="Path 595" d="M1087.925,593.106s12.041-5.865,19.11,8.036c0,0-12.544,4.321-20.1-5.836Z" transform="translate(-481.789 -283.989)" fill="#f3f6f9"/>
    <path id="Path_596" data-name="Path 596" d="M1095.812,569.119s11.588-11.068,20.834.124c0,0-11.837,9.111-21.366,2.341Z" transform="translate(-485.416 -271.981)" fill="#f3f6f9"/>
    <path id="Path_597" data-name="Path 597" d="M1102.759,541.774s11.656-11.311,20.829.52c0,0-13.081,9.292-21.247,1.855Z" transform="translate(-488.484 -260.103)" fill="#f3f6f9"/>
    <path id="Path_598" data-name="Path 598" d="M1106.93,512.34s8.981-14.139,19.556-10.983c0,0-9.32,14.97-19.455,14.3Z" transform="translate(-490.478 -244.462)" fill="#f3f6f9"/>
    <path id="Path_599" data-name="Path 599" d="M1111.432,486.516s9.049-17.8,17.611-14.7c0,0-6.526,13.686-17.843,17.707Z" transform="translate(-492.333 -231.668)" fill="#f3f6f9"/>
    <path id="Path_600" data-name="Path 600" d="M1112.025,458.8s9.3-14.014,18.018-12.3c0,0-7.606,14.212-18.923,16.355Z" transform="translate(-492.298 -220.765)" fill="#f3f6f9"/>
    <path id="Path_601" data-name="Path 601" d="M1114,430.925s7.211-15.728,13.07-15.835c0,0-3.461,15.615-12.583,18.5Z" transform="translate(-493.55 -207.182)" fill="#f3f6f9"/>
    <path id="Path_602" data-name="Path 602" d="M1116.5,406.26s8.014-15.926,14.037-15.96c0,0-4.1,13.618-13.771,17.356Z" transform="translate(-494.636 -196.412)" fill="#f3f6f9"/>
    <path id="Path_603" data-name="Path 603" d="M1118.63,377.49s5.995-13.177,10.96-14.67c0,0-3,16.061-10.3,18.165Z" transform="translate(-495.561 -184.473)" fill="#f3f6f9"/>
    <path id="Path_604" data-name="Path 604" d="M1123.887,349.47l13.4-20.41s-3.433,20.133-15.354,24.318Z" transform="translate(-496.995 -169.806)" fill="#f3f6f9"/>
    <path id="Path_605" data-name="Path 605" d="M1136.667,316.411s15.569-10.745,16.135-12.482c0,0-7.918,15.049-22.622,17.707Z" transform="translate(-500.579 -158.888)" fill="#f3f6f9"/>
    <path id="Path_606" data-name="Path 606" d="M1142.97,304.26s17.877-17.187,22.441-17.17c0,0-14.744.673-22.871,16.254Z" transform="translate(-505.949 -151.572)" fill="#f3f6f9"/>
    <path id="Path_607" data-name="Path 607" d="M1118.94,359.243l.65.085c3.359-26.292,8.257-41.85,13.788-43.756l-.215-.622C1127.3,316.986,1122.367,332.306,1118.94,359.243Z" transform="translate(-495.696 -163.676)" fill="#444053"/>
    <path id="Path_608" data-name="Path 608" d="M1110.2,454.648l.984.079c.209-2.454.367-4.965.475-7.471.939-21.762,2.392-41.748,4.3-56.729l-.566-.707c-1.917,15.015-3.783,35.6-4.722,57.4C1110.568,449.705,1110.409,452.2,1110.2,454.648Z" transform="translate(-491.899 -196.204)" fill="#444053"/>
    <path id="Path_609" data-name="Path 609" d="M976.591,622.082c.17-.073,17.492-7.81,35.471-26.258a142.638,142.638,0,0,0,25.93-36.76c8.314-16.927,13.381-37.727,15.078-57.934l-1.024.481c-3.817,45.356-24.465,76.348-40.883,93.23-17.8,18.284-34.934,25.941-35.1,26.015Z" transform="translate(-433.62 -244.563)" fill="#444053"/>
    <path id="Path_610" data-name="Path 610" d="M635.129,132.69H91.711a4.841,4.841,0,0,0-4.841,4.841v14.1h553.1v-14.1A4.841,4.841,0,0,0,635.129,132.69Z" transform="translate(-47.305 -84.491)" fill="#3f506c"/>
    <path id="Path_611" data-name="Path 611" d="M86.87,166.19v317.4a9.761,9.761,0,0,0,9.761,9.761H630.209a9.761,9.761,0,0,0,9.761-9.761V166.19Z" transform="translate(-47.305 -99.046)" fill="#fff"/>
    <circle id="Ellipse_28" data-name="Ellipse 28" cx="2.262" cy="2.262" r="2.262" transform="translate(46.063 55.268)" fill="#fa5959" opacity="0.8"/>
    <circle id="Ellipse_29" data-name="Ellipse 29" cx="2.262" cy="2.262" r="2.262" transform="translate(52.284 55.268)" fill="#fed253" opacity="0.8"/>
    <circle id="Ellipse_30" data-name="Ellipse 30" cx="2.262" cy="2.262" r="2.262" transform="translate(58.505 55.268)" fill="#8ccf4d" opacity="0.8"/>
    <rect id="Rectangle_1490" data-name="Rectangle 1490" width="444.516" height="195.463" transform="translate(90.979 120.068)" opacity="0.05"/>
    <rect id="Rectangle_1491" data-name="Rectangle 1491" width="437.729" height="191.153" transform="translate(94.372 121.549)" fill="#3f506c"/>
    <path id="Path_612" data-name="Path 612" d="M361.327,349.38a43.547,43.547,0,1,0,43.547,43.547A43.547,43.547,0,0,0,361.327,349.38Zm7.81,44.593v20.62H353.743v-20.62a12.753,12.753,0,1,1,15.394,0Z" transform="translate(-147.625 -178.634)" fill="#f3f6f9"/>
    <path id="Path_613" data-name="Path 613" d="M361.327,349.38a43.547,43.547,0,1,0,43.547,43.547A43.547,43.547,0,0,0,361.327,349.38Zm7.81,44.593v20.62H353.743v-20.62a12.753,12.753,0,1,1,15.394,0Z" transform="translate(-147.625 -178.634)" opacity="0.05"/>
    <path id="Path_614" data-name="Path 614" d="M351.769,327.38a55.989,55.989,0,1,0,55.989,55.989,55.989,55.989,0,0,0-55.989-55.989Zm10.038,57.335v26.507H342.013V384.715a16.4,16.4,0,1,1,19.794,0Z" transform="translate(-138.067 -169.076)" fill="#f3f6f9"/>
    <rect id="Rectangle_1492" data-name="Rectangle 1492" width="180.973" height="19.228" transform="translate(292.877 206.946)" fill="#fff"/>
    <rect id="Rectangle_1493" data-name="Rectangle 1493" width="39.022" height="19.228" transform="translate(434.828 242.01)" fill="#f3f6f9"/>
    <path id="Path_615" data-name="Path 615" d="M559.98,426.839h-3.274l2.912-2.907a.289.289,0,0,0,0-.4.283.283,0,0,0-.4,0l-2.913,2.913v-3.28a.283.283,0,0,0-.283-.283.288.288,0,0,0-.283.283v3.28l-2.907-2.93a.283.283,0,0,0-.4,0,.288.288,0,0,0,0,.4l2.912,2.907h-3.28a.288.288,0,0,0-.283.283.283.283,0,0,0,.283.283h3.28L552.43,430.3a.288.288,0,0,0,0,.4.294.294,0,0,0,.4,0l2.907-2.913v3.274a.283.283,0,0,0,.566,0v-3.274l2.913,2.913a.294.294,0,0,0,.4,0,.289.289,0,0,0,0-.4l-2.912-2.913h3.274a.274.274,0,1,0,0-.549Z" transform="translate(-249.289 -210.567)" fill="#f3f6f9"/>
    <path id="Path_616" data-name="Path 616" d="M580.98,426.839h-3.274l2.912-2.907a.289.289,0,0,0,0-.4.283.283,0,0,0-.4,0l-2.912,2.913v-3.28a.283.283,0,0,0-.283-.283.288.288,0,0,0-.283.283v3.28l-2.907-2.93a.283.283,0,0,0-.4,0,.288.288,0,0,0,0,.4l2.913,2.907h-3.28a.288.288,0,0,0-.283.283.283.283,0,0,0,.283.283h3.28L573.43,430.3a.288.288,0,0,0,0,.4.294.294,0,0,0,.4,0l2.907-2.913v3.274a.283.283,0,0,0,.566,0v-3.274l2.912,2.913a.294.294,0,0,0,.4,0,.289.289,0,0,0,0-.4l-2.912-2.913h3.274a.274.274,0,1,0,0-.549Z" transform="translate(-258.412 -210.567)" fill="#f3f6f9"/>
    <path id="Path_617" data-name="Path 617" d="M601.98,426.839h-3.274l2.913-2.907a.289.289,0,0,0,0-.4.283.283,0,0,0-.4,0l-2.913,2.913v-3.28a.283.283,0,0,0-.283-.283.289.289,0,0,0-.283.283v3.28l-2.907-2.93a.283.283,0,0,0-.4,0,.288.288,0,0,0,0,.4l2.913,2.907h-3.28a.288.288,0,0,0-.283.283.283.283,0,0,0,.283.283h3.28L594.43,430.3a.288.288,0,0,0,0,.4.294.294,0,0,0,.4,0l2.907-2.913v3.274a.283.283,0,1,0,.565,0v-3.274l2.913,2.913a.294.294,0,0,0,.4,0,.289.289,0,0,0,0-.4l-2.913-2.913h3.274a.274.274,0,1,0,0-.549Z" transform="translate(-267.536 -210.567)" fill="#f3f6f9"/>
    <path id="Path_618" data-name="Path 618" d="M622.98,426.839h-3.274l2.913-2.907a.289.289,0,0,0,0-.4.283.283,0,0,0-.4,0l-2.913,2.913v-3.28a.283.283,0,0,0-.283-.283.288.288,0,0,0-.283.283v3.28l-2.907-2.93a.283.283,0,0,0-.4,0,.288.288,0,0,0,0,.4l2.913,2.907h-3.28a.288.288,0,0,0-.283.283.283.283,0,0,0,.283.283h3.28L615.43,430.3a.288.288,0,0,0,0,.4.294.294,0,0,0,.4,0l2.907-2.913v3.274a.283.283,0,1,0,.566,0v-3.274l2.913,2.913a.294.294,0,0,0,.4,0,.288.288,0,0,0,0-.4l-2.913-2.913h3.274a.274.274,0,1,0,0-.549Z" transform="translate(-276.659 -210.567)" fill="#f3f6f9"/>
    <path id="Path_619" data-name="Path 619" d="M643.98,426.839h-3.274l2.913-2.907a.289.289,0,0,0,0-.4.283.283,0,0,0-.4,0l-2.913,2.913v-3.28a.283.283,0,0,0-.283-.283.288.288,0,0,0-.283.283v3.28l-2.907-2.93a.283.283,0,0,0-.4,0,.288.288,0,0,0,0,.4l2.912,2.907h-3.28a.288.288,0,0,0-.283.283.283.283,0,0,0,.283.283h3.28L636.43,430.3a.288.288,0,0,0,0,.4.294.294,0,0,0,.4,0l2.907-2.913v3.274a.283.283,0,1,0,.565,0v-3.274l2.913,2.913a.294.294,0,0,0,.4,0,.289.289,0,0,0,0-.4l-2.913-2.913h3.274a.274.274,0,1,0,0-.549Z" transform="translate(-285.783 -210.567)" fill="#f3f6f9"/>
    <path id="Path_620" data-name="Path 620" d="M664.98,426.839h-3.275l2.913-2.907a.288.288,0,0,0,0-.4.283.283,0,0,0-.4,0l-2.913,2.913v-3.28a.283.283,0,0,0-.283-.283.289.289,0,0,0-.283.283v3.28l-2.907-2.93a.283.283,0,0,0-.4,0,.288.288,0,0,0,0,.4l2.913,2.907h-3.28a.289.289,0,0,0-.283.283.283.283,0,0,0,.283.283h3.28L657.43,430.3a.288.288,0,0,0,0,.4.294.294,0,0,0,.4,0l2.907-2.913v3.274a.283.283,0,1,0,.566,0v-3.274l2.913,2.913a.294.294,0,0,0,.4,0,.288.288,0,0,0,0-.4l-2.913-2.913h3.275a.274.274,0,1,0,0-.549Z" transform="translate(-294.907 -210.567)" fill="#f3f6f9"/>
    <path id="Path_621" data-name="Path 621" d="M685.98,426.839h-3.274l2.912-2.907a.289.289,0,0,0,0-.4.283.283,0,0,0-.4,0l-2.912,2.913v-3.28a.283.283,0,0,0-.283-.283.288.288,0,0,0-.283.283v3.28l-2.907-2.93a.283.283,0,0,0-.4,0,.288.288,0,0,0,0,.4l2.913,2.907h-3.28a.288.288,0,0,0-.283.283.283.283,0,0,0,.283.283h3.28L678.43,430.3a.288.288,0,0,0,0,.4.294.294,0,0,0,.4,0l2.907-2.913v3.274a.283.283,0,0,0,.566,0v-3.274l2.912,2.913a.294.294,0,0,0,.4,0,.289.289,0,0,0,0-.4l-2.912-2.913h3.274a.274.274,0,1,0,0-.549Z" transform="translate(-304.03 -210.567)" fill="#f3f6f9"/>
    <path id="Path_622" data-name="Path 622" d="M706.98,426.839h-3.274l2.912-2.907a.289.289,0,0,0,0-.4.283.283,0,0,0-.4,0l-2.912,2.913v-3.28a.283.283,0,0,0-.283-.283.288.288,0,0,0-.283.283v3.28l-2.907-2.93a.283.283,0,0,0-.4,0,.288.288,0,0,0,0,.4l2.912,2.907h-3.28a.288.288,0,0,0-.283.283.283.283,0,0,0,.283.283h3.28L699.43,430.3a.288.288,0,0,0,0,.4.294.294,0,0,0,.4,0l2.907-2.912v3.274a.283.283,0,0,0,.566,0v-3.274l2.912,2.913a.294.294,0,0,0,.4,0,.289.289,0,0,0,0-.4l-2.912-2.913h3.274a.274.274,0,1,0,0-.549Z" transform="translate(-313.154 -210.567)" fill="#f3f6f9"/>
    <path id="Path_623" data-name="Path 623" d="M727.98,426.839h-3.275l2.913-2.907a.289.289,0,0,0,0-.4.283.283,0,0,0-.4,0l-2.913,2.913v-3.28a.283.283,0,0,0-.283-.283.289.289,0,0,0-.283.283v3.28l-2.907-2.93a.283.283,0,0,0-.4,0,.288.288,0,0,0,0,.4l2.913,2.907h-3.28a.288.288,0,0,0-.283.283.283.283,0,0,0,.283.283h3.28L720.43,430.3a.288.288,0,0,0,0,.4.294.294,0,0,0,.4,0l2.907-2.913v3.274a.283.283,0,1,0,.565,0v-3.274l2.913,2.913a.294.294,0,0,0,.4,0,.288.288,0,0,0,0-.4l-2.913-2.913h3.275a.274.274,0,1,0,0-.549Z" transform="translate(-322.277 -210.567)" fill="#f3f6f9"/>
    <path id="Path_624" data-name="Path 624" d="M748.98,426.839h-3.274l2.912-2.907a.288.288,0,0,0,0-.4.283.283,0,0,0-.4,0l-2.913,2.913v-3.28a.283.283,0,0,0-.283-.283.288.288,0,0,0-.283.283v3.28l-2.907-2.93a.283.283,0,0,0-.4,0,.288.288,0,0,0,0,.4l2.912,2.907h-3.28a.288.288,0,0,0-.283.283.283.283,0,0,0,.283.283h3.28L741.43,430.3a.288.288,0,0,0,0,.4.294.294,0,0,0,.4,0l2.907-2.913v3.274a.283.283,0,1,0,.565,0v-3.274l2.913,2.913a.294.294,0,0,0,.4,0,.288.288,0,0,0,0-.4l-2.912-2.913h3.274a.274.274,0,1,0,0-.549Z" transform="translate(-331.401 -210.567)" fill="#f3f6f9"/>
    <path id="Path_625" data-name="Path 625" d="M769.98,426.839h-3.275l2.913-2.907a.289.289,0,0,0,0-.4.283.283,0,0,0-.4,0l-2.912,2.913v-3.28a.283.283,0,0,0-.283-.283.288.288,0,0,0-.283.283v3.28l-2.907-2.93a.283.283,0,0,0-.4,0,.288.288,0,0,0,0,.4l2.913,2.907h-3.28a.289.289,0,0,0-.283.283.283.283,0,0,0,.283.283h3.28L762.43,430.3a.288.288,0,0,0,0,.4.294.294,0,0,0,.4,0l2.907-2.913v3.274a.283.283,0,1,0,.565,0v-3.274l2.913,2.913a.294.294,0,0,0,.4,0,.289.289,0,0,0,0-.4l-2.913-2.913h3.275a.274.274,0,1,0,0-.549Z" transform="translate(-340.525 -210.567)" fill="#f3f6f9"/>
    <path id="Path_626" data-name="Path 626" d="M871.308,514.959a10.128,10.128,0,0,0-.255-2.03c-.509-1.912-1.657-4.225-3.546-4.8a29.764,29.764,0,0,1-5.622-2.375c-.339-6.063,1.052-12.267-.464-18.143-.566-2.149-1.5-4.208-1.747-6.408-.311-2.737.435-5.655-.656-8.178a8.071,8.071,0,0,0-4.779-4.128,25.465,25.465,0,0,0-6.374-1.131c-2.715-.221-11.5-1.261-14.568,1.165h0a3.2,3.2,0,0,0-.565.566h0a2.238,2.238,0,0,0-.181.294l-.028.045a2.288,2.288,0,0,0-.153.368h0a2.868,2.868,0,0,0-.1.424v1.018c.04.509.113,1.018.113,1.521a3.269,3.269,0,0,1-.068.747,5.225,5.225,0,0,1-.939,1.832h0l-.1.147c-.062.09-.124.175-.181.266s-.1.158-.147.238-.091.13-.13.2a2.772,2.772,0,0,0-.147.288c0,.057-.062.107-.085.164a2.792,2.792,0,0,0-.17.475,3.156,3.156,0,0,0-.034,1.5,5.6,5.6,0,0,0,.775,1.781c.141.232.294.458.452.684l.4.537a12.188,12.188,0,0,0-.119,1.583,11.7,11.7,0,0,0,4.466,9.195,34.637,34.637,0,0,1-.072,7.178c-.051.5-.113,1-.181,1.5s-.119.826-.187,1.239a5.74,5.74,0,0,1-2.471-.187,11.677,11.677,0,0,0-1.131-.435c-1.646-.413-3.325,1.227-4.954.73a.663.663,0,0,1-.073.226,2.217,2.217,0,0,0-1.131-.334,4.126,4.126,0,0,1-2.455-1.408l-2.155-2.03a2.381,2.381,0,0,1-.373-.419,2.938,2.938,0,0,1-.26-.7,8.014,8.014,0,0,0-2.087-2.992,1.413,1.413,0,0,0-.616-.447.951.951,0,0,0-.283,0,2.459,2.459,0,0,0-.187-.226,5.321,5.321,0,0,0-.469-.475c-1.029-.95-1.131-1.764-2.025-2.828a27.192,27.192,0,0,1-2.115-3.2c-.073-.594-.175-1.2-.3-1.821a23.432,23.432,0,0,0-1.239-4.128l-1.131-2.505-.13.13c-.82-1.222-1.7-1.889-2.483-1.731-1.318.271-1.968,2.828-1.759,6.17l.452,3.393a1.042,1.042,0,0,0,.062.255A6.258,6.258,0,0,0,806.48,489c0,.475.441.826.673,1.25a3.534,3.534,0,0,1,.565,1.929c-.028.243-.1.475-.113.713a2.742,2.742,0,0,0,.532,1.47l2.828,4.751.565,1,.034.045a2.414,2.414,0,0,0,.758.871,10.356,10.356,0,0,0,.933,3.433c.1.215.2.418.317.622a20,20,0,0,0,2.669,3.467l1.346,1.51c1.329,1.482,2.658,2.969,4.1,4.338a5.493,5.493,0,0,0,1.832,1.284,2.075,2.075,0,0,0,2.059-.3v2.1a1.182,1.182,0,0,1,.893,1.861,46.638,46.638,0,0,1-4.185,8.856,18.853,18.853,0,0,1,3.506,2.675,15.751,15.751,0,0,1,1.827,2.471c.051.418.09.831.113,1.244.418,6.741-2.189,13.432-4.524,19.856a15.467,15.467,0,0,0-1.352,5.622,11.037,11.037,0,0,0-1.267.911,8.385,8.385,0,0,1,.232,3.586,6.351,6.351,0,0,1-.469,2.262,15.9,15.9,0,0,1-.814,1.454c-1.465,2.584-1.787,5.655-2.081,8.607-.175,1.781.515,3.959-.294,5.554a22.719,22.719,0,0,0-2.828,8.7,8.719,8.719,0,0,1-.26,2.03c-.175.566-.486,1.046-.645,1.6a6.849,6.849,0,0,0-.113,2.262A21.649,21.649,0,0,1,812.13,605c-.707,2.019-1.487,4.179-.933,6.255a8.817,8.817,0,0,0-2.392,5.254,8.3,8.3,0,0,1-.181,1.5,7.29,7.29,0,0,1-.679,1.442,12.624,12.624,0,0,0-1.538,6.787,18.876,18.876,0,0,0-3.048,7.963c-.5,2.822-.724,5.695-1.369,8.483-.86,3.687-2.415,7.414-2.72,11.192-1.832,1.171-2.624,3.438-2.975,5.582s-.407,4.394-1.307,6.374c-.464,1.029-1.131,1.951-1.572,3a13.787,13.787,0,0,0-.679,2.584,10.083,10.083,0,0,0-.175,4.242,6.394,6.394,0,0,1-1.657,1.261c.09-.351.164-.7.226-1.058-1.459,1.323-4.106.86-5.271,2.449a2.387,2.387,0,0,0,.566,3.275,4.526,4.526,0,0,0,1.171.5c2.828.9,5.735,1.815,8.641,1.335a2.58,2.58,0,0,0,.978-.311,3.149,3.149,0,0,0,.911-1.052q.653-1.035,1.3-2.07a26.846,26.846,0,0,0,3.173.741c.108.9.187,1.81.226,2.715.566.113,1.323.147,1.589-.379a1.376,1.376,0,0,0,.1-.628c0-.4.057-.933.09-1.476h.113a10.744,10.744,0,0,0,5.005-1.012c-.605-5.011,1.391-9.908,3.122-14.648,1.827-4.988,3.393-10.067,4.971-15.145,1.131-3.574,2.381-7.035,3.489-10.615q2.093-6.787,4.2-13.573c.611-1.991,1.227-3.959,1.928-5.938a92.51,92.51,0,0,1,5.243-11.667c.566-1.069,1.131-2.126,1.595-3.235.566-1.352.967-2.766,1.419-4.162a64.476,64.476,0,0,1,3.552-8.359c.04-.073.068-.141.107-.209.458,1.872.916,3.772,1.222,5.655a21.49,21.49,0,0,1,.1,6.99,23.054,23.054,0,0,0-.724,4.739c.085,2.211,1.267,4.219,1.849,6.351a24.162,24.162,0,0,1,.633,4.864c.158,2.545,1.538,5.4.566,7.759-3.026,7.471-1.561,15.909-3.286,23.753-.888,4.027-3.608,7.81-3.393,11.927q.226,4.383.769,8.743a8.321,8.321,0,0,0,.707,2.653,9.733,9.733,0,0,0,.775,1.267c-.249.1-.458.351-.639.888a3.489,3.489,0,0,0,1.255,3.959,5.5,5.5,0,0,0,1.634.566,8.605,8.605,0,0,0,2.364.328,5.516,5.516,0,0,0,.741-.091,26.943,26.943,0,0,0,2.675.961,5.8,5.8,0,0,0,.073.7.865.865,0,0,0,.294.639.882.882,0,0,0,.452.079h3.071v-.769a2.528,2.528,0,0,0,1.951-.633,3.017,3.017,0,0,0,.566-1.176q1.256-4.258,2.494-8.523a27.252,27.252,0,0,0,1.216-9.727c-1.092-10.423,1.306-20.88.526-31.331a75.054,75.054,0,0,1,.961-18.8c.255-1.4.566-2.828.679-4.225.249-2.635-.057-5.3.13-7.918.062-.916.187-1.827.3-2.737a131.439,131.439,0,0,0,1.216-17.051,53.753,53.753,0,0,0-.351-5.655,3.23,3.23,0,0,0,1.544-.9,3.846,3.846,0,0,0,.368-2.415,17.509,17.509,0,0,1,1.521-5.78,68.664,68.664,0,0,0,2.138-7.952,27.765,27.765,0,0,0,.95-6.645q0-.339-.034-.679a1.754,1.754,0,0,0,.52-.566,3.286,3.286,0,0,0,.271-1.046c.2-1.442.413-2.89.617-4.338q.226-1.555.447-3.1l1.8-12.549c.153-1.091.311-2.177.464-3.263l.469-3.246c.051-.385.107-.769.147-1.131C872.773,520.66,871.455,517.583,871.308,514.959Zm-15,46.985a10.336,10.336,0,0,1-1.131-4.914h-.062a2.522,2.522,0,0,0-.074-1.595c-.175-.413-.481-.763-.667-1.176a4.313,4.313,0,0,1-.305-1.583,43.176,43.176,0,0,1,.809-10.259c.073-.4.153-.8.226-1.193a2.95,2.95,0,0,0,.645-.5,4.588,4.588,0,0,0,.729-1.131c.639-1.284,1.222-2.59,1.759-3.919.175-.43.43-.927.865-1.035-.09,3.308.249,6.685-1.1,9.671a6.116,6.116,0,0,0-.566,1.527c-.124.843.226,1.7.1,2.534-.062.436-.249.837-.322,1.267a1.238,1.238,0,0,0,.328,1.2.987.987,0,0,0,.243.124c-.034.226-.062.458-.085.679-.045.464-.068.9-.1,1.171a36.418,36.418,0,0,0-.153,4.162c0,1.5.057,3,.034,4.524a3.071,3.071,0,0,1-.215,1.284,2.229,2.229,0,0,1-.43.566A14.66,14.66,0,0,0,856.3,561.944Z" transform="translate(-350.806 -229.889)" fill="url(#linear-gradient)"/>
    <ellipse id="Ellipse_31" data-name="Ellipse 31" cx="3.19" cy="9.032" rx="3.19" ry="9.032" transform="matrix(0.98, -0.201, 0.201, 0.98, 454.108, 249.379)" fill="#fbbebe"/>
    <path id="Path_627" data-name="Path 627" d="M878.265,838.092a3.424,3.424,0,0,0,1.255,3.919,5.587,5.587,0,0,0,1.623.566,8.562,8.562,0,0,0,2.358.323c.978-.045,1.917-.43,2.9-.566a.453.453,0,0,1,.334.045.481.481,0,0,1,.124.4,14.914,14.914,0,0,0,.125,1.663.854.854,0,0,0,.294.639.886.886,0,0,0,.453.079h3.065a29.893,29.893,0,0,0-.876-8,1.788,1.788,0,0,0-.226-.566,1.872,1.872,0,0,0-.978-.565,5.467,5.467,0,0,0-2.37-.413,6.941,6.941,0,0,0-2.658,1.3,4.049,4.049,0,0,1-3.014.729C879.645,837.374,878.791,836.52,878.265,838.092Z" transform="translate(-391.056 -389.88)" fill="#3f3d56"/>
    <path id="Path_628" data-name="Path 628" d="M795.9,834.717a8.483,8.483,0,0,1-3.093,2.1l-.52.249a.363.363,0,0,0-.175.141.306.306,0,0,0,.057.255,3.659,3.659,0,0,0,4.151,1.51,2.2,2.2,0,0,0,.91-.475,2.986,2.986,0,0,0,.7-1.821,3.728,3.728,0,0,0-.085-2.087C797.063,832.822,796.774,833.626,795.9,834.717Z" transform="translate(-353.7 -388.988)" fill="#fbbebe"/>
    <path id="Path_629" data-name="Path 629" d="M804.995,841.935a1.374,1.374,0,0,1-.1.628c-.266.52-1.007.492-1.583.379a38.053,38.053,0,0,0-.7-5.712c-1.1-.051-1.889.99-2.477,1.923l-1.516,2.4a3.133,3.133,0,0,1-.9,1.052,2.679,2.679,0,0,1-.978.311c-2.9.481-5.819-.43-8.613-1.335a4.562,4.562,0,0,1-1.171-.5,2.392,2.392,0,0,1-.565-3.269c1.171-1.583,3.8-1.131,5.26-2.443a13.169,13.169,0,0,1-.747,2.7c1.951-.294,3.263-2.081,4.835-3.274a2.975,2.975,0,0,1,1.38-.656,3.039,3.039,0,0,1,1.131.119,13.269,13.269,0,0,1,4.977,2.449,5.366,5.366,0,0,1,1.781,1.855A13.737,13.737,0,0,1,804.995,841.935Z" transform="translate(-351.04 -389.238)" fill="#3f3d56"/>
    <circle id="Ellipse_32" data-name="Ellipse 32" cx="11.684" cy="11.684" r="11.684" transform="translate(481.174 242.734)" fill="#fbbebe"/>
    <path id="Path_630" data-name="Path 630" d="M919.783,616.481a27.71,27.71,0,0,1-.944,6.611,68.246,68.246,0,0,1-2.138,7.917c-.673,1.883-1.516,3.772-1.51,5.769a3.836,3.836,0,0,1-.373,2.409,3.519,3.519,0,0,1-1.651.944,2.064,2.064,0,0,0-1.391,1.239,8.735,8.735,0,0,1-1.176-2.59q-1.521-4.66-2.828-9.371a1.216,1.216,0,0,1,.079-1.131,1.4,1.4,0,0,1,.492-.277,5.091,5.091,0,0,0,1.567-1.007,2.291,2.291,0,0,0,.52-.673,3.047,3.047,0,0,0,.22-1.278c0-1.5,0-2.992-.04-4.49a37.506,37.506,0,0,1,.158-4.145c0-.271.051-.707.1-1.171.085-.888.255-1.917.735-2.262.718-.481,2.867.164,3.682.277,1.4.192,2.828.419,4.2.684A11.2,11.2,0,0,1,919.783,616.481Z" transform="translate(-403.907 -293.079)" fill="#3f3d56"/>
    <path id="Path_631" data-name="Path 631" d="M835.84,511.468c-.452.9-1.538,1.34-2.375,1.912l-2.867,1.968a1.912,1.912,0,0,1-1.42.486,1.866,1.866,0,0,1-1.057-.99.2.2,0,0,0,0-.045l-.594-1-2.828-4.739a2.7,2.7,0,0,1-.526-1.459c0-.243.085-.469.107-.713a3.422,3.422,0,0,0-.565-1.923c-.226-.424-.679-.775-.667-1.25a4.525,4.525,0,0,1,.317-1.827,3.7,3.7,0,0,1,1.239-1.323c.266-.192.537-.373.82-.566a1.615,1.615,0,0,1,.492-.226c.469-.1.933.294,1.408.311,2.042,1.369,2.828,3.959,4.434,5.825.9,1.063,1,1.878,2.019,2.828.164.147.322.305.475.469a3.285,3.285,0,0,1,.509.735C834.947,510.433,836.072,511,835.84,511.468Z" transform="translate(-367.142 -243.969)" fill="#3f3d56"/>
    <path id="Path_632" data-name="Path 632" d="M877.084,511.394a10.529,10.529,0,0,1,1.255,5.7,3.557,3.557,0,0,1-.492,1.5c-.814,1.25-2.522,1.476-4.01,1.549a2.364,2.364,0,0,0-1.742.566,1.584,1.584,0,0,0,.107,1.934,4.367,4.367,0,0,0,1.731,1.131,15.322,15.322,0,0,0,7.448,1.651c1.188-.113,2.341-.458,3.523-.633a37.013,37.013,0,0,1,3.88-.215c1.538-.057,3.071-.209,4.6-.362l4.061-.4a.9.9,0,0,0,.605-.221c.3-.351-.085-.865-.458-1.131-2.155-1.595-4.9-2.692-6.125-5.09a29.94,29.94,0,0,1-1.159-3.7,31.062,31.062,0,0,1-1.346-3.569,23.639,23.639,0,0,1-.187-3.291,4.417,4.417,0,0,0-1.131-3.009,4.716,4.716,0,0,0-3.077-.99,9.959,9.959,0,0,0-7.5,2.432c-.515.515-.956,1.131-1.487,1.595s-1.255.6-.9,1.21,1.041.99,1.414,1.527A13,13,0,0,1,877.084,511.394Z" transform="translate(-388.331 -245.287)" fill="#fbbebe"/>
    <path id="Path_633" data-name="Path 633" d="M890.712,535.922a64.259,64.259,0,0,1-3.461,12.742,47.963,47.963,0,0,0-2.036,5.712c-.435,1.753-.351,3.631-.752,5.39-.5,2.189-1,4.383-1.4,6.589a43.2,43.2,0,0,0-.8,10.236,4.28,4.28,0,0,0,.305,1.578c.187.407.486.758.662,1.176a2.827,2.827,0,0,1-.158,2.262,6.548,6.548,0,0,1-1.165,1.765c-5.271,1.572-10.909,1.058-16.4,1.391-5.062.305-10.18,1.346-15.168.481-.566-2.262.379-4.632,1.188-6.837,2.347-6.408,4.943-13.081,4.524-19.794a20.471,20.471,0,0,0-.266-2.336c-.82-4.756.074-9.682,1.5-14.291a24.526,24.526,0,0,0,.645-8.924,16.291,16.291,0,0,1-.04-2.924,5.141,5.141,0,0,1,1.063-2.732c0-.04.051-.079.079-.119a.776.776,0,0,1,.424,0h0a.362.362,0,0,0,.283,0l.062-.04a.142.142,0,0,1,.164,0c.13.079.2.351.486.4a11.253,11.253,0,0,0,1.261.119,6.781,6.781,0,0,1,1.5.215h.068a4.417,4.417,0,0,0,2.194-.187,5.835,5.835,0,0,0,1.346-.52c.124-.136.9-.26,1.063-.356.515-.311.4-1.77.509-2.37a6.518,6.518,0,0,1,.424-1.753,2.986,2.986,0,0,1,2.421-1.408,12.888,12.888,0,0,1,2.9.26c2.109.3,4.27.249,6.34.735,1.041.243,2.177.611,3.133.136.26.062.3.288.3.565a3.61,3.61,0,0,1-.158.775c-.362,1.561.865,3,2,4.128a6.4,6.4,0,0,0,1.668,1.329c.566.26,1.131.368,1.7.65A3.088,3.088,0,0,1,890.254,531a4.32,4.32,0,0,1,.645,1.646A9.841,9.841,0,0,1,890.712,535.922Z" transform="translate(-378.925 -253.362)" fill="#3f3d56"/>
    <path id="Path_634" data-name="Path 634" d="M894.8,540.4a64.252,64.252,0,0,1-3.461,12.742,48.006,48.006,0,0,0-2.036,5.712c-.435,1.753-.35,3.631-.752,5.39-.5,2.189-1,4.383-1.4,6.589-.119.068-.243.13-.368.187a8.684,8.684,0,0,1-2.217.713,13.574,13.574,0,0,1-4.14-.136l-8.07-1.08c-3.224-.436-6.656-.961-9.049-3.144a19.309,19.309,0,0,1-3.156-4.309,20.5,20.5,0,0,0-.266-2.336c-.82-4.756.073-9.682,1.5-14.291a24.526,24.526,0,0,0,.645-8.924,16.314,16.314,0,0,1-.04-2.924,5.14,5.14,0,0,1,1.063-2.732,4.019,4.019,0,0,1,.5-.113h0a2.5,2.5,0,0,1,.345-.045h.164a2.465,2.465,0,0,1,.566.068,10.227,10.227,0,0,1,1.131.435h.068a4.331,4.331,0,0,0,1.5.215c.746,0,1.516-.119,2.262-.17a4.174,4.174,0,0,1,2.681.481,16.1,16.1,0,0,1,1.493,1.363,6.412,6.412,0,0,0,1.883,1.024,20.015,20.015,0,0,0,15.055-.317,2.946,2.946,0,0,1,1.51-.385,2.827,2.827,0,0,1,1.086.464c.339.2.673.39,1.018.565a4.321,4.321,0,0,1,.645,1.646A9.844,9.844,0,0,1,894.8,540.4Z" transform="translate(-383.013 -257.845)" opacity="0.1"/>
    <path id="Path_635" data-name="Path 635" d="M895.974,535.826A30.183,30.183,0,0,1,889.527,533a2.89,2.89,0,0,0-1.086-.464,3.035,3.035,0,0,0-1.516.385,20,20,0,0,1-15.049.317,6.544,6.544,0,0,1-1.883-1.024,16.912,16.912,0,0,0-1.493-1.363c-1.861-1.2-4.434.209-6.515-.566a11.54,11.54,0,0,0-1.131-.435c-1.646-.413-3.32,1.227-4.937.73a27.521,27.521,0,0,0-1.329,5.045,55,55,0,0,0-.368,5.95c0,1.193-.057,2.387,0,3.58a1.174,1.174,0,0,1,.894,1.855,46.362,46.362,0,0,1-4.174,8.828,19.187,19.187,0,0,1,3.5,2.669c1.979,2.093,2.952,5.028,5.09,6.962,2.409,2.177,5.842,2.709,9.049,3.139l8.07,1.08a13.8,13.8,0,0,0,4.145.141,8.726,8.726,0,0,0,2.211-.718,3.959,3.959,0,0,0,1.233-.814,4.522,4.522,0,0,0,.729-1.131c.639-1.278,1.222-2.585,1.759-3.908.187-.469.469-1.018.978-1.058,3-2.7,5.825-5.474,8.823-8.178a19.551,19.551,0,0,0,3.218-3.393c1.487-2.2.136-5.316,0-7.974a10.061,10.061,0,0,0-.255-2.019C899,538.7,897.857,536.4,895.974,535.826Z" transform="translate(-379.261 -257.011)" fill="#f3f6f9"/>
    <path id="Path_636" data-name="Path 636" d="M839.736,518.647c-.452.9-1.538,1.34-2.375,1.911l-2.867,1.968a1.912,1.912,0,0,1-1.42.486,1.866,1.866,0,0,1-1.057-.99v-.407a3.792,3.792,0,0,1,.181-1.352,4.212,4.212,0,0,1,1.267-1.629,10.372,10.372,0,0,1,3.716-2.262,1.273,1.273,0,0,1,.679-.068.894.894,0,0,1,.249.107,3.282,3.282,0,0,1,.509.735C838.843,517.612,839.968,518.183,839.736,518.647Z" transform="translate(-371.038 -251.148)" opacity="0.1"/>
    <path id="Path_637" data-name="Path 637" d="M847.027,524.889a4.119,4.119,0,0,1-2.449-1.4l-2.143-1.991a2.006,2.006,0,0,1-.373-.419,2.936,2.936,0,0,1-.26-.7,7.979,7.979,0,0,0-2.081-2.986,1.356,1.356,0,0,0-.617-.441,1.239,1.239,0,0,0-.684.068,10.343,10.343,0,0,0-3.716,2.262,4.224,4.224,0,0,0-1.267,1.629,3.76,3.76,0,0,0-.181,1.352,10.384,10.384,0,0,0,.984,4.321c.1.209.2.418.317.622a19.582,19.582,0,0,0,2.658,3.455l1.346,1.5c1.323,1.482,2.647,2.963,4.083,4.326a5.393,5.393,0,0,0,1.832,1.278,2.048,2.048,0,0,0,2.1-.339,3.043,3.043,0,0,0,.6-1.075,21.15,21.15,0,0,0,1.748-7.052,26.631,26.631,0,0,0-.124-2.924C848.718,525.352,847.989,524.951,847.027,524.889Z" transform="translate(-371.576 -251.429)" fill="#f3f6f9"/>
    <path id="Path_638" data-name="Path 638" d="M866.057,650.98a130.694,130.694,0,0,1-1.21,17.006c-.113.911-.237,1.821-.3,2.732-.187,2.641.119,5.294-.13,7.918-.13,1.42-.424,2.828-.673,4.213a74.921,74.921,0,0,0-.961,18.748c.781,10.423-1.612,20.852-.526,31.246a25.263,25.263,0,0,1-.334,6.046,25.643,25.643,0,0,1-.877,3.653q-1.239,4.247-2.488,8.483a2.941,2.941,0,0,1-.566,1.176,2.68,2.68,0,0,1-2.121.628c-3.263-.1-6.334-1.51-9.3-2.884a3.242,3.242,0,0,1-.933-.565c-.616-.639-.566-1.646-.837-2.489a23.649,23.649,0,0,0-1.425-2.5,8.162,8.162,0,0,1-.616-2.573q-.566-4.343-.769-8.721c-.215-4.106,2.5-7.884,3.393-11.876,1.7-7.85.26-16.265,3.275-23.713.95-2.353-.43-5.2-.566-7.737a24.53,24.53,0,0,0-.633-4.852c-.566-2.126-1.759-4.128-1.844-6.334a23.271,23.271,0,0,1,.718-4.722,21.225,21.225,0,0,0-.1-6.973c-.3-1.9-.758-3.8-1.216-5.655l-.1.209a63.9,63.9,0,0,0-3.546,8.342c-.453,1.386-.848,2.8-1.414,4.145-.464,1.131-1.035,2.166-1.595,3.229a92.711,92.711,0,0,0-5.231,11.622c-.7,1.957-1.318,3.959-1.929,5.921l-4.191,13.573c-1.131,3.569-2.37,7.018-3.478,10.581-1.567,5.09-3.133,10.135-4.954,15.111-1.7,4.722-3.716,9.614-3.111,14.6a10.743,10.743,0,0,1-4.994,1.012A29.236,29.236,0,0,1,802,747.523a6.594,6.594,0,0,1-2.93-1.742c-1.255-1.533-.944-3.778-.566-5.729a13.852,13.852,0,0,1,.679-2.579c.43-1.04,1.131-1.962,1.572-2.992.888-1.974.944-4.208,1.3-6.351s1.131-4.406,2.963-5.571c.311-3.767,1.861-7.482,2.715-11.164.645-2.788.86-5.655,1.369-8.483a18.633,18.633,0,0,1,3.037-7.946,12.594,12.594,0,0,1,1.538-6.786,7.42,7.42,0,0,0,.673-1.442,8.269,8.269,0,0,0,.181-1.493A8.828,8.828,0,0,1,816.912,680c-.566-2.064.221-4.219.927-6.221a21.614,21.614,0,0,0,1.188-7.957,6.975,6.975,0,0,1,.108-2.262c.158-.566.469-1.046.65-1.589a9.045,9.045,0,0,0,.255-2.03,23.484,23.484,0,0,1,2.828-8.675c.814-1.595.124-3.761.294-5.537.294-2.952.616-6.006,2.081-8.579.271-.486.566-.95.809-1.453a6.292,6.292,0,0,0,.469-2.262,8.329,8.329,0,0,0-.232-3.574c3.026-2.517,7.154-3.224,11.09-3.393s7.918.187,11.769-.65c1.131-.255,2.262-.605,3.455-.775a22.356,22.356,0,0,1,8.133.831,9.69,9.69,0,0,0,1.131,4.9,52.634,52.634,0,0,1,4.191,20.2Z" transform="translate(-356.334 -298.344)" fill="#02183a"/>
    <path id="Path_639" data-name="Path 639" d="M888.656,673.29l-6.5,14.614c-.3-1.9-.758-3.8-1.216-5.655l-.1.209v-.305l3.54-7.787Z" transform="translate(-392.251 -319.359)" opacity="0.1"/>
    <path id="Path_640" data-name="Path 640" d="M922.208,616.481a2.444,2.444,0,0,1-1.289.481,6.273,6.273,0,0,1-2.115-.288l-5.09-1.272a2.5,2.5,0,0,1-.464-.164c.085-.888.254-1.917.735-2.262.718-.481,2.867.164,3.682.277,1.4.192,2.828.418,4.2.684A11.2,11.2,0,0,1,922.208,616.481Z" transform="translate(-406.332 -293.079)" opacity="0.1"/>
    <path id="Path_641" data-name="Path 641" d="M926.107,558.423c.107.469.26.933.351,1.408a10.746,10.746,0,0,1-.119,3.5l-.464,3.235-.464,3.252-1.793,12.516-.441,3.1-.622,4.326a3.113,3.113,0,0,1-.271,1.041,2.166,2.166,0,0,1-1.77,1.046,6.412,6.412,0,0,1-2.115-.288l-5.09-1.278a1.6,1.6,0,0,1-.622-.255,1.227,1.227,0,0,1-.328-1.193c.073-.43.26-.831.322-1.261.124-.837-.226-1.7-.1-2.528a6.292,6.292,0,0,1,.566-1.521c1.7-3.75.713-8.127,1.289-12.2a18.494,18.494,0,0,1,3.925-8.732,25.066,25.066,0,0,1,4.332-4.253,8.719,8.719,0,0,1,2.438-1.7C926.152,556.427,925.937,557.711,926.107,558.423Z" transform="translate(-405.927 -268.67)" fill="#f3f6f9"/>
    <path id="Path_642" data-name="Path 642" d="M864.537,471.465c-.373,1.188.209,2.494-.057,3.7-.288,1.335-1.544,2.262-1.9,3.6-.565,2.042,1.165,3.9,2.432,5.6,4.694,6.3,4.078,15.021,2.471,22.707a117.251,117.251,0,0,1-5.344,18.1,13.867,13.867,0,0,1-2.879,5.05c2.6-.747,5.367-1.5,7.974-.775,3.3.916,6.153,4.123,9.5,3.393,2.013-.447,3.427-2.234,5.237-3.224,3.393-1.827,7.482-.679,11.266-.09a4.422,4.422,0,0,0,2.46-.124,4.089,4.089,0,0,0,1.493-1.374,13.946,13.946,0,0,0,2.907-7.522,9.648,9.648,0,0,0-2.777-7.426,15.885,15.885,0,0,1-2.381-2.262,7.025,7.025,0,0,1-.933-3.427c-.447-6.221,1.069-12.572-.492-18.589-.565-2.143-1.487-4.2-1.736-6.391-.311-2.732.43-5.655-.656-8.155a8,8,0,0,0-4.767-4.117A26.119,26.119,0,0,0,880,469.01C876.9,468.75,865.832,467.421,864.537,471.465Z" transform="translate(-382.876 -230.427)" fill="#02183a"/>
    <g id="Group_144" data-name="Group 144" transform="translate(476.384 239.742)" opacity="0.1">
      <path id="Path_643" data-name="Path 643" d="M869.716,513.536a117,117,0,0,1-5.316,18.024c.39-.775.718-1.589,1.029-2.4a116.636,116.636,0,0,0,5.344-18.1c1.612-7.691,2.228-16.4-2.466-22.706-1.131-1.5-2.585-3.133-2.534-4.9a6.026,6.026,0,0,0-.961,1.776c-.566,2.042,1.165,3.9,2.432,5.6C871.939,497.129,871.322,505.85,869.716,513.536Z" transform="translate(-861.493 -476.628)"/>
      <path id="Path_644" data-name="Path 644" d="M868.5,475.808a5.5,5.5,0,0,0,1-1.906,9.691,9.691,0,0,0-.068-2.522,2.721,2.721,0,0,0-.939,1.3C868.151,473.676,868.535,474.762,868.5,475.808Z" transform="translate(-863.208 -471.38)"/>
      <path id="Path_645" data-name="Path 645" d="M898.254,567.765a4.072,4.072,0,0,1-1.493,1.369,4.321,4.321,0,0,1-2.46.124c-3.784-.566-7.918-1.731-11.266.1-1.815.984-3.224,2.771-5.243,3.224-3.342.746-6.193-2.46-9.5-3.393-2.341-.65-4.807-.113-7.166.566a9.879,9.879,0,0,1-1.872,2.7c2.6-.746,5.367-1.5,7.974-.775,3.3.916,6.153,4.123,9.5,3.393,2.013-.447,3.427-2.234,5.237-3.224,3.393-1.827,7.482-.679,11.266-.09a4.422,4.422,0,0,0,2.46-.124,4.088,4.088,0,0,0,1.493-1.374,15.2,15.2,0,0,0,2.341-4.479A16.439,16.439,0,0,1,898.254,567.765Z" transform="translate(-859.26 -512.393)"/>
    </g>
  </g>
</svg>
