<svg id="Icon_ionic-ios-arrow-dropdown" data-name="Icon ionic-ios-arrow-dropdown" xmlns="http://www.w3.org/2000/svg" width="21.321" height="21.321" viewBox="0 0 21.321 21.321">
  <path id="Path_351" data-name="Path 351" d="M10.271,14.706a.993.993,0,0,0,0,1.4l4.9,4.889a.988.988,0,0,0,1.363.031l4.833-4.818a.988.988,0,1,0-1.394-1.4L15.827,18.9,11.67,14.7A.988.988,0,0,0,10.271,14.706Z" transform="translate(-5.166 -6.367)" fill="#051c3f"/>
  <path id="Path_352" data-name="Path 352" d="M3.375,14.035a10.66,10.66,0,1,0,10.66-10.66A10.659,10.659,0,0,0,3.375,14.035ZM20.411,7.66A9.017,9.017,0,1,1,7.66,20.411,9.017,9.017,0,1,1,20.411,7.66Z" transform="translate(-3.375 -3.375)" fill="#051c3f"/>
</svg>
