<svg xmlns="http://www.w3.org/2000/svg" width="19" height="19" viewBox="0 0 19 19">
  <path id="Imstagram" d="M15.328,19H3.672A3.676,3.676,0,0,1,0,15.327V3.672A3.676,3.676,0,0,1,3.672,0H15.327A3.676,3.676,0,0,1,19,3.672V15.327A3.676,3.676,0,0,1,15.328,19ZM1.849,7.551v7.777a1.823,1.823,0,0,0,1.821,1.82H15.327a1.822,1.822,0,0,0,1.82-1.82V7.551H14.31A5.108,5.108,0,0,1,14.7,9.5,5.2,5.2,0,1,1,4.3,9.5a5.15,5.15,0,0,1,.382-1.948ZM9.5,6.156A3.356,3.356,0,0,0,6.789,7.549,3.341,3.341,0,0,0,9.5,12.843a3.344,3.344,0,0,0,0-6.687Zm7.3-3.968h-.419l-2.8.009.011,3.221,3.21-.011V2.189Z" fill="#6b7c98"/>
</svg>
