<svg xmlns="http://www.w3.org/2000/svg" width="20.282" height="20.281" viewBox="0 0 20.282 20.281">
  <path id="Icon_awesome-linkedin-in" data-name="Icon awesome-linkedin-in" d="M4.54,20.282H.335V6.741h4.2ZM2.435,4.894A2.447,2.447,0,1,1,4.87,2.436,2.456,2.456,0,0,1,2.435,4.894ZM20.277,20.282h-4.2V13.691c0-1.571-.032-3.586-2.186-3.586-2.186,0-2.521,1.707-2.521,3.472v6.7h-4.2V6.741h4.033V8.588h.059A4.418,4.418,0,0,1,15.244,6.4c4.256,0,5.038,2.8,5.038,6.442v7.438Z" transform="translate(0 -0.001)" fill="#6b7c98"/>
</svg>
