<svg xmlns="http://www.w3.org/2000/svg" width="418" height="249.887" viewBox="0 0 418 249.887">
  <g id="Group_160" data-name="Group 160" transform="translate(0)">
    <path id="Path_725" data-name="Path 725" d="M822.566,617.678c-5.352-4.522-8.6-11.665-7.75-18.62s6.132-13.347,12.981-14.824,14.656,2.611,16.736,9.3c1.145-12.9,2.464-26.338,9.322-37.322a39.526,39.526,0,0,1,28.62-18.336c11.656-1.273,23.928,3.535,31.2,12.735s9.049,22.575,3.958,33.137c-3.751,7.781-10.661,13.571-17.9,18.282a115.529,115.529,0,0,1-79.014,17.286Z" transform="translate(-502.536 -370.598)" fill="#f2f2f2"/>
    <path id="Path_726" data-name="Path 726" d="M936.069,545.723a190.626,190.626,0,0,0-56.011,75.738c-.534,1.309,1.592,1.879,2.12.585a188.505,188.505,0,0,1,55.446-74.768C938.721,546.384,937.157,544.837,936.069,545.723Z" transform="translate(-536.457 -374.641)" fill="#fff"/>
    <path id="Path_727" data-name="Path 727" d="M299.561,582.809c7.35-6.211,11.815-16.022,10.644-25.574s-8.423-18.332-17.83-20.361-20.13,3.586-22.987,12.775c-1.572-17.716-3.384-36.175-12.8-51.262-8.529-13.661-23.3-23.436-39.31-25.185s-32.865,4.856-42.85,17.492S162,521.7,168.988,536.21c5.151,10.687,14.642,18.64,24.586,25.111A158.677,158.677,0,0,0,302.1,585.062" transform="translate(-165 -336.959)" fill="#f2f2f2"/>
    <path id="Path_728" data-name="Path 728" d="M214.7,483.979a259.621,259.621,0,0,1,36.18,35.927,263.33,263.33,0,0,1,28.533,42.228,262.266,262.266,0,0,1,12.218,25.871c.734,1.8-2.186,2.581-2.912.8a257.7,257.7,0,0,0-23.547-44.552,258.685,258.685,0,0,0-52.608-58.142C211.06,484.887,213.208,482.762,214.7,483.979Z" transform="translate(-189.447 -342.512)" fill="#fff"/>
    <path id="Path_729" data-name="Path 729" d="M599.868,439.289H424.5V259.357a69.5,69.5,0,0,1,69.426-69.426h36.515a69.505,69.505,0,0,1,69.426,69.426Z" transform="translate(-299.821 -189.931)" fill="#f2f2f2"/>
    <path id="Path_730" data-name="Path 730" d="M563.353,439.291H424.5V259.359a68.889,68.889,0,0,1,13.259-40.812c.319-.435.637-.864.965-1.288A69.409,69.409,0,0,1,453.5,202.917c.317-.231.635-.457.958-.684a69.265,69.265,0,0,1,15.121-7.908c.318-.12.641-.241.964-.357a69.2,69.2,0,0,1,14.946-3.525c.316-.043.64-.077.965-.111a70.286,70.286,0,0,1,14.945,0c.324.034.648.068.968.111a69.182,69.182,0,0,1,14.943,3.524c.323.116.647.236.965.357a69.088,69.088,0,0,1,14.945,7.791c.323.222.646.448.964.675a70.143,70.143,0,0,1,8.833,7.478,69.317,69.317,0,0,1,6.114,6.991c.327.423.645.852.963,1.286a68.889,68.889,0,0,1,13.259,40.813Z" transform="translate(-299.82 -189.933)" fill="#ccc"/>
    <circle id="Ellipse_54" data-name="Ellipse 54" cx="7.687" cy="7.687" r="7.687" transform="translate(244.554 153.507)" fill="#6c63ff"/>
    <path id="Path_731" data-name="Path 731" d="M585.2,483.215h-5.89l-2.8-22.72H585.2Z" transform="translate(-299.518 -239.246)" fill="#ffb8b8"/>
    <path id="Path_732" data-name="Path 732" d="M565.847,504.28h11.36v7.153H558.695A7.153,7.153,0,0,1,565.847,504.28Z" transform="translate(-290.264 -261.994)" fill="#2f2e41"/>
    <path id="Path_733" data-name="Path 733" d="M646.2,483.215h-5.89l-2.8-22.72H646.2Z" transform="translate(-331.21 -239.246)" fill="#ffb8b8"/>
    <path id="Path_734" data-name="Path 734" d="M626.847,504.28h11.36v7.153H619.695A7.153,7.153,0,0,1,626.847,504.28Z" transform="translate(-321.956 -261.994)" fill="#2f2e41"/>
    <path id="Path_735" data-name="Path 735" d="M697.134,460.691a5.162,5.162,0,0,1,2.167-7.612l20.023-55.189,9.853,5.377-22.863,52.74a5.189,5.189,0,0,1-9.181,4.683Z" transform="translate(-441.002 -297.974)" fill="#ffb8b8"/>
    <path id="Path_736" data-name="Path 736" d="M806.126,478.63a5.161,5.161,0,0,1-1.39-7.791l-6.2-58.38,11.213.512,2.578,57.425a5.189,5.189,0,0,1-6.2,8.235Z" transform="translate(-494.146 -305.543)" fill="#ffb8b8"/>
    <circle id="Ellipse_55" data-name="Ellipse 55" cx="11.801" cy="11.801" r="11.801" transform="translate(282.292 66.093)" fill="#ffb8b8"/>
    <path id="Path_737" data-name="Path 737" d="M775.709,451.438H740.133l.043-.277c.064-.414,6.34-41.53,1.711-54.982a5.676,5.676,0,0,1,2.916-7.007h0c6.617-3.116,19.318-6.953,30.038,2.359a13.565,13.565,0,0,1,4.545,11.241Z" transform="translate(-463.805 -291.628)" fill="#6c63ff"/>
    <path id="Path_738" data-name="Path 738" d="M737.035,419.973l-16.017-3.249,7.508-17.791a6.725,6.725,0,1,1,13.023,3.362Z" transform="translate(-453.874 -295.894)" fill="#6c63ff"/>
    <path id="Path_739" data-name="Path 739" d="M795.867,427.353,794.9,405.28c-.73-4.149,1.645-8.072,5.3-8.713s7.222,2.239,7.956,6.419l3.619,20.625Z" transform="translate(-492.192 -297.24)" fill="#6c63ff"/>
    <path id="Path_740" data-name="Path 740" d="M772.453,517.049c5.724,21.8,6.349,49.521,4.8,79.756l-7.687-.961L755.637,538.19l-7.687,58.616-8.648-.48c-2.584-31.725-5.1-58.96-.961-76.874Z" transform="translate(-461.732 -359.882)" fill="#2f2e41"/>
    <path id="Path_741" data-name="Path 741" d="M769.561,342.532a3.812,3.812,0,0,1-6.577-2.117,3.871,3.871,0,0,1,0-.747c.148-1.419.968-2.707.772-4.206a2.206,2.206,0,0,0-.4-1.032c-1.754-2.349-5.872,1.051-7.528-1.076-1.015-1.3.178-3.357-.6-4.814-1.028-1.924-4.074-.975-5.984-2.028-2.125-1.172-2-4.432-.6-6.415A10.091,10.091,0,0,1,756.3,316.2a20.523,20.523,0,0,1,8.645,1.687c3.133,1.221,6.24,2.908,8.168,5.663,2.345,3.35,2.57,7.855,1.4,11.772C773.793,337.706,771.359,340.617,769.561,342.532Z" transform="translate(-467.694 -255.519)" fill="#2f2e41"/>
    <path id="Path_742" data-name="Path 742" d="M620.79,708.337H266.069a.572.572,0,0,1,0-1.144H620.79a.572.572,0,0,1,0,1.144Z" transform="translate(-217.212 -458.669)" fill="#3f3d56"/>
    <path id="Path_743" data-name="Path 743" d="M563.083,443.01h-62.46a3.106,3.106,0,0,1-3.123-3.082V300.513a3.106,3.106,0,0,1,3.123-3.082h62.46a3.106,3.106,0,0,1,3.123,3.082V439.928A3.106,3.106,0,0,1,563.083,443.01Z" transform="translate(-337.747 -245.781)" fill="#fff"/>
    <rect id="Rectangle_1539" data-name="Rectangle 1539" width="68.706" height="0.961" transform="translate(159.753 96.76)" fill="#ccc"/>
    <rect id="Rectangle_1540" data-name="Rectangle 1540" width="68.706" height="0.961" transform="translate(159.993 151.585)" fill="#ccc"/>
    <rect id="Rectangle_1541" data-name="Rectangle 1541" width="0.961" height="146.06" transform="translate(181.374 51.649)" fill="#ccc"/>
    <rect id="Rectangle_1542" data-name="Rectangle 1542" width="0.961" height="146.06" transform="translate(205.396 51.649)" fill="#ccc"/>
  </g>
</svg>
