<svg xmlns="http://www.w3.org/2000/svg" xmlns:xlink="http://www.w3.org/1999/xlink" width="1440" height="403" viewBox="0 0 1440 403">
  <defs>
    <clipPath id="clip-path">
      <rect id="Rectangle_1552" data-name="Rectangle 1552" width="1440" height="403" transform="translate(0 1542)" fill="#fff" stroke="#707070" stroke-width="1"/>
    </clipPath>
  </defs>
  <g id="Mask_Group_2" data-name="Mask Group 2" transform="translate(0 -1542)" clip-path="url(#clip-path)">
    <g id="Group_143" data-name="Group 143" transform="translate(-113 1194.73)" opacity="0.3">
      <path id="Path_538" data-name="Path 538" d="M0,1179.867c0-136.459,19.077-286.216,83.45-403.126,89.624-162.772,84.841-363.314,65.042-502.882C135.231,181.152,113.226,91.169,83.025,6.147L91.68,0c30.593,86.06,52.893,177.144,66.346,270.99C178.247,413.3,183.079,617.952,91.256,784.719c-172.02,312.415-17.521,871.831-15.946,877.439l-9.112,4.765A2107.489,2107.489,0,0,1,8.336,1343.165C2.915,1289.042.13,1234.49,0,1179.867Z" transform="translate(1666.923 484.608) rotate(90)" fill="#fff"/>
      <path id="Path_539" data-name="Path 539" d="M79.525,0s81.557,458.656-30.109,777.722.829,884.077.829,884.077" transform="translate(1663.914 492.436) rotate(90)" fill="#fff" opacity="0.3" style="mix-blend-mode: normal;isolation: isolate"/>
      <path id="Path_540" data-name="Path 540" d="M0,436.015A1180.9,1180.9,0,0,1,12.1,270.99C25.55,177.144,47.85,86.06,78.443,0L87.1,6.148c-30.2,85.022-52.205,175-65.466,267.712C1.835,413.421-2.95,613.966,86.674,776.742c91.744,166.621,91.487,400.01,75.115,566.423a2107.475,2107.475,0,0,1-57.863,323.759l-9.112-4.765c1.58-5.615,156.081-565.018-15.946-877.439C18.651,675.359,0,549.7,0,436.015Z" transform="translate(1666.923 445.27) rotate(90)" fill="#fff" opacity="0.3" style="mix-blend-mode: normal;isolation: isolate"/>
      <path id="Path_541" data-name="Path 541" d="M0,437.731C0,207.51,60.636,3.067,61.563,0L70.59,5.063C69.212,9.614-65.562,464.307,70.275,776.8c138.2,317.9,14.84,883.45,13.577,889.124l-9.341-3.856c1.249-5.615,123.374-565.628-12.634-878.5C15.463,676.8,0,553.975,0,437.731Z" transform="translate(1666.381 484.568) rotate(90)" fill="#fff" opacity="0.3" style="mix-blend-mode: normal;isolation: isolate"/>
      <path id="Path_542" data-name="Path 542" d="M49.63,0s-111.667,458.59,0,777.655,10.551,883.811,10.551,883.811" transform="translate(1663.848 508.52) rotate(90)" fill="#fff" opacity="0.3" style="mix-blend-mode: normal;isolation: isolate"/>
      <path id="Path_543" data-name="Path 543" d="M82.63,0s175.683,458.59,0,777.655-16.6,883.811-16.6,883.811" transform="translate(1663.848 489.331) rotate(90)" fill="#fff" opacity="0.3" style="mix-blend-mode: normal;isolation: isolate"/>
    </g>
  </g>
</svg>
