<svg xmlns="http://www.w3.org/2000/svg" width="108.279" height="29.263" viewBox="0 0 108.279 29.263">
  <path id="Netflix_2015_logo" d="M14.889,27.377c-1.629.286-3.286.372-5,.6L4.658,12.66V28.634c-1.629.171-3.115.4-4.658.629V0H4.344l5.944,16.6V0h4.6V27.377Zm9-16.66c1.772,0,4.487-.086,6.116-.086V15.2c-2.029,0-4.4,0-6.116.086v6.8c2.686-.171,5.373-.4,8.087-.486V26l-12.66,1V0h12.66V4.572H23.891ZM48.981,4.572H44.238V25.605c-1.543,0-3.086,0-4.572.057V4.572H34.922V0h14.06V4.572Zm7.43,5.83H62.67v4.572H56.411V25.348H51.924V0H64.7V4.572H56.411V10.4ZM72.129,21.347c2.6.057,5.23.257,7.773.4v4.515c-4.086-.257-8.173-.514-12.345-.6V0h4.572Zm11.631,5.23c1.457.086,3,.172,4.487.343V0H83.76ZM108.279,0l-5.8,13.917,5.8,15.346c-1.715-.229-3.429-.543-5.144-.829l-3.286-8.459-3.343,7.773c-1.658-.286-3.258-.372-4.915-.6l5.887-13.4L92.162,0h4.915l3,7.687L103.278,0h5Z" transform="translate(0 0)" fill="#fff" opacity="0.2"/>
</svg>
