<svg xmlns="http://www.w3.org/2000/svg" width="16.462" height="28" viewBox="0 0 16.462 28">
  <g id="noun_Location_2801186" transform="translate(-112.264 -15.556)">
    <g id="Group_165" data-name="Group 165" transform="translate(112.264 15.556)">
      <g id="Group_162" data-name="Group 162" transform="translate(0 0)">
        <g id="Group_161" data-name="Group 161">
          <path id="Path_746" data-name="Path 746" d="M121.169,42.667c-.43-.962-.86-1.93-1.291-2.892q-1.362-3.065-2.731-6.13l-2.456-5.521-.609-1.362a7.114,7.114,0,0,1-.621-3.22,7.271,7.271,0,0,1,5.927-6.7,6.966,6.966,0,0,1,7.636,9.476c-.125.311-.263.621-.388.932l-2.079,4.929q-1.344,3.191-2.695,6.387c-.568,1.344-1.135,2.695-1.7,4.039-.03.066-.054.131-.084.2a.6.6,0,0,0,.418.735.612.612,0,0,0,.735-.418c.424-1.01.854-2.02,1.279-3.029q1.344-3.182,2.683-6.363,1.183-2.8,2.36-5.6c.179-.418.353-.836.532-1.261a8.118,8.118,0,0,0,.586-4.123,8.234,8.234,0,0,0-7.05-7.116,8.386,8.386,0,0,0-8.484,4.559,8.262,8.262,0,0,0-.663,5.515,10.868,10.868,0,0,0,.723,1.978c.693,1.559,1.392,3.125,2.085,4.684q1.452,3.253,2.9,6.5c.621,1.4,1.243,2.79,1.864,4.188.03.072.066.143.1.215a.6.6,0,0,0,1.034-.6Z" transform="translate(-112.264 -15.556)" fill="#fff"/>
        </g>
      </g>
      <g id="Group_164" data-name="Group 164" transform="translate(3.098 3.248)">
        <g id="Group_163" data-name="Group 163">
          <path id="Path_747" data-name="Path 747" d="M168.941,78.193l2.8,1.476a.606.606,0,0,0,.878-.675q-.269-1.559-.538-3.125c-.054.191-.1.388-.155.58.759-.735,1.512-1.476,2.27-2.211a.6.6,0,0,0-.263-1c-1.046-.149-2.091-.3-3.137-.454.119.09.239.185.358.275-.466-.95-.932-1.894-1.4-2.844a.6.6,0,0,0-1.034,0c-.466.95-.932,1.894-1.4,2.844.119-.09.239-.185.358-.275-1.046.149-2.091.3-3.137.454a.6.6,0,0,0-.263,1c.759.735,1.512,1.476,2.27,2.211-.054-.191-.1-.388-.155-.58q-.269,1.559-.538,3.125a.605.605,0,0,0,.878.675l2.8-1.476c.681-.358.078-1.392-.6-1.034l-2.8,1.476c.293.227.586.448.878.675.161-.932.323-1.864.478-2.8.018-.108.042-.215.054-.323a.759.759,0,0,0-.293-.717c-.388-.376-.777-.759-1.165-1.135-.323-.311-.645-.627-.962-.938-.09.335-.173.663-.263,1,.932-.137,1.858-.269,2.79-.406.114-.018.233-.024.347-.048a.689.689,0,0,0,.442-.448c.239-.484.478-.974.723-1.458.2-.4.4-.807.6-1.207H168.72c.418.842.831,1.685,1.249,2.527a3.01,3.01,0,0,0,.155.311.679.679,0,0,0,.55.3l1.613.233c.442.066.89.131,1.332.191-.09-.335-.173-.663-.263-1-.675.663-1.356,1.32-2.031,1.984-.078.078-.161.149-.233.227a.814.814,0,0,0-.119.771c.09.538.185,1.07.275,1.607.078.442.149.884.227,1.326.293-.227.586-.448.878-.675l-2.8-1.476C168.863,76.8,168.254,77.834,168.941,78.193Z" transform="translate(-164.108 -69.925)" fill="#fff"/>
        </g>
      </g>
    </g>
  </g>
</svg>
