<svg xmlns="http://www.w3.org/2000/svg" width="46.035" height="36.826" viewBox="0 0 46.035 36.826">
  <g id="np_sign-up_5506_000000" transform="translate(-14 -21.403)">
    <path id="Path_649" data-name="Path 649" d="M46.223,53.626H18.6V26.006h27.62v7.672l4.6-4.6V26.006s0-4.6-4.6-4.6H18.6s-4.6,0-4.6,4.6v27.62s0,4.6,4.6,4.6h27.62s4.6,0,4.6-4.6V44.42l-4.6,4.6Z" transform="translate(0 0)" fill="#02183a"/>
    <path id="Path_650" data-name="Path 650" d="M28.4,33.4H46.813v3.069H28.4Z" transform="translate(-5.192 -4.326)" fill="#02183a"/>
    <path id="Path_651" data-name="Path 651" d="M28.4,43H46.813v3.069H28.4Z" transform="translate(-5.192 -7.789)" fill="#02183a"/>
    <path id="Path_652" data-name="Path 652" d="M28.4,52.6H42.21v3.07H28.4Z" transform="translate(-5.192 -11.251)" fill="#02183a"/>
    <path id="Path_653" data-name="Path 653" d="M28.4,62.2H37.6v3.069H28.4Z" transform="translate(-5.192 -14.712)" fill="#02183a"/>
    <path id="Path_654" data-name="Path 654" d="M57.871,53.544l-3.07-3.07L67.077,38.2l3.069,3.069Z" transform="translate(-14.714 -6.057)" fill="#02183a"/>
    <path id="Path_655" data-name="Path 655" d="M54.6,62.871l-3.07-3.07L50,61.335V64.4h3.069Z" transform="translate(-12.983 -13.847)" fill="#02183a"/>
    <path id="Path_656" data-name="Path 656" d="M76.4,34.07,79.468,31l3.069,3.07-3.069,3.07Z" transform="translate(-22.502 -3.461)" fill="#02183a"/>
  </g>
</svg>
