<svg xmlns="http://www.w3.org/2000/svg" width="66.739" height="104.901" viewBox="0 0 66.739 104.901">
  <g id="g90" transform="translate(0)" opacity="0.2">
    <g id="g32" transform="translate(0 0)">
      <g id="g28" transform="translate(0 0)">
        <path id="polygon8" d="M66.512,21.963l-2.935,1.413s-.115,1.827-.214,3.559c-.874,12.129-1,17.3-.968,21.049.04,9.659,1.118,20.829,1.118,20.829l.155,1.9,2.845-1.278s.04-45.542,0-47.469Zm-6.628,3.19L57.1,26.326s-.115,1.423-.22,3.15c-1,12.179-1.088,18.394-1.107,20.964-.075,9.03,1.2,21.5,1.2,21.5l.194,1.787,3.289-1.5.17-2.9c.5-5.96.5-5.935.694-19.966.125-8.446-1.213-21.389-1.243-21.809-.06-.864-.189-2.4-.189-2.4Zm-6.639,3.109-2.82,1.294s-.11,1.4-.214,3.125c-1,12.184-1.088,18.4-1.113,20.989-.07,9.02,1.2,21.5,1.2,21.5l.185,1.7,3.3-1.5.165-2.811s.5-5.949.7-20c.125-8.446-1.218-21.389-1.248-21.8-.06-.864-.155-2.5-.155-2.5Zm-6.554,3.07-2.9,1.233a27.093,27.093,0,0,1-.21,2.96,207.556,207.556,0,0,0-1.059,21.284c-.11,8.915,1.253,21.463,1.253,21.463l.165,1.7,2.995-1.448.23-2.731s.738-6.489.9-20.644c.08-7.293-1.123-20.086-1.173-21.428-.04-.814-.2-2.387-.2-2.387Zm-6.937,3.2-2.156.874L37.3,38.35C36.084,50,35.969,56.769,35.934,59.465a195.843,195.843,0,0,0,1.5,21.582l.17,1.878,2.72-1.294.16-2.8s.649-6.609.843-20.76c.11-7.487-1.268-20.051-1.417-21.708C39.837,35.54,39.753,34.532,39.753,34.532Zm-6.828,3.08-1.433.619s0,.28,0,1.438c-.789,6.1-2.191,13.447-2.346,22.462a138.019,138.019,0,0,0,1.891,21.8l.2,1.882,1.632-.784.265-2.97c1.228-10.981,1.5-12.2,1.612-21.274.11-7.572-1.2-15.708-1.781-21.523a12.481,12.481,0,0,1-.045-1.648ZM26.37,40.686l-1.448.659a109.613,109.613,0,0,1-.254,11.361c-1.458,8.071-2,10.887-1.8,14.72a70.265,70.265,0,0,0,1.307,10.2c.319,2.156.424,3.494.424,3.494l.06,7.782,1.4-.693s0-6.489.039-6.849.04-.734.12-1.667c.245-2.855,1.153-8.67,1.5-13.407.409-6.1-.908-11.88-1.173-14.736-.14-1.532-.239-3.584-.175-10.866Zm-6.5,3.08L18.5,44.35c.045,9.254.045,11.9.035,13.068-1.338,6.938-1.593,7.3-1.807,10.707a24.356,24.356,0,0,0,.739,6.893c.4,2,.888,4.148.888,4.148l-.045,12.7,1.5-.724.04-12.608s1.253-6.788,1.443-10.671c.225-4.667-1.418-9.659-1.418-10.807Zm-6.434,3.02-1.328.559v20.55c0,.5-.959,1.8-1.2,2.606a2.211,2.211,0,0,0,.838,2.9c.459.324.32,1.362.36,2.046s0,19.257,0,19.257l1.363-.579V73.52c0-.619,2-2.385,1.307-4.272-.23-.624-1.083-1.368-1.093-1.5C13.572,66.782,13.437,46.786,13.437,46.786Zm-6.265,2.89-1.237.529V97.53l1.248-.52Zm-5.785,2.7L.13,52.9l.01,47.328,1.253-.533Zm22.148,52.715c-3.684,0-8.116,1.8-8.036,5.95s4.4,5.761,8.036,5.761,7.6-1.613,7.671-5.761S27.289,105.086,23.535,105.086Zm-17.7.082a10.049,10.049,0,0,0-4.085.782,2.794,2.794,0,0,0-1.462,4.257,4.894,4.894,0,0,0,2.995,1.5c1.907.434,4.472.59,6.084.8a1.119,1.119,0,0,1,.549,2.117c-1.4.764-4.921.718-6.843-.35-1.677-.923-1.5-1.8-1.5-2.037H.075v3.993H1.737v-.344c-.04-.574.763-.135,1.262.04,2.745.948,6.614,1.118,8.825-.33,2.461-1.612,1.663-4.637-1.147-5.545-2.131-.694-5.576-.579-7.318-1.113-1.353-.414-.949-2.381,3.045-2.227,3.913.15,4.867,1.957,4.867,2.611h1.347v-3.643H11.172c.15.689-.24.774-.524.5a9.806,9.806,0,0,0-4.815-1.012Zm26.952.478v1.4h1.328c.734.025.734.379.734.8v6.414c-.02.314-.1.609-.659.649H32.809v1.3h6.214v-1.353H37.611c-.314.015-.674.055-.674-.643l0-5.281,8.281,7.278h1.966v-8.541c0-.314.16-.658.5-.658h1.443v-1.363H43.117v1.347h1.327c.309.04.68.04.68.794v4.428l-7.093-6.569Zm17.715.01v1.382h1.168a1.447,1.447,0,0,1,1.2.56c.04.06,4.183,4.612,4.183,4.612v2.39c0,.16-.03.25-.325.25H55.012V116.2h7.083V114.85H60.547c-.3,0-.3.005-.3-.25v-2.371s3.739-4.423,4.038-4.727a1.2,1.2,0,0,1,.829-.464h1.368v-1.382H60.627v1.382h.888c.294,0,.34.41.2.6l-2.436,2.87s-2.131-2.556-2.43-2.851-.08-.619.08-.619h.733v-1.382Zm-27.034,1a4.125,4.125,0,0,1,4.457,4.3c-.01,2.725-2,4.227-4.457,4.3a4.3,4.3,0,1,1,0-8.6ZM17.506,119.7c-1.927-.035-4.273,1.013-4.233,3.673s2.491,3.494,4.457,3.494a3.176,3.176,0,0,0,3.364-2.331l-.754.02c-.28,1.233-1.662,1.5-2.536,1.5a2.69,2.69,0,0,1-2.661-2.695,2.572,2.572,0,0,1,2.291-2.8c1.448-.185,2.805.56,2.87,1.728H21v-2.227h-.754c.08.489-.135.48-.3.31a4.448,4.448,0,0,0-2.441-.674Zm44.7.159c-.06,0-.12,0-.179,0a5.176,5.176,0,0,0-2,.485,1.752,1.752,0,0,0-.768,2.576,2.5,2.5,0,0,0,1.582.9,31.813,31.813,0,0,0,3.189.5c.978.15.789,1.019.29,1.318a3.213,3.213,0,0,1-3.589-.255c-.864-.554-.779-1.088-.779-1.227h-.778v2.421h.874v-.21c-.02-.369.4-.1.664,0,1.438.579,3.464.684,4.622-.195a1.9,1.9,0,0,0-.6-3.354c-1.123-.414-2.95-.269-3.838-.674-.794-.359-.479-1.5,1.587-1.448s2.566,1.287,2.566,1.682h.7v-2.256h-.758c.075.464-.086.464-.305.354a5.176,5.176,0,0,0-2.484-.624Zm-53.381.175v.843h.734c.285,0,.359.16.359.4v4.053c0,.25-.074.36-.359.36H8.825v.843h3.809V125.7H11.89c-.29,0-.35-.115-.35-.365l.025-4.053c0-.245.06-.409.349-.409h.744v-.838Zm21.963.005v.843h.739c.285,0,.354.16.354.4v3.184c0,2,1.633,2.361,3.185,2.361,1.582,0,3.095-.374,3.075-2.261v-2.995c0-.494.155-.679.339-.679h.739v-.838H35.969v.844H36.7c.29,0,.36.159.36.4v3.28c0,.7-.175,1.5-2,1.5-1.627,0-1.542-1.278-1.542-1.5v-3.3c0-.25.07-.409.36-.409h.738v-.838Zm-8.635.015v2.466l.794.011c0-1.692.085-1.583.754-1.643h1.5v4.492c0,.25-.075.409-.36.409H24.1v.794h3.839v-.8H27.2c-.285,0-.35-.16-.35-.409v-4.492h1.5c.6.07.755-.1.755,1.642h.773v-2.466Zm-22.2,0v.859h.7c.285,0,.359.13.359.369v4.053c0,.245-.064.36-.354.36H-.08v.843H3.774V125.7H3.02c-.285,0-.355-.11-.355-.355v-1.6H4.987c2.106,0,2.955-.544,2.955-1.9s-.609-1.792-2.5-1.792Zm40.161.016v.8h.7c.285,0,.355.18.355.424v4.048c0,.25-.061.365-.345.365h-.743v.869H43.92v-.853h-.739c-.285,0-.354-.11-.354-.355v-1.6h1.891c.739,0,1.133.194,1.133.693v.714c0,1.293.824,1.563,1.683,1.563,1.018,0,1.3-.334,1.3-1.5v-.5h-.689v.4c.015.354.036.728-.284.728s-.35-.275-.35-.454v-.938c-.035-.789-.489-.923-1.138-1.083.749-.14,1.617-.47,1.622-1.508,0-1.223-.614-1.821-2.5-1.821Zm9.564,0v.843h.739c.285,0,.355.165.355.409v4.048c0,.245-.07.365-.355.365H49.68v.843h7.732v-2.505h-.749c0,1.263-.115,1.577-.784,1.642H52.43V123.67h1.6c.215,0,.349.08.349.414v.7H55.1v-3.049h-.715v.669c0,.344-.134.419-.349.419h-1.6v-1.957H55.88c.669.065.784.414.784,1.667h.749v-2.461Zm-47.015.808H4.872c.734,0,1.233.23,1.233,1s-.5,1-1.343,1h-2.1Zm42.442.018h.047a1.043,1.043,0,0,1,1.007,1c0,.624-.434,1-1.238,1h-2.1v-2H45Q45.055,120.9,45.108,120.9Z" transform="translate(0.21 -21.963)" fill="#fff"/>
      </g>
    </g>
  </g>
</svg>
