<svg xmlns="http://www.w3.org/2000/svg" width="108.279" height="87.981" viewBox="0 0 108.279 87.981">
  <g id="_20th-century-fox" data-name="20th-century-fox" opacity="0.2">
    <path id="Path_518" data-name="Path 518" d="M57.849,41.712a6.406,6.406,0,0,1,4.376.958,5.881,5.881,0,0,1,2.5,5.168,7.927,7.927,0,0,1-3.168,6.126,9.477,9.477,0,0,1-6.668,2.292,6.487,6.487,0,0,1-4.751-2.876,6.885,6.885,0,0,1-.333-4.668,12.609,12.609,0,0,1,3.459-4.793,11.5,11.5,0,0,1,4.584-2.209Zm-55.015,75.6v-3.459l20.047-2.251s-4.126-1.626-5.126-4.668c-1.083-3.209,1.5-6.418,3.584-6.792,2.834-.543,6.543-.834,6.543-.834l3.668.333,79.563,9.128v8.544Zm34.009-19.13,52.014-6.044,12.17,4.627.042,8.377-64.225-6.96Z" transform="translate(-2.834 -29.334)" fill="#fff"/>
    <path id="Path_519" data-name="Path 519" d="M111.113,20.37H97.442l5.543,56.389s-.124.958-.791,1.084a.665.665,0,0,1-.792-.542l-2.459-9.336L88.815,64.339,78.271,74.216l8.753,5.627-8.419,1L73.853,77.8l-3.71,3.96-8.085.958L69.1,75.384,58.266,69.132l-5.127.792s4.418,1.292,6.21,2.792c1.751,1.5,2.125,3.084,1.709,5.668s-3.251,4.627-3.251,4.627l-16.546,2-1.917-.958a4.986,4.986,0,0,1-2.584-3.918c-.125-2.418,2.584-6.21,2.584-6.21l-4.209-1.208v3.75l-8.419,1.292v2.918l7.585-1v3.418l-7.46,1.083.042,2.46-5,.667V75.632l-1.667.25V73.424l68.6-12.087,9.462,3.543L95.152,52.043l-6.21-2.334L84.607,56.46l-.041,3.668-3.335.667V57.169L78.4,54.335,74.73,53.5s.792.5,1.084.667a2.779,2.779,0,0,1,1.167,2.542c0,1.542-2.041,2.376-2.041,2.376L78.4,61.337l-3.5.708L70.938,60,70.9,62.713l-2.959.542V55.338l-2.375-.709s0,5.46-.042,7.461a2.253,2.253,0,0,1-1.709,1.959s-3.917,1.084-5.293.667a1.864,1.864,0,0,1-1.334-1.75V57.422l-1.211-.792-.042,2.417-2.292.542.042,6.251-2.876.543.042-6.127-2.334.417-.042-1.542-1.459-.626v8.5l-2.751.5-3.793-3.292.042,3.959-2.668.5.042-7.127L35.8,60.923v1.917l-3.5.917v1.5l3.043-.667V66.34l-3.043.667v1.376l3.418-.543.042,1.21-6.043,1.083.042-6.043s-.708-.167-2.584-.417c.875.583.667,1.042.667,1.042L26.465,66.09a1.811,1.811,0,0,0-1.876-.417,2.044,2.044,0,0,0-1.5,2.167c.042,1,.583,2.251,1.917,2.042a2.727,2.727,0,0,0,1.75-1.376l1.626.834-.833,1.208s-4.334.833-5.043.917a2.916,2.916,0,0,1-1.834-2.959,5.509,5.509,0,0,1,1.333-3.793L20.38,63.8v-1.75l68.476-15.17,5.627,2.167L92.233,40l-4.627-1.542-.042,6.585-2,.417V40.792c-.043-1.625-.417-1.959-1-2-1-.042-1.292.792-1.292,2.167V46l-2.334.5L80.9,35.79,67.435,30.122a17.669,17.669,0,0,1,1.417,1.542c1.666,2.042,2.459,4.251,1.834,8.127a14.839,14.839,0,0,1-2.751,6.5C66.518,48.71,63.1,51,63.1,51s-8.21,1.959-10.461,2.167c-2.209.208-5.085-1.834-6.5-3.251a10.365,10.365,0,0,1-2.626-5.043c-.417-1.834.833-6.71.833-6.71L41.3,36.539s.542,1.167.75,1.792c.208.583.583,1.417.083,3.793a5.815,5.815,0,0,1-1.25,2.75L33.8,53.587l8.5-1.626V55.42l-19.88,4.46V57.629s12-13.67,12.712-14.67c1.083-1.5,1.5-2.834.125-3.918-1.417-1.125-2.918-.625-4.459.667a8.964,8.964,0,0,0-2.084,3.751l-6.085,1,1.542-4.668c1.75-4.126,7.169-6,9.628-6.293a10.6,10.6,0,0,1,3.626.625l7.294,3.251s.25-.375.625-1.042c1-1.876,5.46-6.71,7.085-7.5a16.42,16.42,0,0,1,8.919-1.625,35.051,35.051,0,0,1,5.293,1.625L80.9,34.791l-.042-4.084,2.459-.875,7.169,3.043-2.959-12.42L23.632,20.37s-10.5,57.348-10.711,58.6c-.167.917-.625,1.292-1.583,1.083-.833-.208-.625-1.542-.625-1.542l2.5-58.141H2.834v83.021l5.543-.667L8.336,88.8s.125-1.126,1.167-1a19.145,19.145,0,0,1,2.459.292,1.254,1.254,0,0,1,.876,1.459v12.5l5.251-.667s-1.875-.709-2.5-4.085a6.575,6.575,0,0,1,1.083-4.875,7.828,7.828,0,0,1,4.959-3.085c.876-.124,67.6-8.126,67.6-8.126l11.836,4.709V84.8a1.061,1.061,0,0,1,1.084-1.083c1.542,0,1.667,0,2.5-.042a1.105,1.105,0,0,1,1.25,1.208l-.042,11.878,5.252.542V20.37h0ZM10.878,84.887c-3.043-.375-2.292-3.417-2.292-3.417l5.459.875A2.588,2.588,0,0,1,10.878,84.887Zm92.357-3.168a2.808,2.808,0,0,1-3.042-1.834l5.043-1.168A2.279,2.279,0,0,1,103.236,81.719Zm-23.76-42.8-1.708.417V36.791l-2.085.5V47.873l2.085-.625V41.459c.667-.208,1.708-.542,1.708-.542v-2Z" transform="translate(-2.834 -20.37)" fill="#fff"/>
    <path id="Path_520" data-name="Path 520" d="M86.806,63.1l2.375,1.208s.042,4.252.042,4.876c-.042.626-.333,1.042-1.167,1.208s-1.25.125-1.25-1Zm11.086.251a6.811,6.811,0,0,1,1.626,0,.908.908,0,0,1,.542,1.084.921.921,0,0,1-.791.792,10.409,10.409,0,0,1-1.376.292V63.349Zm8.919-4.168,3.96.834-1.376,2.125ZM66.133,67.016,71.3,68.642l-.041,3.376Zm4.793,16.213a11.2,11.2,0,0,1,4.959-1.751c2.375-.166,4.251.167,5.543,1.21a2.24,2.24,0,0,1,.542,3.375A6,6,0,0,1,78.595,88.4a12.611,12.611,0,0,1-5.793.5,4.8,4.8,0,0,1-3.126-1.458C68.425,85.9,69.676,84.229,70.926,83.229Zm22.34-8.419,9.71,1.542-2.918,2.834L93.266,74.81ZM118.73,46.719l-1.376-5.335L110.019,38.3v7.085a2.588,2.588,0,0,1,1.917-1.083,2.542,2.542,0,0,1,2.126.792Z" transform="translate(-29.498 -27.923)" fill="#fff"/>
  </g>
</svg>
