<svg xmlns="http://www.w3.org/2000/svg" width="28.285" height="20.726" viewBox="0 0 28.285 20.726">
  <path id="Twitter" d="M174.611,844.415l-.051-.034a4.869,4.869,0,0,0-3.72-1.41l-.051-.1.034-.017a4.314,4.314,0,0,0,2.293-.934c.068-.272-.017-.425-.306-.459a7.033,7.033,0,0,0-1.784.442c.68-.442.934-.748.782-.9a3.433,3.433,0,0,0-2.141,1.036c.272-.476.391-.747.323-.781a4.923,4.923,0,0,0-.951.8,15.266,15.266,0,0,0-1.393,1.784l-.017.034a15.932,15.932,0,0,0-1.92,4.468l-.136.119-.034.017a7.183,7.183,0,0,0-1.988-1.716,22.182,22.182,0,0,0-3.262-1.733,27.263,27.263,0,0,0-4.145-1.75,4.172,4.172,0,0,0,2.276,3.737v.017a5.447,5.447,0,0,0-1.563.238c.1,1.461,1.138,2.463,3.092,3.007l-.017.034a2.2,2.2,0,0,0-1.886.781,3.416,3.416,0,0,0,3.432,1.818,2.43,2.43,0,0,0-.747.544,1.15,1.15,0,0,0-.306,1.121,1.857,1.857,0,0,0,1.92.883l.051.068-.017.034a7.127,7.127,0,0,1-5.844,2.259l-.034.017a7.447,7.447,0,0,1-4.5-2,13.981,13.981,0,0,0,6.439,5.08,15.264,15.264,0,0,0,9.14.221h.051a14.552,14.552,0,0,0,7.526-5.266,10.452,10.452,0,0,0,1.784-3.975,3.688,3.688,0,0,0,3.347-1.342l-.017-.034a6.582,6.582,0,0,1-3.007-.17v-.17q2.446-.28,2.9-1.58a4.517,4.517,0,0,1-3.364.034,7.33,7.33,0,0,0-2.191-4.213" transform="translate(-152 -841)" fill="#6b7c98"/>
</svg>
