<svg xmlns="http://www.w3.org/2000/svg" width="20.001" height="20" viewBox="0 0 20.001 20">
  <g id="Icon_" data-name="Icon " transform="translate(0)">
    <rect id="Area_ICON:feather_twitter_SIZE:MEDIUM_STATE:DEFAULT_STYLE:STYLE2_" data-name="Area [ICON:feather/twitter][SIZE:MEDIUM][STATE:DEFAULT][STYLE:STYLE2]" width="20" height="20" fill="rgba(253,73,198,0.35)" opacity="0"/>
    <g id="Icon" transform="translate(-1 -1)">
      <path id="Path" d="M19.167,2.5A9.094,9.094,0,0,1,16.55,3.775,3.733,3.733,0,0,0,10,6.275v.833A8.884,8.884,0,0,1,2.5,3.333s-3.333,7.5,4.167,10.834A9.7,9.7,0,0,1,.833,15.833C8.333,20,17.5,15.833,17.5,6.25a3.739,3.739,0,0,0-.067-.692A6.427,6.427,0,0,0,19.167,2.5Z" transform="translate(1 1)" fill="none" stroke="#3e3e3e" stroke-linecap="round" stroke-linejoin="round" stroke-width="1.667"/>
    </g>
  </g>
</svg>
