<svg xmlns="http://www.w3.org/2000/svg" width="108.279" height="57.321" viewBox="0 0 108.279 57.321">
  <g id="Universal_Pictures_logo" opacity="0.2">
    <g id="Group_132" data-name="Group 132" transform="translate(0 20.337)">
      <path id="Path_382" data-name="Path 382" d="M4.415,218.924c-2.847,0-4.361-1.824-4.378-5.274L0,205.7a.174.174,0,0,1,.152-.172l2.481-.238a.158.158,0,0,1,.13.047.155.155,0,0,1,.056.122l.037,7.851c.007,1.725.663,2.6,1.953,2.6a2.348,2.348,0,0,0,.314-.02c1.512-.147,2.275-1.173,2.268-3.058l-.037-7.851a.169.169,0,0,1,.155-.169L10,204.574a.166.166,0,0,1,.189.169l.037,7.944c.01,2.133-.636,5.77-5.082,6.2-.253.022-.5.035-.727.035" transform="translate(0 -202.78)" fill="#fff"/>
      <path id="Path_383" data-name="Path 383" d="M117.222,209.728a.168.168,0,0,1-.115-.049.162.162,0,0,1-.052-.123l-.064-13.107a.168.168,0,0,1,.157-.172l2.646-.182a.162.162,0,0,1,.145.064l5.605,7.4-.034-7.7a.164.164,0,0,1,.157-.169l2.14-.152a.178.178,0,0,1,.128.049.155.155,0,0,1,.054.123l.061,13.108a.166.166,0,0,1-.157.172l-2.2.152a.186.186,0,0,1-.147-.061l-6.054-8.023.039,8.356a.165.165,0,0,1-.157.167l-2.143.152h-.013Z" transform="translate(-104.335 -194.718)" fill="#fff"/>
      <path id="Path_384" data-name="Path 384" d="M246.21,206.7a.176.176,0,0,1-.172-.167l-.074-13.071a.168.168,0,0,1,.16-.172l2.847-.14a.172.172,0,0,1,.128.047.154.154,0,0,1,.054.12l.064,13.071a.176.176,0,0,1-.165.172l-2.832.14h-.01Z" transform="translate(-219.356 -192.592)" fill="#fff"/>
      <path id="Path_385" data-name="Path 385" d="M297.9,201.824a.173.173,0,0,1-.157-.1l-5.573-12.906a.181.181,0,0,1,.017-.162.159.159,0,0,1,.137-.076l3.254-.1a.17.17,0,0,1,.162.1l3.625,8.425,3.748-8.651a.17.17,0,0,1,.147-.1l2.569-.074a.16.16,0,0,1,.145.074.155.155,0,0,1,.015.162l-5.711,13.24a.168.168,0,0,1-.152.1l-2.223.069Z" transform="translate(-260.554 -188.16)" fill="#fff"/>
      <path id="Path_386" data-name="Path 386" d="M436.392,201.417a.17.17,0,0,1-.172-.167l-.076-13.071a.181.181,0,0,1,.049-.123.175.175,0,0,1,.12-.049L446.79,188a.168.168,0,0,1,.169.167l.012,2.545a.166.166,0,0,1-.049.12.178.178,0,0,1-.123.049l-7.3.007.01,2.263,4.9-.007a.173.173,0,0,1,.169.172l.013,2.562a.174.174,0,0,1-.049.125.17.17,0,0,1-.12.047l-4.9.007.007,2.452,7.387-.01a.174.174,0,0,1,.169.174l.012,2.56a.154.154,0,0,1-.049.12.164.164,0,0,1-.12.052l-10.54.012h0Z" transform="translate(-388.963 -188)" fill="#fff"/>
      <path id="Path_387" data-name="Path 387" d="M568.664,193.96l2.324.071c.106,0,.206,0,.3,0a2.27,2.27,0,0,0,1.627-.4,1.494,1.494,0,0,0,.314-1.109c-.007-.621-.122-1.185-1.539-1.225l-3.038-.093Zm8.29,8.057h-.007l-3.387-.1a.156.156,0,0,1-.14-.086l-2.869-4.933-1.855-.057.022,4.753a.158.158,0,0,1-.054.123.184.184,0,0,1-.123.052l-2.856-.088a.17.17,0,0,1-.167-.172l-.061-13.107a.167.167,0,0,1,.054-.123.161.161,0,0,1,.123-.049l7.193.216c2.385.074,3.76,1.593,3.772,4.174a3.762,3.762,0,0,1-2.526,3.954l3.026,5.19a.167.167,0,0,1,0,.172.161.161,0,0,1-.145.083" transform="translate(-504.288 -188.203)" fill="#fff"/>
      <path id="Path_388" data-name="Path 388" d="M694.58,204.8c-.179,0-.361-.005-.55-.017a10.937,10.937,0,0,1-4.739-1.762.154.154,0,0,1-.081-.14l-.015-3.023a.171.171,0,0,1,.265-.14,11.478,11.478,0,0,0,4.575,2.071,2.5,2.5,0,0,0,1.87-.4.8.8,0,0,0,.223-.6c0-.295-.3-.582-.95-.9-.383-.2-.837-.383-1.321-.582-2.042-.839-4.842-1.985-4.854-5.08a3.443,3.443,0,0,1,.967-2.54,4.794,4.794,0,0,1,3.676-1.183,12.367,12.367,0,0,1,4.859,1.588.17.17,0,0,1,.081.147l.017,2.928a.174.174,0,0,1-.265.145,10.929,10.929,0,0,0-4.695-1.809,1.52,1.52,0,0,0-1.19.3.515.515,0,0,0-.167.373c0,.317.314.638.957.984.385.206.878.415,1.4.633,2.013.849,4.768,2.008,4.781,4.79a3.963,3.963,0,0,1-1.07,2.95,5.125,5.125,0,0,1-3.776,1.269" transform="translate(-614.47 -190.226)" fill="#fff"/>
      <path id="Path_389" data-name="Path 389" d="M798.038,208.325l2.37.172-1.166-3.207Zm7.4,6.109-.012,0-2.82-.206a.166.166,0,0,1-.147-.113l-.95-2.638-4.587-.339-.971,2.481a.167.167,0,0,1-.169.108l-2.363-.174a.191.191,0,0,1-.135-.076.182.182,0,0,1-.012-.155l5.065-12.845a.176.176,0,0,1,.172-.11l1.975.147a.165.165,0,0,1,.147.113l4.965,13.581a.147.147,0,0,1-.02.157.169.169,0,0,1-.138.071" transform="translate(-707.444 -199.027)" fill="#fff"/>
      <path id="Path_390" data-name="Path 390" d="M930.346,220.708h-.017l-8.128-.748a.171.171,0,0,1-.152-.172l-.079-13.262a.17.17,0,0,1,.054-.13.186.186,0,0,1,.132-.044l2.457.228a.169.169,0,0,1,.155.169l.049,10.506,5.532.51a.173.173,0,0,1,.155.172l.01,2.6a.162.162,0,0,1-.052.128.168.168,0,0,1-.115.044" transform="translate(-822.234 -204.367)" fill="#fff"/>
    </g>
    <path id="Path_391" data-name="Path 391" d="M524.742,15.383a6.159,6.159,0,0,0-2.852-.022,1.439,1.439,0,0,0-.589-.115.155.155,0,0,0-.052.015c.029.015.064.029.1.042-.1.037-.137-.012-.218-.03.051.071.042.059,0,.133a.122.122,0,0,0,.015.032,1.955,1.955,0,0,0,.748.1v-.017c-.066-.066-.219-.078-.3-.14h-.03v-.015a1.368,1.368,0,0,1,.516.221.286.286,0,0,1,.064-.042c-.054.083-.11.106-.081.191-.334-.052-.579-.172-.709.2l.11.093-.081.027c-.005.03-.012.059-.017.091a1.008,1.008,0,0,0,.376.25c.007.061.017.13.027.2.039.034.039.027.1.017.071.069.022.12.059.165.091.118.437.289.513.395.027.032,0,.1.063.137a3.569,3.569,0,0,1,.376.228c.039.022.01,0,0,.042.246.115.624.106.83.231.042.042.02.015.017.074l.643.177a.281.281,0,0,0,.044-.012.117.117,0,0,0-.012-.11c.128-.071.159-.211.253-.309a.232.232,0,0,1-.047-.2c.177-.025.23-.12.378-.155-.017-.086-.008-.106-.079-.14.042-.032.032-.017.1,0,.017-.015.029-.032.047-.047-.047-.039-.1-.083-.142-.125h-.029v-.017a.6.6,0,0,0,.265.025.093.093,0,0,0,.034-.017c-.022-.022-.042-.049-.064-.076.007-.007.012-.01.012-.015a.682.682,0,0,0,.378.074,1.106,1.106,0,0,0,.032-.12l.081-.01c-.029.037-.054.076-.081.115a.268.268,0,0,1,.015.032,2.256,2.256,0,0,0,.972-.118v-.091c.42-.12,1.019.135,1.428.1a9.219,9.219,0,0,0-3.2-1.462" transform="translate(-464.751 -13.567)" fill="#fff"/>
    <path id="Path_392" data-name="Path 392" d="M303.624,43.046a5.774,5.774,0,0,0,.6.984c.508.52,1.34.8,1.659,1.47.155.152.3.3.456.449-.007.073-.017.142-.027.211a2.871,2.871,0,0,1,.088.729,1.866,1.866,0,0,0-.042.341c.017.066.034.137.049.208a4.08,4.08,0,0,0-.13.692c-.064.027-.025.012-.111,0,0,.076-.007.152-.012.226h.076c-.017.14-.037.282-.054.42.017.14.034.282.049.42-.02.056-.108.079-.122.162.012.052.025.11.034.157a2.092,2.092,0,0,1-.162.7c-.086.177,0,.346-.152.449a2.459,2.459,0,0,1,.086.579.2.2,0,0,1-.111.015c-.034.528.228.815.064,1.2a.311.311,0,0,1,.061.226,3.916,3.916,0,0,0-.314,1.085c-.015-.01-.029-.022-.047-.032,0,.069,0,.14,0,.209-.047-.017-.093-.034-.14-.049,0,0-.01.01-.015.015a2.712,2.712,0,0,0,.287.844c-.012.334-.209.437.042.81v.066a.791.791,0,0,1-.078-.052c-.052.155.032.317-.012.493a.392.392,0,0,0,.206.113.262.262,0,0,1,.044-.017.686.686,0,0,0-.066-.493.259.259,0,0,0,.032-.03c.034.017.074.03.108.047h.015c-.007-.069.029-.056-.03-.061q.015-.029.03-.066c.024.034.054.064.081.1-.017.02-.032.042-.052.064.078.052.118.228.022.267a.883.883,0,0,0,.079.064,4.183,4.183,0,0,0,0,.744h-.029c-.022-.086-.086-.324-.049-.346a.488.488,0,0,0-.223-.177.694.694,0,0,0-.089.287c.042.039.081.084.125.128,0,.074-.01.145-.015.221h-.108v.014a.875.875,0,0,1,.047.093c-.042.032-.083.067-.122.1v.064c.034.022.073.042.108.061a.9.9,0,0,0,.064-.064c.071.064.213.086.28.16a.468.468,0,0,0-.061-.015c.022.049.017.027.047.061-.015.054-.029.1-.044.157a.281.281,0,0,0-.157-.064v.02a.277.277,0,0,0,.049.044c-.029.017-.054.035-.079.049a4.26,4.26,0,0,0,.206.52c.074.034.145.074.219.113a.611.611,0,0,0-.125-.034v.015c.017.061.029.128.047.189.027.01.054.022.078.032.022-.047.042-.093.064-.142.015.039.03.074.047.111h-.064a.1.1,0,0,0-.014.017.417.417,0,0,1,.081.265l.187-.061c.039.037.029.042.093.061l-.032.064c-.052-.017-.1-.032-.155-.047a.16.16,0,0,0-.015.029.584.584,0,0,0,.235.221.68.68,0,0,0-.032-.064c.091.074.174.147.265.221v.015c-.084-.034-.165-.071-.25-.108a.505.505,0,0,0,.314.2c0,.039,0,0-.015.044.12.123.626.456.766.422,0,.064,0,.017-.015.067a2.662,2.662,0,0,0,.859.375V60.1c-.037-.039-.076-.073-.11-.108.169.054.277.007.39.108v-.064c.071.01.145.022.219.029h.015a.309.309,0,0,0,.015-.029V60c-.427-.054-.564-.424-.908-.52.017-.02.035-.042.049-.061-.1-.106-.226-.1-.312-.2a.126.126,0,0,0-.032-.015.494.494,0,0,1,.047-.03c.078.03.157.061.231.089v-.013c-.123-.159-.324-.27-.346-.535.007-.01.012-.02.02-.032.071-.017.145-.027.216-.049.059-.044.039-.135.027-.25.1-.066.312-.11.39-.2a.463.463,0,0,0,.012-.238c-.255-.169-.631-.221-.547-.6a.43.43,0,0,1,.435-.061h.066c-.022-.061,0-.037-.049-.066.029-.066.044-.057.108-.076a.621.621,0,0,0-.047-.27.29.29,0,0,1,.28-.145c-.039-.074-.133-.088-.189-.14l-.032-.017c.037-.015.071-.035.108-.049a.447.447,0,0,1,.157.174,1.13,1.13,0,0,0,.128.015c.012-.015.029-.027.044-.047a.26.26,0,0,0-.047-.189.212.212,0,0,1-.032-.047c-.059.005-.116.01-.172.017.027.02.051.042.076.061v.015c-.034-.007-.071-.02-.108-.03-.047-.039-.049-.081-.155-.11a3.048,3.048,0,0,1-.1-.4c.118-.143.385.152.55.194.123-.007.245-.012.371-.015l.079-.179c-.02.012-.042.022-.061.032a.763.763,0,0,1-.064-.062c.074-.108.181-.228.12-.38a.315.315,0,0,1,.064.034h.015a.917.917,0,0,0-.032-.1,3.051,3.051,0,0,0,1.5.076c.061-.032.3-.324.388-.393v-.223c-.132-.047-.2-.054-.206-.223.042-.034.081-.074.122-.113-.064-.277-.348-.307-.474-.525.022-.025.044-.052.064-.079.015-.007.029-.012.047-.019.042.068.086.088.11.179.1.02.2.039.3.067.088.059.2.245.314.268.093.02.165-.042.268,0,.074.037.125.127.25.11.317-.034.373-.184.559-.314.11-.047.218-.1.329-.142.078-.106.162-.211.245-.317l.623-.27c.248-.164.378-.459.606-.636.287-.224.65-.262.763-.668a.314.314,0,0,1-.066-.015,4.4,4.4,0,0,1,.14-.577,2.686,2.686,0,0,1,1.453-.643c.061.047.123.1.187.142.01-.034.025-.071.032-.105-.022-.007-.042-.013-.064-.022v-.015c.14-.035.282-.246.422-.2.049-.049.052-.03,0-.081V50.72a3.311,3.311,0,0,1,1.131.248c.027-.042.025-.042.079-.061-.015-.248.282-.152.466-.238.12-.091.13-.383.312-.471.294-.147.28-.24.486-.378.091-.057.177-.052.233-.14.211-.339.069-.491.5-.648a1.652,1.652,0,0,1,.263-.586c.069-.076.137-.155.2-.233.074-.208.027-.383.108-.569.086-.206.265-.339.282-.6.192-.1.361-.066.547-.2.268-.231.533-.466.8-.7l.282-.056c.12-.093.24-.186.361-.282a1.91,1.91,0,0,0,.954-1.07c0-.106.01-.211.015-.319.047-.2.28-1.49.277-1.49-12.107-.026-21.084.121-21.084.121m10.759-33.8a2.539,2.539,0,0,1,.673.152c.218.1.273.238.508.275-.052.037-.081.015-.157,0a.3.3,0,0,0,.25.164c-.022.012-.042.022-.064.032a.594.594,0,0,0,.187.137h.064c-.02-.064-.007-.047-.059-.079V9.911a8.548,8.548,0,0,0,1.387.547c.025-.068-.01-.032.064-.044V10.4a2.1,2.1,0,0,0-.76-.525.442.442,0,0,1-.015-.059c.1.052.2.1.295.157V9.911c.282.164.606.366.888.528.027,0,.054-.01.079-.012h.029s0-.01,0-.015c-.1-.066-.152-.056-.219-.157a1.352,1.352,0,0,0,.128.049.037.037,0,0,0,.017,0c0-.056-.01-.066-.049-.12a.307.307,0,0,1,.017-.029c.037.024.027.014.047.056.1-.007.066-.017.111-.071a.136.136,0,0,0,.076.093h.017a.625.625,0,0,0-.032-.059h.111a.133.133,0,0,1,0-.032,1.176,1.176,0,0,0-.3-.157c-.007-.01-.01-.02-.017-.029l.1-.01V9.931c-.086-.074-.363-.295-.562-.265a.235.235,0,0,0-.152-.241h.125c.007-.012.01-.019.017-.032-.02-.02-.042-.039-.064-.059.206.017.385.179.564.189-.064.2.339.263.479.373.105-.015.1-.049.174-.059l-.044-.032c.022-.047.007-.027.047-.056a.263.263,0,0,0,.233.02v.059c.039,0,.074,0,.11,0l-.047-.061c.049-.025,0-.01.061,0,.02,0,.035-.01.049-.012a.788.788,0,0,0-.064-.093.572.572,0,0,0,.314,0c-.039-.13-.214-.184-.371-.174-.022-.039.01-.02.044-.039-.052,0-.1-.007-.154-.007-.054-.025-.1-.12-.265-.125.032-.032,0-.017.064-.03a.52.52,0,0,0-.3-.125l-.029-.029a.594.594,0,0,1,.061-.027c-.165-.034-.206-.081-.314-.024-.1-.074-.086-.12-.248-.137a.459.459,0,0,0,.032-.044c-.125-.032-.248-.064-.373-.093V8.8a.593.593,0,0,1,.1-.015c0-.056.007-.039-.017-.086.118.029.231.061.346.088a.325.325,0,0,0,.029-.027.381.381,0,0,0-.28-.108.206.206,0,0,0,.014-.044c.059.017.118.032.172.044a.082.082,0,0,0,.017-.01V8.593c-.138-.1-.169-.106-.388-.1.049-.064.066-.047.157-.056a.037.037,0,0,1,0-.015c-.162-.118-.4-.061-.562-.155,0,0-.145-.167-.169-.179a2.419,2.419,0,0,0-.591-.152c.012-.015.022-.03.034-.044-.152-.069-.3-.118-.466-.194h.128V7.688c-.076-.115-.783.179-.918.356-.047-.027.292.263.2.245-.01.015-.022.03-.032.042h-.032c.044.076.373.059.452.061a.2.2,0,0,0,.017.032c-.061.029-.078-.02-.159,0h-.03c.044.11.142.086.248.047.015.039.03.079.049.12a.477.477,0,0,0-.2-.032c.032.106.221.125.353.137,0-.022.012-.044.017-.061-.052-.01-.106-.022-.155-.029.007-.032.012-.061.017-.091a1.283,1.283,0,0,0,.263.108c.027.076.052.157.074.233-.245.029-.491.059-.739.083l-.015.03c.049.052.1.1.152.152v.015a3.419,3.419,0,0,0-.518-.034c-.341-.059-.6-.238-.94-.035a.128.128,0,0,1,.017.044c.1.176.395.107.591.134M304.1,20.27c.113.093.447-.1.608-.1.071.1.221.471.309.488.128.294-.231.444-.194.67a.16.16,0,0,0,.03.015c.064-.054.054-.051.037-.123a.09.09,0,0,1,.029-.017c.029.083-.007.066.078.074-.059.044-.118.088-.174.133a1.157,1.157,0,0,0,.03.353.452.452,0,0,0,.078.034c.01-.02.02-.047.03-.066a.192.192,0,0,0,.017.032,1.171,1.171,0,0,0-.113.189c.039.007.025,0,.066-.017a.179.179,0,0,1,.03.172c.007.24.255.24.14.493.086.13.366.047.434.054,0-.194.248-.4.331-.587a2.364,2.364,0,0,0,.005-.874l.1-.034c-.034-.219-.074-.444-.106-.668.079-.849.758-1.058,1.438-1.261.319-.1.2-.371.788-.253.147-.277.64-.226.93-.295.008-.012.012-.024.017-.032-.061-.042-.047-.02-.079-.093v-.017a1.059,1.059,0,0,1,.41-.088c.032-.047.056-.086.081-.123a.342.342,0,0,0-.285-.125v-.02c.1.02.2.034.3.049v.125a4.537,4.537,0,0,0,.054-.493c-.034-.01-.066-.022-.1-.03-.047-.035-.01-.012-.015-.078s.11-.223.162-.292c-.047-.037,0-.29,0-.368.076-.064.15-.13.223-.2-.179.253-.088.253-.147.55.047.015.093.029.14.049-.091.076-.184.113-.238.231a.06.06,0,0,0-.015.027c.029.025.017.022.079.032.088-.189.456-.317.621-.582-.1-.1-.059-.164-.091-.3.071.066.1.122.219.152-.02.027-.044.051-.064.078v.012c.243.034.572-.282.685-.452-.02-.061,0-.029-.047-.064,0-.012-.01-.019-.014-.032.282-.034.687.049,1,.015-.027-.032-.054-.061-.079-.1-.238.034-.449-.061-.682-.007.28-.221,1.131.088,1.507-.054.042.1.13.093.314.1.02-.032.042-.061.064-.093-.014-.022-.029-.052-.047-.076-.037.084,0,.088-.1.088-.042,0-.086-.012-.128-.017-.022-.1.012-.221-.157-.25v-.03c.078-.02.152-.037.228-.054-.022-.034-.044-.061-.064-.093.108-.132.329-.2.429-.3a.82.82,0,0,0,.65-.091c.039.044.032.032.032.091a4.579,4.579,0,0,0,.918-.083l-.044-.093a2.205,2.205,0,0,1,.25.069,2.368,2.368,0,0,0,.908-.066.41.41,0,0,1,.027.032c-.074.02-.147.037-.221.054a.312.312,0,0,0-.015.029c.083.017.169.039.25.056-.3.047-.6.1-.9.14l-.015.03c.034-.01.071-.017.11-.027-.022.01-.044.017-.064.027a.289.289,0,0,0-.1.26c.029,0,.064,0,.093,0,.064.086.025.14.142.142.219.01.425-.132.67-.147.029-.066,0-.076.076-.1.015.015.022.03.034.044.02-.017.042-.039.061-.059.022.1.069.1.16.127.133-.137.974.037,1.222-.032a.133.133,0,0,0,.032,0,.227.227,0,0,0-.192-.069c.042-.027.052-.015.079-.061a2.138,2.138,0,0,0,.665.03v-.049c.015-.091-.128-.169-.233-.177V15.8l.128-.15c-.037-.054-.032-.025-.032-.091-.03-.01-.064-.015-.1-.022-.157.081-.513.162-.525.383-.111.015-.167.01-.174-.118-.361.039-.506-.145-.8-.179l-.064-.079a.6.6,0,0,1,.064,0,.174.174,0,0,1,.017-.032c-.1-.037-.191-.076-.285-.115-.049-.032-.1-.179-.14-.253l.079-.056a.229.229,0,0,0-.172-.051V15a1.721,1.721,0,0,0,.4-.172c.01-.022.022-.039.032-.059v-.017a1.785,1.785,0,0,1-.537.017c-.032-.113-.113-.155-.238-.177,0-.01-.01-.02-.017-.032.216.022.292.113.476.135.164-.02.327-.039.493-.061V14.6c.049-.034,0-.037-.017-.093a.438.438,0,0,0,.064.017V14.5c-.385-.518-1.737-.334-2.324-.231-.231.044-.4.263-.714.263a6.369,6.369,0,0,1,1.227-.523s.52.039.552.032c.047-.052.1-.1.142-.152a1.206,1.206,0,0,1,.81,0c.366.1.707.14,1.068.265a4.127,4.127,0,0,0,1.139.314,2.021,2.021,0,0,0,.508-.152c.383-.155,1.146.241,1.409-.049.02-.054.012,0-.017-.076.01,0,.02.012.032.017.047-.076,0-.329.052-.412l-.268-.1c0-.044,0-.01.015-.061-.162-.012-.174-.051-.282-.047-.032-.179-.2-.248-.393-.272V13.3c.138.017.272.032.41.047-.074-.106-.248-.118-.267-.223-.13-.03-.243-.007-.349-.076-.056-.037-.042-.042-.044-.093-.066-.047-.238-.032-.3-.086s-.083-.118-.189-.162c-.019-.066-.039-.025.017-.074a1.178,1.178,0,0,0-.407-.255c.044-.044.025-.027.079-.032a2.3,2.3,0,0,0,.017-.24c-.034-.015-.071-.034-.111-.049a1.222,1.222,0,0,0,.034-.184c-.14-.056-.3-.11-.28-.28h-.079c-.093-.145-.454-.6-.447-.751-.385.1-.878.719-1.4.3-.088.007-.15-.127-.312-.16a1.141,1.141,0,0,1-.017-.133c-.034-.007-.071-.012-.108-.017.047-.13.1-.147.083-.317a1.184,1.184,0,0,0,.174-.071c-.015-.022-.027-.049-.044-.071-.049.017-.1.037-.143.054a1.164,1.164,0,0,0-.518-.214.177.177,0,0,0-.012-.03v-.017c.032-.027.022-.022.078-.029v-.015a1.985,1.985,0,0,0-.525-.346l-.393.007a2.746,2.746,0,0,0-.967-.226l-.1.088a.429.429,0,0,0-.017.059c.027.039.022.039.076.059a.41.41,0,0,1-.287.147c.125.145.037.159.105.253a1.594,1.594,0,0,1-.572.2c-.017.027-.032.057-.049.086a.5.5,0,0,1,.381.464c-.167.361-.547.422-1,.5-.165.007-.324.01-.488.015h-.029c.012.069-.007.16.088.191-.086.162-.258.354-.142.538a.564.564,0,0,1-.3.147c0,.044,0,.091,0,.135a.211.211,0,0,0-.061.017c0-.059-.034-.052-.061-.125a.624.624,0,0,0-.282.125c-.056-.029-.106-.052-.157-.076a2.874,2.874,0,0,0-.317-.623,1.246,1.246,0,0,0,.211-.226c0-.039-.01-.079-.015-.118.091-.093.189-.132.258-.255a4.061,4.061,0,0,1-1.443-.493c-.066-.059-.081-.2-.179-.275-.145-.066-.289-.132-.432-.2l-.486.01h-.032a2.991,2.991,0,0,0,.28-.427.685.685,0,0,0-.326-.042c0-.022,0-.044,0-.071a2.958,2.958,0,0,1,1.713-.695.566.566,0,0,1-.061-.069,2.277,2.277,0,0,0,.483.01c.056-.079.049-.079-.01-.147h-.032V8.754a2.807,2.807,0,0,0,1.443-.13c.052-.034.017-.015,0-.056.165-.037.329-.071.491-.108h.029a.09.09,0,0,0,0-.015.179.179,0,0,0-.111-.039c0-.007-.01-.019-.012-.029l.326.027c0,.081.231.228.336.26.034-.034.007,0,.019-.042a.042.042,0,0,1,.015-.015.118.118,0,0,0-.066.015c-.025-.061-.034-.066-.1-.115V8.492c.052.022.1.047.155.071,0-.042-.01-.088-.012-.13l.184.128V8.519c.268-.066.518-.059.721-.115-.037-.047-.081-.088-.12-.133a6.848,6.848,0,0,0-3.176-.8c-1.1.022-5.085,1.384-8.226,2.969a24.492,24.492,0,0,0-4.359,2.839,8.171,8.171,0,0,0-2.363,3.1c-.059.061-.111.125-.167.191s-.317.8-.319.832c.047,0,.091.007.135.012-.029.211.1.213.044.479-.086.373-.351.83-.471,1.242a1.134,1.134,0,0,0-.086.405,1.062,1.062,0,0,1,.027.511c-.061.1-.118.2-.177.307a.443.443,0,0,1-.179,0s-.01,0-.015,0c-.022.211.056.336.044.52.044,0,.03,0,.071-.024a.835.835,0,0,1-.177.918,1.982,1.982,0,0,1,.174.952v.015a.2.2,0,0,0,.032.01c.28-.292.209-.255.236-.628-.007-.034-.02-.071-.029-.1a.728.728,0,0,0-.071.086.033.033,0,0,1-.017.007,5.1,5.1,0,0,1,.255-1.1c.032-.165-.059-.454-.015-.65.105-.464.157-1.468.542-1.76.017.035.039.069.059.1a.342.342,0,0,0,.059-.039c.081.275-.255.68-.214,1.041a.528.528,0,0,0-.177.2c.012.01.027.025.044.039.027-.03.059-.064.088-.091,0,.091-.049.385.039.476.027.037,0,.017.049.007a.149.149,0,0,1,.027.029.575.575,0,0,0-.088.322c.03.027.017.027.074.035-.015.066-.03.13-.044.194.024,0,.049-.007.073-.01a.606.606,0,0,1-.179.415c.027.189.11.238.192.378-.059.064-.056.1-.074.2.15.2.341,1.58.056,1.784-.069.1-.071.078-.032.172-.049.069-.078.064-.147.086-.218.53.253.67.265,1.1.032.017.066.047.1.071,0,0,1.743-.061,2.778-.084.04,0-.076-.039-.127-.081a5.43,5.43,0,0,1-.211-1.244c.039-.056.074-.111.108-.169-.155-.329.079-.673.214-.972.106-.258.216-.518.319-.778.1-.125.292-.091.353-.312.037-.15-.029-.285.047-.474.069-.172.255-.223.243-.442.1.012.275-.066.292-.152.017-.025.032-.052.049-.081a.126.126,0,0,1-.017.1c.076-.037.047-.047.091-.039.022-.027.042-.056.064-.083-.017-.022-.032-.047-.047-.069a1.132,1.132,0,0,0,.7-.216c.143.037.091-.069.079-.147a.41.41,0,0,1,.125-.088.039.039,0,0,0,.012.02l-.059.064c.017.01.039.017.059.03.066.052.314-.081.462-.066a2.289,2.289,0,0,1,.567.194.288.288,0,0,1,.046,0v-.061c-.037,0-.071-.007-.108-.01a.469.469,0,0,0-.017-.047c.044-.012.083-.024.128-.039a.768.768,0,0,0,.15.206l-.029.017a.561.561,0,0,0-.029.052c.049.034.1.076.15.113.073-.03.145-.061.218-.088.007.034.017.071.027.106.108-.029.118-.088.186-.15.064.066.113.162.2.2a.468.468,0,0,1,.047.029h.02l.059-.083c-.052-.047-.1-.1-.15-.145a.333.333,0,0,1-.034-.029A.229.229,0,0,1,302.43,20c.027-.054.02-.054.017-.14-.042.025-.086.047-.125.071h-.015c-.01-.017-.019-.027-.032-.047a1.041,1.041,0,0,1,.776-.066,1.193,1.193,0,0,1,.047-.113.3.3,0,0,0,.049-.034c0,.066,0,.137,0,.2.351.042.609-.1.869.179.063.069.061.184.09.214" transform="translate(-262.208 -6.666)" fill="#fff"/>
    <path id="Path_393" data-name="Path 393" d="M483.847,16.334c-.071.025-.138.049-.206.071-.007.027-.012.052-.017.076V16.5a.871.871,0,0,0,.594.047c.032-.029.064-.056.093-.088v-.047a1.7,1.7,0,0,0-.464-.074" transform="translate(-431.306 -14.567)" fill="#fff"/>
    <path id="Path_394" data-name="Path 394" d="M493.336,16.787c.027.032,0,.012.044.032-.015-.012-.03-.02-.044-.032" transform="translate(-439.968 -14.971)" fill="#fff"/>
    <path id="Path_395" data-name="Path 395" d="M454.308,17.486a.52.52,0,0,0-.277-.054c.017-.039.032-.081.049-.118-.123-.079-.368-.15-.447-.265-.056-.054,0-.128-.088-.172-.012.015-.022.03-.032.044a.735.735,0,0,0-.7.307.6.6,0,0,0-.358.059c.081.061.3.042.4.044l-.066.044c-.015.029-.032.059-.047.088a1.346,1.346,0,0,0,.753-.12l.263.074a.613.613,0,0,0-.078.03,1.056,1.056,0,0,0,.687.118c-.02-.027-.039-.049-.064-.079" transform="translate(-403.51 -15.051)" fill="#fff"/>
    <path id="Path_396" data-name="Path 396" d="M461.7,17.719c-.017-.015-.032-.029-.049-.047a.579.579,0,0,1-.032.086c.037-.012.074-.025.11-.039h-.03Z" transform="translate(-411.684 -15.76)" fill="#fff"/>
    <path id="Path_397" data-name="Path 397" d="M497.654,21.412c.056-.034.042,0,.032-.056-.2-.007-.162-.091-.312-.123a.912.912,0,0,1-.11.057c.027.066.027.074,0,.13a1.607,1.607,0,0,1,.454.042.519.519,0,0,1-.061-.049" transform="translate(-443.47 -18.936)" fill="#fff"/>
    <path id="Path_398" data-name="Path 398" d="M513.088,21.732l-.015.025h.029a.149.149,0,0,0-.015-.025" transform="translate(-457.57 -19.381)" fill="#fff"/>
    <path id="Path_399" data-name="Path 399" d="M501.774,22.8c.025.03,0,.007.047.03-.017-.01-.032-.022-.047-.03" transform="translate(-447.494 -20.333)" fill="#fff"/>
    <path id="Path_400" data-name="Path 400" d="M457.949,23.366c-.086.027-.172.049-.253.071,0,.034,0,.069.01.1a3.683,3.683,0,0,0,.662-.071.132.132,0,0,0,.015-.032c-.142-.024-.29-.049-.434-.071" transform="translate(-408.184 -20.838)" fill="#fff"/>
    <path id="Path_401" data-name="Path 401" d="M476.389,23.5v.044c.032,0,.071,0,.111,0v-.014c-.039-.012-.074-.02-.111-.032" transform="translate(-424.855 -20.96)" fill="#fff"/>
    <path id="Path_402" data-name="Path 402" d="M494.271,24.376a.374.374,0,0,0-.26-.169c0,.034.007.071.01.1h-.14a.171.171,0,0,0,.017.029,1.969,1.969,0,0,1,.4.081l-.03-.044" transform="translate(-440.454 -21.588)" fill="#fff"/>
    <path id="Path_403" data-name="Path 403" d="M473.751,24.318a.287.287,0,0,1-.017.03l.108.088c.049,0,.1.007.142.015a.077.077,0,0,1,.015-.015.315.315,0,0,1,0-.047c-.083-.022-.167-.049-.25-.071" transform="translate(-422.487 -21.687)" fill="#fff"/>
    <path id="Path_404" data-name="Path 404" d="M477.247,24.507c-.052-.012-.105-.02-.155-.029.027.066.069.079.123.118h.061a.09.09,0,0,0,.015-.03.378.378,0,0,0-.044-.059" transform="translate(-425.482 -21.83)" fill="#fff"/>
    <path id="Path_405" data-name="Path 405" d="M466.484,25.954c-.052.017-.106.034-.157.054a.6.6,0,0,1-.034.061.545.545,0,0,1,.044.076c.118.017.179-.049.285-.074a.463.463,0,0,0,.049-.064.33.33,0,0,0-.186-.054" transform="translate(-415.85 -23.146)" fill="#fff"/>
    <path id="Path_406" data-name="Path 406" d="M490.049,26.746a.143.143,0,0,0,0,.032.362.362,0,0,1,.052-.015v-.015a.288.288,0,0,1-.049,0" transform="translate(-437.035 -23.853)" fill="#fff"/>
    <path id="Path_407" data-name="Path 407" d="M483.377,27.813c.032.044.071.052.125.071h.061a.39.39,0,0,0-.186-.071" transform="translate(-431.087 -24.804)" fill="#fff"/>
    <path id="Path_408" data-name="Path 408" d="M555.018,31.057c.025.032,0,.007.049.032-.03-.032,0-.012-.049-.032" transform="translate(-494.978 -27.697)" fill="#fff"/>
    <path id="Path_409" data-name="Path 409" d="M468.677,30.038a.16.16,0,0,1,.029.029h.093c0-.007,0-.012,0-.017-.042,0-.081-.01-.125-.012" transform="translate(-417.977 -26.789)" fill="#fff"/>
    <path id="Path_410" data-name="Path 410" d="M594.458,37.123c-.123.034-.177-.044-.282-.108l-.081.01a.49.49,0,0,1,.051.049,1.437,1.437,0,0,1-.564-.123c-.008,0-.01.012-.015.015a.377.377,0,0,0,.029.066.547.547,0,0,0-.25-.137v.017a1.162,1.162,0,0,1,.093.1v.015c-.083-.027-.069-.039-.125.012a1.125,1.125,0,0,0-.626-.375c.029.027.052.054.081.083a1.2,1.2,0,0,0-.13-.052,1.455,1.455,0,0,0-.123.1.1.1,0,0,0-.017.027c.206.049.41.1.614.152-.1.074-.208.044-.378.012-.005,0-.01.015-.015.02l.015.029a2.267,2.267,0,0,1,.6.245c.005.012.01.025.015.035-.049-.017-.1-.027-.155-.039l-.02.015a.5.5,0,0,1,.032.064c.427.113,1.468.633,1.828.221V37.56a3.217,3.217,0,0,1-.574-.437" transform="translate(-528.405 -32.693)" fill="#fff"/>
    <path id="Path_411" data-name="Path 411" d="M494.561,34.256v.035a.159.159,0,0,1,.034-.035Z" transform="translate(-441.061 -30.55)" fill="#fff"/>
    <path id="Path_412" data-name="Path 412" d="M508.081,35.05c.03.042.017.035.076.049v-.014c-.03-.025-.02-.022-.076-.035" transform="translate(-453.118 -31.258)" fill="#fff"/>
    <path id="Path_413" data-name="Path 413" d="M509.475,35.425c-.044-.015-.086-.022-.125-.034-.022.054,0,.047-.108.042,0,0,0,.01,0,.014a.433.433,0,0,0,.2.128c.027-.02.054-.042.079-.061l-.044-.088" transform="translate(-454.151 -31.563)" fill="#fff"/>
    <path id="Path_414" data-name="Path 414" d="M498.756,36.428a.475.475,0,0,0-.076-.017.15.15,0,0,0-.049.032.3.3,0,0,0-.032.042.3.3,0,0,0,.221.017c0-.007.01-.02.015-.027-.025-.014-.052-.032-.079-.046" transform="translate(-444.662 -32.472)" fill="#fff"/>
    <path id="Path_415" data-name="Path 415" d="M651.8,71.894c-.079-.157-.155-.319-.228-.483a.637.637,0,0,0,.044.069l.029.017v-.032c.02-.076-.073-.177-.123-.243a.244.244,0,0,1,.032-.01c.032.034.071.071.11.113l.012,0c-.027-.066-.052-.13-.079-.2.061.056.113.113.172.169a1.385,1.385,0,0,0-.461-.6c.024-.064,0-.037.061-.022-.054-.2-.356-.38-.385-.68L651,70c.027.164.147.12.216.191h.02c-.064-.088-.128-.177-.186-.265.029-.022.059-.047.091-.071.076-.049.13.115.231.115.01.069.017.074.027.145a1.572,1.572,0,0,0-.032-.5,2.508,2.508,0,0,1-.209-.351,7.106,7.106,0,0,1-.584-1.171,21.77,21.77,0,0,0-3.3-4.052,25.576,25.576,0,0,0-4.128-3,.332.332,0,0,1-.167.125c.01.1-.01.1.032.16-.049.02-.081.042-.138.069a2.667,2.667,0,0,0,.189.209c.012.056.025.108.034.162.145.216.442.324.557.586.078.017.071,0,.122-.037.025.059.047.125.069.191.079.1.488.334.643.238.071-.039.079-.152.044-.243.029-.017.062-.029.091-.044a.6.6,0,0,1-.029-.071v-.017c.437.208.655.753,1.119.94.02.056.044.11.064.165-.069.024-.083.073-.12.125a.789.789,0,0,0,.329.268c-.042.061-.03.03-.11.007,0,.007,0,.012,0,.015a.276.276,0,0,0,.125.11c.032,0,.061,0,.089,0v-.118c-.042-.044-.093-.137-.17-.172,0-.052-.01-.015.03-.054l-.094-.108a.406.406,0,0,1,.175.2c.059,0,.12.01.186.01a.027.027,0,0,0,.015,0v-.047c-.047-.049-.086-.1-.128-.152.022-.042.02-.02.015-.071.054,0,.115.015.169.022-.02-.039-.042-.079-.064-.12a6.556,6.556,0,0,1,.628.609c-.086.044-.067.086-.044.177a.8.8,0,0,0-.076.025c-.106.125-.137.007-.263,0-.054-.054-.03-.022-.017-.076-.049-.039-.1-.086-.143-.122,0,.027,0,.061,0,.086-.032,0-.061-.012-.093-.02.019.091-.022.056-.047.172l-.073-.017a.3.3,0,0,1-.052-.15c-.032-.037-.02-.032-.079-.049.013.017.02.042.035.061-.128,0-.226-.1-.312-.177-.037-.01,0-.007.012-.03a.21.21,0,0,0-.142-.066c0-.012-.01-.02-.012-.03s.008-.019.012-.029l.314.189c-.061-.137-.211-.343-.375-.294-.039-.044-.054-.16-.1-.226a.512.512,0,0,0,.064.034c.005-.022.007-.049.012-.071-.145-.167-.348-.255-.429-.488-.032.015-.059.03-.088.044.01.039.022.086.032.128a.572.572,0,0,1-.064,0c-.022.015-.052.027-.073.039.052.277.618.7.586.83.037.007.074.015.108.025.064.108.132.169.206.287-.059.025-.039-.007-.029.088a.5.5,0,0,0-.233-.042v.074c-.071.007-.145.017-.214.02a.552.552,0,0,0-.032.071c.022.039.042.071.061.106.064.029.049.029.11.007.039.086.074.1.066.179-.044.054-.012.03-.078.012a.045.045,0,0,0-.017,0c.015.11.012.13.064.2-.039-.007-.081-.015-.122-.02-.052-.157-.108-.312-.16-.466a.1.1,0,0,0-.037-.015h-.01c.049.206.223.538.1.655-.081.076-.241.091-.309.182.047.1.086.194.128.289a.266.266,0,0,1-.169.086c-.039.052-.078.1,0,.15-.012.015-.029.032-.044.047-.192.039-.407-.128-.55-.179a.04.04,0,0,1-.015.015c.089.13.206.206.253.37a.441.441,0,0,1,.049.044v.015c-.125-.017-.2-.037-.282.032-.059-.049-.125-.093-.189-.142-.1.056-.272.034-.361.125h-.029c.027.133.123.118.206.184-.035,0-.067.012-.1.017.167.152.415.113.646.2.01,0,.744.687.753.721-.027-.02-.052-.039-.081-.064a.021.021,0,0,1-.015.015,1.869,1.869,0,0,1,.39,1.112,3.883,3.883,0,0,1-1.262-.123c-.1-.01-.331.1-.474.049-.069-.027-.1-.083-.206-.059-.083-.02-.13.076-.094.152-.076.022-.172.032-.2.088a.305.305,0,0,0-.063.039c0,.16.1.147.123.268.044-.01.032-.01.079-.035a3.371,3.371,0,0,0,.282.709,3.219,3.219,0,0,1-.012,1.107,1.281,1.281,0,0,1,.169.179c.03-.02.062-.037.093-.056a1.786,1.786,0,0,1,.128.756c.145-.054.326.032.4,0,.056-.017.083-.086.179-.108.265-.12.4.52.687.572a2.769,2.769,0,0,0,.3-.331,1.545,1.545,0,0,1,.528.022c.012-.022.022-.044.035-.066a.182.182,0,0,1,.137.054c.049-.106.091-.3.13-.393a.319.319,0,0,1,.172-.029,1,1,0,0,1-.007-.39c.027-.091.1-.1.125-.211-.474-.321-.047-.726-.179-.981.091-.118.167-.079.28-.162a2.543,2.543,0,0,0,.2-.26c-.027-.172-.292-.42-.231-.6.022-.052.1-.086.125-.15.238.079.388.182.6.26.1-.093.076-.277.265-.307.012-.069.029-.142.044-.213,0-.012,0-.022,0-.03.422.069.668.645.881.937,0,0,.586.562.609.577s.079-.025.14.015c.034.059.071.122.106.184a2.039,2.039,0,0,1,.778,1.193c-.047.025-.14.037-.181.115a.3.3,0,0,1-.25-.1c-.022.029-.018.02-.027.076-.022-.02-.042-.035-.064-.052l-.015,0a.339.339,0,0,0,.015.209,6.235,6.235,0,0,0,.66.53h.017a3.194,3.194,0,0,1-.155-.65l.093.071h.012a.627.627,0,0,0-.039-.383c.01-.083,0-.061.059-.088-.049-.2-.15-.221-.243-.353-.029-.118-.061-.24-.1-.358a.358.358,0,0,0,.034-.027,1.632,1.632,0,0,0,.339.346,1.341,1.341,0,0,0-.709-.773.338.338,0,0,1-.042-.209c-.1-.049-.169-.01-.265-.088a3.884,3.884,0,0,1-.5-.707c-.155-.2-.444-.275-.523-.547.005-.034.015-.071.02-.106-.037-.086-.127-.1-.157-.216.086-.015.081-.039.12-.1a.287.287,0,0,0,.066.007,2.454,2.454,0,0,1,.211.392c.012,0,.025.007.032.017,0-.034.012-.074.015-.106.03.054.054.106.079.162a.307.307,0,0,0,.047.034c-.022-.051-.042-.1-.059-.142.142.052.2.3.272.393a3.737,3.737,0,0,0,.38.319c-.017,0-.037-.014-.057-.022.039.074.069.093.106.155a.749.749,0,0,1,.076.007.659.659,0,0,0-.076-.071.277.277,0,0,1,.03-.012c.032.022.066.047.1.071a.156.156,0,0,1,.012.032c-.032.01-.062.015-.091.022.066.068.054,0,.135.047a1.968,1.968,0,0,1,.557.537c.079.228.169.454.258.682.1.2.341.4.427.6.047,0,0,0,.047-.01,0,.017-.037.086,0,.155a.409.409,0,0,0,.245.177.429.429,0,0,0-.029.186,1.688,1.688,0,0,1,.275.505.166.166,0,0,1,.047.035h.015c-.012-.035-.017-.078-.027-.113a.018.018,0,0,1,.015,0c.032.076.069.157.108.238.007,0,.017.01.027.017-.01-.042-.02-.081-.027-.127a.845.845,0,0,0,.091.115h.015Z" transform="translate(-573.336 -54.443)" fill="#fff"/>
    <path id="Path_416" data-name="Path 416" d="M444.524,46.9a.768.768,0,0,0-.314-.074l-.081.032c.047.088.282.162.393.191h.012a.205.205,0,0,0-.01-.15" transform="translate(-396.085 -41.759)" fill="#fff"/>
    <path id="Path_417" data-name="Path 417" d="M519.356,51.746c.029.052-.01.017.049.047h.015c.007-.01.01-.019.017-.03l-.081-.017" transform="translate(-463.174 -46.148)" fill="#fff"/>
    <path id="Path_418" data-name="Path 418" d="M527.026,58.645a.464.464,0,0,1,.032.044.049.049,0,0,1,.017,0v-.017l-.049-.029" transform="translate(-470.014 -52.301)" fill="#fff"/>
    <path id="Path_419" data-name="Path 419" d="M520.9,61.139l-.113.027c-.012.106-.015.03-.044.091.216-.01.424-.042.611-.054-.149-.022-.3-.044-.454-.064" transform="translate(-464.409 -54.525)" fill="#fff"/>
    <path id="Path_420" data-name="Path 420" d="M531.622,64.066c0,.044-.015.019.015.061a.2.2,0,0,1,.049-.029v-.017a.289.289,0,0,0-.064-.015" transform="translate(-474.109 -57.136)" fill="#fff"/>
    <path id="Path_421" data-name="Path 421" d="M501.223,68.808a.294.294,0,0,0-.015.029,3.985,3.985,0,0,0,1.07.552.324.324,0,0,1,.032-.012v-.044a2,2,0,0,0-1.087-.525" transform="translate(-446.989 -61.365)" fill="#fff"/>
    <path id="Path_422" data-name="Path 422" d="M537.748,71.122c0,.017-.012.032-.017.047.057-.027.022.01.049-.044l-.032,0" transform="translate(-479.561 -63.428)" fill="#fff"/>
    <path id="Path_423" data-name="Path 423" d="M632.439,76.725c-.074,0-.147-.015-.219-.019.032-.066.113-.169.086-.27-.035-.152-.314-.459-.484-.265a.326.326,0,0,1-.051-.017,1.422,1.422,0,0,0-.488-.586c-.1-.042-.191-.081-.287-.118-.256-.243-.376-.434-.763-.44.042-.032.083-.059.127-.088a.812.812,0,0,0-.081-.061c.061-.125-.012-.223.012-.341-.139-.142-.4-.1-.586-.066,0-.088.029-.054-.047-.088a.227.227,0,0,1,.106-.15c-.01-.034-.022-.071-.032-.106-.162-.034-.319.035-.473-.015-.034.042-.029.052,0,.106-.024.063-.015.071.037.135l-.035.015c-.054-.007-.027-.015-.061.029.03.052.061.1.1.155v.015c-.069-.049-.14-.1-.206-.15a.693.693,0,0,1-.066.1.676.676,0,0,0,.336.142.516.516,0,0,1,.035.064c-.03.015-.054.032-.081.047.035.079.061.079.049.167.052,0,.105-.015.157-.02.007-.024.012-.051.017-.073v-.032c.007,0,.01,0,.015,0,.027.172.118.29.164.471h.064l.015-.032c-.01-.027-.022-.052-.032-.076l.1.059h.014c-.017-.049-.032-.1-.049-.15l.128.088a.274.274,0,0,1,.005.228c.047.039.1.079.14.12h.022l-.039-.061V75.42c.051.02.1.037.147.059v-.061c.1.039.142.015.221-.047.106.13.062.338.319.3a.441.441,0,0,0,.079.253c-.123.1-.245.029-.376,0,.017.1.052.084.113.138a.655.655,0,0,0-.066.076l.02.027c.042-.017.081-.032.123-.047.044.056.091.11.13.164-.017.1-.1.14-.2.155-.015.015-.032.032-.047.049.052.044.108.086.162.132.164-.086.317.022.5.086.042-.02.086-.044.128-.061-.025.052-.02.047-.015.108H631a.62.62,0,0,1-.214.415V77.2a.269.269,0,0,1,.176.042c.039-.061.017-.111.135-.14a.506.506,0,0,1,.252.044c.005-.054-.015-.155.032-.184,0,0,.5.039.518.052h.047c-.012-.03-.022-.052-.034-.079a.931.931,0,0,0,.547-.091.235.235,0,0,1,.015-.029c-.012-.035-.02-.062-.032-.091" transform="translate(-560.977 -66.079)" fill="#fff"/>
    <path id="Path_424" data-name="Path 424" d="M522.467,73.508c-.076-.02-.088.049-.221.069a.431.431,0,0,0-.012-.064.335.335,0,0,1,.172-.133.089.089,0,0,0,.017-.029.062.062,0,0,0-.017-.017.478.478,0,0,0-.349.14c-.01-.022-.02-.044-.032-.066-.039-.01-.01.015-.044-.017a3.756,3.756,0,0,1,.378-.2.4.4,0,0,1,.034-.027c-.069-.064-.236-.052-.349-.064.037-.1,0-.027-.017-.155a.264.264,0,0,0,.176-.086.544.544,0,0,0-.412-.162c-.064-.061-.01-.1-.108-.142-.047.02,0,.03-.052.015-.01.042-.015.025.02.061l-.1,0c-.091,0-.059.01-.049-.076-.078.007-.047-.01-.061.039a.269.269,0,0,0-.157-.049c.01-.017.02-.034.029-.049-.058-.029-.02-.017-.076,0-.01-.012-.025-.02-.035-.032V72.4c.064,0,.128-.007.189-.01v-.015c-.093-.068-.2-.068-.3-.152-.1.037-.189.076-.283.113.044-.155.319-.3.474-.331.022-.027.044-.054.067-.076a.172.172,0,0,0-.125-.054v-.03a.573.573,0,0,0,.221.039.183.183,0,0,1,.032-.027.14.14,0,0,1,.015-.047c-.086-.027-.172-.049-.253-.074l-.285,0a2.361,2.361,0,0,0-.319.157c-.169.081-.238.3-.459.348-.029.059-.027.044,0,.108v.015c-.061-.012-.047,0-.078-.032a.373.373,0,0,0-.206.157.6.6,0,0,0,.1.081,1.714,1.714,0,0,0-.446.078c.012.047.022.1.032.15a10.643,10.643,0,0,1,1.406.373l-.061,0q.158.066.317.125c.025-.029.02-.019.03-.076.069.027.137.056.206.086a1.1,1.1,0,0,1-.491.074.414.414,0,0,0-.017.059,1.287,1.287,0,0,0,.886-.113,1,1,0,0,1,.066.081.257.257,0,0,1-.16.223c.022.064.012.049.061.081.073-.02.149-.047.221-.066a.342.342,0,0,0-.047.184c.086.022.152.032.236.059.118-.059.152-.179.258-.255-.008-.039-.013-.083-.02-.123" transform="translate(-463.342 -63.974)" fill="#fff"/>
    <path id="Path_425" data-name="Path 425" d="M627.028,74.516l-.083-.015c-.039.037-.081.074-.123.108.044.056.074.074.079.125a.189.189,0,0,1,.047.03c.037-.032.076-.064.113-.093-.013-.051-.025-.1-.032-.155" transform="translate(-559.014 -66.442)" fill="#fff"/>
    <path id="Path_426" data-name="Path 426" d="M536.393,74.207v.03a.183.183,0,0,0,.032-.03Z" transform="translate(-478.368 -66.18)" fill="#fff"/>
    <path id="Path_427" data-name="Path 427" d="M626.967,76.958c-.017-.007-.039-.019-.061-.029-.02.012-.044.022-.061.032a.781.781,0,0,1,.133.184l.044.012c-.017-.067-.034-.13-.054-.2" transform="translate(-559.034 -68.607)" fill="#fff"/>
    <path id="Path_428" data-name="Path 428" d="M536.259,74.774a.65.65,0,0,0,.047.049.089.089,0,0,1,.034-.017v-.015c-.029,0-.054-.012-.081-.017" transform="translate(-478.248 -66.685)" fill="#fff"/>
    <path id="Path_429" data-name="Path 429" d="M664.5,79.493a.306.306,0,0,0,.032.047h.015c-.029-.052.007-.015-.047-.047" transform="translate(-592.621 -70.894)" fill="#fff"/>
    <path id="Path_430" data-name="Path 430" d="M630.655,78.994c.02.022.035.042.049.059,0-.007.01-.017.017-.027a.562.562,0,0,1-.066-.032" transform="translate(-562.433 -70.449)" fill="#fff"/>
    <path id="Path_431" data-name="Path 431" d="M628.047,79.2v.032a.128.128,0,0,1,.046-.017v-.015h-.046Z" transform="translate(-560.107 -70.628)" fill="#fff"/>
    <path id="Path_432" data-name="Path 432" d="M630.854,80.286a.086.086,0,0,0-.017.015v.015l.017.015h.015a.128.128,0,0,1,.015-.044Z" transform="translate(-562.595 -71.601)" fill="#fff"/>
    <path id="Path_433" data-name="Path 433" d="M630.385,80.695v.047h.034c-.022-.047,0-.017-.034-.047" transform="translate(-562.192 -71.966)" fill="#fff"/>
    <path id="Path_434" data-name="Path 434" d="M520.723,78.135l-.091,0a.088.088,0,0,0-.037.015c-.005.015-.01.027-.015.044.074.01.147.017.221.025-.024-.027-.052-.054-.079-.081" transform="translate(-464.266 -69.681)" fill="#fff"/>
    <path id="Path_435" data-name="Path 435" d="M540.9,79.7c0,.022-.012.039-.02.064.044,0,.088,0,.13,0-.029-.071-.022-.056-.11-.069" transform="translate(-482.374 -71.075)" fill="#fff"/>
    <path id="Path_436" data-name="Path 436" d="M632.892,81.919c-.039.061-.049.084-.128.108.027.086.047.064.113.1a.175.175,0,0,0,.015-.211" transform="translate(-564.314 -73.057)" fill="#fff"/>
    <path id="Path_437" data-name="Path 437" d="M632.78,82.079a.03.03,0,0,0-.015.015v.014a.148.148,0,0,1,.032.015c0-.007.007-.012.015-.015a.385.385,0,0,0-.032-.029" transform="translate(-564.315 -73.2)" fill="#fff"/>
    <path id="Path_438" data-name="Path 438" d="M498.331,78.709c-.059-.034-.032,0-.049-.081-.074-.069-.039-.042-.015-.14a.152.152,0,0,1-.044-.017c-.059.029-.118.049-.177.074a.258.258,0,0,1-.015.027,1.514,1.514,0,0,0,.55.326c.052.032.02,0,.032.049a.287.287,0,0,0,.128.083c.145-.029.123-.105.334-.1,0,0,.01-.007.015-.015V78.9c-.106-.042-.758-.189-.758-.189" transform="translate(-444.156 -69.982)" fill="#fff"/>
    <path id="Path_439" data-name="Path 439" d="M635.7,83.009h-.034v.064a.439.439,0,0,1,.067-.02c-.012-.015-.02-.03-.032-.044" transform="translate(-566.903 -74.029)" fill="#fff"/>
    <path id="Path_440" data-name="Path 440" d="M627.209,85.06a.121.121,0,0,1-.015-.032c.1-.032.091-.076.154-.11v-.074c-.11-.108-.209-.108-.307-.255a.252.252,0,0,0-.3.042c.01-.037.005-.02.032-.066-.047-.017-.093-.034-.145-.056a.361.361,0,0,1-.235.086.271.271,0,0,1-.064.174.207.207,0,0,0,.194.022c-.03.078-.059.056-.064.128-.142,0-.285,0-.432,0,.012.091.029.034.066.091l-.047.02c.059.059.118.054.209.049-.056.059-.064.069-.113.118.127.164.23.066.417.115-.106.071-.076.074-.079.179-.071.069-.064.042,0,.093-.042.071-.027.027-.015.113-.044,0-.086-.007-.125-.01-.015.03-.022.054-.034.081.061-.01.115-.02.174-.027-.037.025-.074.049-.108.069.189.456.852-.13,1.141-.12a.8.8,0,0,0-.307-.633" transform="translate(-558.307 -75.366)" fill="#fff"/>
    <path id="Path_441" data-name="Path 441" d="M542.829,83.1l-.015.044a.161.161,0,0,1,.044-.012.175.175,0,0,0-.029-.032" transform="translate(-484.094 -74.111)" fill="#fff"/>
    <path id="Path_442" data-name="Path 442" d="M674.94,86.526a.692.692,0,0,1,.029.074l.111.039a.205.205,0,0,0-.14-.113" transform="translate(-601.927 -77.166)" fill="#fff"/>
    <path id="Path_443" data-name="Path 443" d="M485.873,83.327a.371.371,0,0,1-.047.059.167.167,0,0,0,.03.017c.044-.034.039-.01.066-.076Z" transform="translate(-433.271 -74.313)" fill="#fff"/>
    <path id="Path_444" data-name="Path 444" d="M496.937,83.938a.554.554,0,0,1-.017.061l.052.035c.093-.012.189-.03.285-.042-.108-.017-.211-.034-.319-.054" transform="translate(-443.165 -74.858)" fill="#fff"/>
    <path id="Path_445" data-name="Path 445" d="M640.329,87.706a.6.6,0,0,0-.032.1.309.309,0,0,1,.015.042c.029,0,.051-.01.081-.017,0-.015.01-.032.015-.044-.027-.027-.054-.049-.078-.076" transform="translate(-571.032 -78.218)" fill="#fff"/>
    <path id="Path_446" data-name="Path 446" d="M476.969,83.531c-.01.049-.012.034.017.076a.393.393,0,0,1,.032-.029c-.017-.017-.03-.029-.049-.047" transform="translate(-425.366 -74.495)" fill="#fff"/>
    <path id="Path_447" data-name="Path 447" d="M512.371,85.051h-.032a.111.111,0,0,1-.015.029c.046,0,.078.02.046-.029" transform="translate(-456.903 -75.85)" fill="#fff"/>
    <path id="Path_448" data-name="Path 448" d="M477.908,84.12v.032a.194.194,0,0,1,.03-.032Z" transform="translate(-426.209 -75.02)" fill="#fff"/>
    <path id="Path_449" data-name="Path 449" d="M510.886,85.421c-.025,0-.054,0-.079-.007a.97.97,0,0,1-.1.061c.064,0,.125,0,.189.01v-.017c0-.015-.01-.035-.015-.047" transform="translate(-455.465 -76.174)" fill="#fff"/>
    <path id="Path_450" data-name="Path 450" d="M531.087,86.253c.007.019.019.039.029.066.012-.015.022-.022.032-.034l-.061-.032" transform="translate(-473.636 -76.922)" fill="#fff"/>
    <path id="Path_451" data-name="Path 451" d="M539.789,86.842a.753.753,0,0,0-.064.042c-.007.015-.01.03-.017.047h.047c.029-.015.054-.025.081-.039v-.049Z" transform="translate(-481.325 -77.448)" fill="#fff"/>
    <path id="Path_452" data-name="Path 452" d="M488.006,85.391c.027.012,0,.012.029,0Z" transform="translate(-435.215 -76.154)" fill="#fff"/>
    <path id="Path_453" data-name="Path 453" d="M530.941,86.956c-.005.012-.01.02-.015.032a.316.316,0,0,1,.047.02A.172.172,0,0,0,531,86.99l-.064-.034" transform="translate(-473.492 -77.549)" fill="#fff"/>
    <path id="Path_454" data-name="Path 454" d="M531.651,87.433v.029a.164.164,0,0,0,.03-.027l-.03,0" transform="translate(-474.139 -77.975)" fill="#fff"/>
    <path id="Path_455" data-name="Path 455" d="M677.572,91.312c.034.017.064.035.091.049v-.015c-.034-.032-.032-.017-.091-.034" transform="translate(-604.274 -81.434)" fill="#fff"/>
    <path id="Path_456" data-name="Path 456" d="M667.149,92.379a.092.092,0,0,0-.015.027c.047-.015.017,0,.047-.027Z" transform="translate(-594.966 -82.386)" fill="#fff"/>
    <path id="Path_457" data-name="Path 457" d="M665.59,93.1c0,.012-.012.02-.017.032a.044.044,0,0,1,.017.014l.03-.029v-.015a.105.105,0,0,1-.03,0" transform="translate(-593.573 -83.032)" fill="#fff"/>
    <path id="Path_458" data-name="Path 458" d="M665.411,94.08a.117.117,0,0,0,0,.039c.01,0,.017,0,.029,0-.019-.044,0-.02-.034-.044" transform="translate(-593.429 -83.903)" fill="#fff"/>
    <path id="Path_459" data-name="Path 459" d="M468.926,89.588v.03c.01-.01.02-.017.032-.03Z" transform="translate(-418.199 -79.897)" fill="#fff"/>
    <path id="Path_460" data-name="Path 460" d="M463.359,90.2c0,.015-.01.029-.015.042.022-.029.027-.007.015-.042" transform="translate(-413.222 -80.442)" fill="#fff"/>
    <path id="Path_461" data-name="Path 461" d="M465.444,91.381c-.025.007-.052.017-.081.029v.027l.16.019v-.015c-.032-.047-.015-.042-.079-.061" transform="translate(-415.021 -81.496)" fill="#fff"/>
    <path id="Path_462" data-name="Path 462" d="M457.8,91.517a.117.117,0,0,1-.032.014v.012c.027-.007.054-.015.081-.024a.31.31,0,0,1-.049,0" transform="translate(-408.245 -81.617)" fill="#fff"/>
    <path id="Path_463" data-name="Path 463" d="M461.87,91.562c.027.015,0,.015.032,0Z" transform="translate(-411.906 -81.657)" fill="#fff"/>
    <path id="Path_464" data-name="Path 464" d="M460.1,91.675l.032.032h.017c-.029-.032,0-.012-.049-.032" transform="translate(-410.328 -81.758)" fill="#fff"/>
    <path id="Path_465" data-name="Path 465" d="M467.876,92.4c0,.012-.01.02-.015.032a.522.522,0,0,1,.079.032h.017a.124.124,0,0,0,.012-.032c-.03-.024-.027-.024-.093-.032" transform="translate(-417.249 -82.404)" fill="#fff"/>
    <path id="Path_466" data-name="Path 466" d="M304.806,102.428a4.269,4.269,0,0,0-.152.454.082.082,0,0,0,.015,0c.074-.125.248-.26.138-.452" transform="translate(-271.698 -91.348)" fill="#fff"/>
    <path id="Path_467" data-name="Path 467" d="M303.7,107.333c.047-.034.022-.019.03-.051a.462.462,0,0,1-.03.051" transform="translate(-270.847 -95.677)" fill="#fff"/>
    <path id="Path_468" data-name="Path 468" d="M436.113,110.073a.256.256,0,0,1-.015.03h.044a.376.376,0,0,1-.03-.03" transform="translate(-388.922 -98.166)" fill="#fff"/>
    <path id="Path_469" data-name="Path 469" d="M300.8,119.308c-.015.074-.035.15-.047.226,0,.01.01.019.012.029a.072.072,0,0,1,.02,0c.02-.076.037-.155.056-.228a.27.27,0,0,1-.042-.025" transform="translate(-268.217 -106.402)" fill="#fff"/>
    <path id="Path_470" data-name="Path 470" d="M697.285,123.3a.688.688,0,0,1,.049.066v-.049c-.015,0-.032-.012-.049-.017" transform="translate(-621.855 -109.961)" fill="#fff"/>
    <path id="Path_471" data-name="Path 471" d="M355.932,120.714c-.012.025-.019.044-.029.064.029-.034.042-.022.029-.064" transform="translate(-317.403 -107.656)" fill="#fff"/>
    <path id="Path_472" data-name="Path 472" d="M368.664,120.441c-.054.047-.1.052-.125.13.1.01.167,0,.26,0v-.015c-.044-.039-.088-.081-.135-.115" transform="translate(-328.672 -107.412)" fill="#fff"/>
    <path id="Path_473" data-name="Path 473" d="M351.938,122.46c-.01.017-.02.032-.029.047.019-.012.039-.024.059-.034a.154.154,0,0,0-.03-.012" transform="translate(-313.841 -109.213)" fill="#fff"/>
    <path id="Path_474" data-name="Path 474" d="M704.272,132.556v.052h.029c-.022-.049,0-.017-.029-.052" transform="translate(-628.086 -118.217)" fill="#fff"/>
    <path id="Path_475" data-name="Path 475" d="M692.547,131.966c.015.034.029.074.047.113a.307.307,0,0,0,.179.587.419.419,0,0,0,.032.032h.014a1.11,1.11,0,0,0-.272-.731" transform="translate(-617.588 -117.69)" fill="#fff"/>
    <path id="Path_476" data-name="Path 476" d="M694.8,132.736a.075.075,0,0,0-.032.012v.044a.408.408,0,0,0,.076.007c-.022-.049-.01-.034-.044-.064" transform="translate(-619.608 -118.377)" fill="#fff"/>
    <path id="Path_477" data-name="Path 477" d="M294.028,141.29a.241.241,0,0,1-.015.032c.015.019.03.037.044.054h.012c0-.076.005-.064-.042-.086" transform="translate(-262.208 -126.006)" fill="#fff"/>
    <path id="Path_478" data-name="Path 478" d="M694.887,140.355a2.353,2.353,0,0,0-.4-.994l-.046-.022c-.008.049-.02.1-.032.145-.061.034-.042.037-.123,0,.012.182.2.351.258.5.056.115.015.258.049.346.064.037.076.091.2.11-.007-.042-.01-.089-.015-.13a.169.169,0,0,1,.088.039Z" transform="translate(-619.185 -124.266)" fill="#fff"/>
    <path id="Path_479" data-name="Path 479" d="M719.132,142.788v.066a.271.271,0,0,1,.047.035c-.015-.069-.01-.059-.047-.1" transform="translate(-641.339 -127.342)" fill="#fff"/>
    <path id="Path_480" data-name="Path 480" d="M720.4,143.945c.01.02.02.039.029.064h.02c-.027-.059,0-.032-.049-.064" transform="translate(-642.472 -128.374)" fill="#fff"/>
    <path id="Path_481" data-name="Path 481" d="M719.161,145.442c.007.024.02.052.032.081-.025-.02-.042-.037-.061-.051a1.063,1.063,0,0,0,.061.1.36.36,0,0,1,.047-.039c-.029-.032-.054-.061-.078-.086" transform="translate(-641.339 -129.709)" fill="#fff"/>
    <path id="Path_482" data-name="Path 482" d="M720.971,146.146v.044a.344.344,0,0,0,.064.054v-.064a.694.694,0,0,1-.064-.034" transform="translate(-642.979 -130.336)" fill="#fff"/>
    <path id="Path_483" data-name="Path 483" d="M715.979,147.6c.022.03.044.054.064.081a.169.169,0,0,0-.064-.081" transform="translate(-638.527 -131.63)" fill="#fff"/>
    <path id="Path_484" data-name="Path 484" d="M722.376,150.591v.047c.022.01.042.027.064.037-.022-.032-.042-.054-.064-.084" transform="translate(-644.232 -134.301)" fill="#fff"/>
    <path id="Path_485" data-name="Path 485" d="M651.8,148.325c0,.029.01.054.015.086,0-.032.012-.056.017-.088a.145.145,0,0,1-.032,0" transform="translate(-581.29 -132.277)" fill="#fff"/>
    <path id="Path_486" data-name="Path 486" d="M718.814,152.634v.123c.02.019.032.037.049.054a.33.33,0,0,0,.044.017.125.125,0,0,0,.012-.027c-.034-.056-.068-.11-.105-.167" transform="translate(-641.055 -136.123)" fill="#fff"/>
    <path id="Path_487" data-name="Path 487" d="M721.01,153.265c-.022,0-.039-.015-.064-.02.047.047.1.086.14.135.007-.01.02-.017.032-.03-.037-.03-.071-.059-.108-.086" transform="translate(-642.956 -136.667)" fill="#fff"/>
    <path id="Path_488" data-name="Path 488" d="M719.813,155.038c.005.02.012.039.017.064a.4.4,0,0,0,.061.052v-.066c-.027-.015-.049-.032-.078-.049" transform="translate(-641.946 -138.267)" fill="#fff"/>
    <path id="Path_489" data-name="Path 489" d="M328.431,155.219v.125c.019,0,.042,0,.059,0v-.017c-.018-.049-.02-.074-.059-.1" transform="translate(-292.902 -138.428)" fill="#fff"/>
    <path id="Path_490" data-name="Path 490" d="M725.233,161.774a.787.787,0,0,1,.042.1.318.318,0,0,1,.022-.032.566.566,0,0,1-.064-.064" transform="translate(-646.78 -144.274)" fill="#fff"/>
    <path id="Path_491" data-name="Path 491" d="M516.377,407.311c0,.02-.01.042-.015.063.025-.022.052-.044.078-.063Z" transform="translate(-460.504 -363.249)" fill="#fff"/>
    <path id="Path_492" data-name="Path 492" d="M511.466,407.559a.336.336,0,0,1-.049.032.425.425,0,0,0,.034.031h.076v-.015c-.019-.017-.041-.034-.061-.049" transform="translate(-456.094 -363.471)" fill="#fff"/>
    <path id="Path_493" data-name="Path 493" d="M513.028,407.72v.032a.36.36,0,0,1,.032-.032Z" transform="translate(-457.53 -363.614)" fill="#fff"/>
    <path id="Path_494" data-name="Path 494" d="M489.833,421.669a.333.333,0,0,0-.012.052c.029-.032.01,0,.027-.052Z" transform="translate(-436.834 -376.054)" fill="#fff"/>
    <path id="Path_495" data-name="Path 495" d="M489.537,422.442c0,.012-.01.029-.012.046a.364.364,0,0,1,.03-.034c-.005,0-.01-.01-.017-.012" transform="translate(-436.57 -376.744)" fill="#fff"/>
    <path id="Path_496" data-name="Path 496" d="M473.753,430.471c-.074.012-.147.02-.219.03a1.051,1.051,0,0,1-.437.4v.017c.029.013.054.022.078.035a.753.753,0,0,0,.344-.145c0-.027,0-.054,0-.079a.505.505,0,0,0,.236-.113v-.142Z" transform="translate(-421.92 -383.904)" fill="#fff"/>
    <path id="Path_497" data-name="Path 497" d="M399.619,436.144c.032.015,0,.017.034,0Z" transform="translate(-356.389 -388.963)" fill="#fff"/>
    <path id="Path_498" data-name="Path 498" d="M398.978,440.433c0,.012-.012.02-.017.032.012,0,.022.012.032.017s.01-.012.015-.017a.332.332,0,0,0-.03-.032" transform="translate(-355.803 -392.788)" fill="#fff"/>
    <path id="Path_499" data-name="Path 499" d="M435.983,450.709c.017.079.012.1.078.125v-.012c-.027-.061,0-.081-.078-.113" transform="translate(-388.82 -401.953)" fill="#fff"/>
    <path id="Path_500" data-name="Path 500" d="M404.133,454.382c.027.047,0,.005.049.032.005,0,.01-.012.015-.015v-.017Z" transform="translate(-360.415 -405.228)" fill="#fff"/>
    <path id="Path_501" data-name="Path 501" d="M400.78,457.5c-.032-.027-.03-.027-.1-.032.015.017.022.032.034.046h.064c0-.007,0-.01,0-.015" transform="translate(-357.339 -407.982)" fill="#fff"/>
    <path id="Path_502" data-name="Path 502" d="M401.751,460.532v.049h.044c-.015-.015-.029-.032-.044-.049" transform="translate(-358.291 -410.713)" fill="#fff"/>
    <path id="Path_503" data-name="Path 503" d="M403.083,462.6c0,.01-.01.019-.015.032h.032a.318.318,0,0,0-.017-.032" transform="translate(-359.465 -412.556)" fill="#fff"/>
    <path id="Path_504" data-name="Path 504" d="M416.2,484.555l-.014.017c.01.012.025.022.034.035a.229.229,0,0,1,.044-.017c-.02-.012-.042-.022-.064-.035" transform="translate(-371.16 -432.137)" fill="#fff"/>
    <path id="Path_505" data-name="Path 505" d="M417.77,485.753l-.047-.017c-.029.02-.063.04-.093.064.1.012.137.039.172-.047Z" transform="translate(-372.452 -433.191)" fill="#fff"/>
    <path id="Path_506" data-name="Path 506" d="M421.345,485.753c-.029-.005-.054-.01-.081-.017a.316.316,0,0,1-.049.017.142.142,0,0,1,.034.015c.015.015.032.032.044.047a.534.534,0,0,1,.066-.032.224.224,0,0,0-.014-.03" transform="translate(-375.649 -433.191)" fill="#fff"/>
    <path id="Path_507" data-name="Path 507" d="M420.614,486.14v-.015a.49.49,0,0,1-.267-.061c-.015-.106,0-.142-.108-.172a1.107,1.107,0,0,1,.047.314.161.161,0,0,1,.049.015c.012-.037.029-.076.044-.11a.086.086,0,0,0,.032.015.3.3,0,0,0,.14.172c-.025-.037-.052-.071-.079-.108v-.017c.049-.012.093-.02.142-.032" transform="translate(-374.778 -433.33)" fill="#fff"/>
    <path id="Path_508" data-name="Path 508" d="M421.42,490.365l.017.034a.106.106,0,0,1,.012-.034Z" transform="translate(-375.832 -437.319)" fill="#fff"/>
    <path id="Path_509" data-name="Path 509" d="M430.46,493.4c0,.059-.017.025.049.047a.441.441,0,0,1-.049-.047" transform="translate(-383.89 -440.026)" fill="#fff"/>
    <path id="Path_510" data-name="Path 510" d="M434.691,493.561c.037.052.115.047.187.061a.112.112,0,0,0,.015-.032l-.2-.03" transform="translate(-387.668 -440.169)" fill="#fff"/>
    <path id="Path_511" data-name="Path 511" d="M429.337,493.834a.2.2,0,0,0,.174.123.382.382,0,0,0-.174-.123" transform="translate(-382.893 -440.413)" fill="#fff"/>
    <path id="Path_512" data-name="Path 512" d="M275.6,0a28.545,28.545,0,0,0-26.276,17.378c4.008-7.139,12.487-15.707,26.257-15.694a30.206,30.206,0,0,1,26.3,15.711A28.542,28.542,0,0,0,275.6,0" transform="translate(-222.351)" fill="#fff"/>
    <path id="Path_513" data-name="Path 513" d="M295.071,343.923a28.747,28.747,0,0,1-27.283,20.117c-13.984,0-23.378-8.685-27.155-19.876,3.929,10.425,14.612,17.9,27.172,17.9,12.661,0,23.412-7.593,27.265-18.141" transform="translate(-214.602 -306.719)" fill="#fff"/>
  </g>
</svg>
