<svg xmlns="http://www.w3.org/2000/svg" width="83.707" height="106.742" viewBox="0 0 83.707 106.742">
  <g id="Warner_Bros.__2019__logo" data-name="Warner_Bros._(2019)_logo" opacity="0.2">
    <path id="Path_514" data-name="Path 514" d="M-169.889,671.618a1.172,1.172,0,0,0,1.161-1.162,1.184,1.184,0,0,0-1.161-1.163,1.176,1.176,0,0,0-1.165,1.163,1.165,1.165,0,0,0,1.165,1.162m-8.173-2.828c.606,1.943,1.82,2.846,3.468,2.846a3.29,3.29,0,0,0,3.278-3.349,3.878,3.878,0,0,0-1.838-3.279l-1.3-.972a2.314,2.314,0,0,1-1.161-1.822,1.012,1.012,0,0,1,1.006-1.076c.815,0,1.249.643,1.528,1.648l1.684-1.006a3.108,3.108,0,0,0-3.123-2.534,3.025,3.025,0,0,0-3.039,3.106,3.711,3.711,0,0,0,1.648,3.089l1.444,1.076a2.5,2.5,0,0,1,1.214,1.925,1.275,1.275,0,0,1-1.285,1.3c-.988,0-1.546-.729-1.891-1.944Zm-4.2.989c-1.13,0-1.839-1.423-1.839-4.338s.709-4.355,1.839-4.355,1.839,1.44,1.839,4.355-.713,4.338-1.839,4.338m0,1.891c2.375,0,3.818-2.048,3.818-6.23s-1.462-6.247-3.818-6.247-3.819,2.064-3.819,6.247,1.44,6.23,3.819,6.23m-6.49-8.555c0,1.128-.766,1.874-2.082,2.343l-.3.1V661.24c1.577.07,2.378.8,2.378,1.874m.226,8.4h2.166l-2.135-5.154a3.789,3.789,0,0,0,1.684-3.245c0-2.36-1.839-3.748-4.439-3.748h-1.843v12.147h1.963v-3.939l.226-.07c.243-.07.469-.156.7-.243Zm-9.755-5.257c1.267-.312,2.29.19,2.29,1.284,0,1.25-1.2,2.135-2.879,2.135v-3.28Zm1.528-3.523c0,.85-.642,1.544-1.8,1.788l-.314.069v-3.367c1.32.035,2.117.607,2.117,1.51m2.707,4.789a2.759,2.759,0,0,0-1.927-2.741,2.962,2.962,0,0,0,1.13-2.2c0-1.961-1.683-3.21-4.306-3.21h-1.666v12.147h1.7c3.075,0,5.068-1.683,5.068-3.991m-12.616-4.407c0,1.128-.763,1.874-2.083,2.343l-.295.1V661.24c1.579.07,2.377.8,2.377,1.874m.226,8.4h2.17l-2.135-5.154a3.79,3.79,0,0,0,1.684-3.245c0-2.36-1.84-3.748-4.443-3.748H-211v12.147h1.961v-3.939l.226-.07c.243-.07.469-.156.694-.243Zm-11.227,0h5.778v-1.874H-215.7V666.2h2.863v-1.926H-215.7V661.24h3.436l.382-1.874h-5.778Zm-8.312,0h1.909v-7.548l3.158,7.548h1.926V659.367h-1.909v7.548l-3.158-7.548h-1.926Zm-2.985-8.4c0,1.128-.763,1.874-2.083,2.343l-.295.1V661.24c1.579.07,2.377.8,2.377,1.874m.226,8.4h2.169l-2.134-5.154a3.789,3.789,0,0,0,1.683-3.245c0-2.36-1.839-3.748-4.442-3.748H-233.3v12.147h1.961v-3.939l.226-.07c.243-.07.469-.156.694-.243Zm-10-4.147.99-5.188.989,5.188Zm-2.741,4.147h1.943l.434-2.273h2.707l.434,2.273h2.012l-2.447-12.147h-2.638Zm-8.486,0h1.979l1.474-7.722,1.475,7.722h1.978l2.5-12.147h-1.96l-1.545,7.9-1.492-7.9h-1.84l-1.492,7.9-1.527-7.9h-2.03Z" transform="translate(252.435 -564.928)" fill="#fff"/>
    <path id="Path_515" data-name="Path 515" d="M-113.749-208.675c-.09-.359-.179-.493-.358-.538l-6.455-1.7-.9-3.676c-.045-.179-.089-.314-.269-.359l-6.634-1.793-.807-3.5a.49.49,0,0,0-.359-.448l-17.235-3.2a2.342,2.342,0,0,0-.854,0l-17.236,3.2a.491.491,0,0,0-.358.448l-.806,3.5-6.635,1.793c-.181.045-.226.179-.27.359l-.894,3.676-6.458,1.7c-.177.045-.27.179-.358.538a46.31,46.31,0,0,0-.806,8.7c0,25.821,13.447,48.233,33.53,61.6a1.8,1.8,0,0,0,.717.359,1.792,1.792,0,0,0,.717-.359c20.083-13.362,33.531-35.775,33.531-61.6a46.157,46.157,0,0,0-.807-8.7" transform="translate(189.017 223.924)" fill="#fff"/>
    <path id="Path_516" data-name="Path 516" d="M-86.625-63.4c0,.182-.179.27-.358.093-4.93-5.648-8.249-12.553-10.489-20.081l-3.4,2.151c-.9.628-1.616.359-2.151-.627-4.572-8.067-7.529-21.333-7.8-30.655a1.607,1.607,0,0,1,.447-1.165,42.718,42.718,0,0,1,3.944-4.123c.27-.269.54-.089.54.358,0,11.474,1.969,22.14,5.108,29.132.27.538.536.538.894.269l.987-.628c-1.881-8.336-2.957-19.451-2.687-32.269,0-.448.089-.627.358-.806a31.078,31.078,0,0,1,4.3-2.241c.447-.179.536-.09.536.269-.27,18.644,1.257,31.552,4.573,41.86.089.269.359.179.359-.089-.18-3.765-.18-7.081-.18-11.115l-.179-32.179c0-.359.089-.538.448-.628a36,36,0,0,1,4.482-.807.237.237,0,0,1,.268.269V-63.4Zm19.72-50.464c0-3.586-4.124-6.544-9.591-6.9v18.734c6.9-4.033,9.591-8.067,9.591-11.832m-.717,13.445c-1.883,0-3.586.717-8.874,4.482v20.258c9.143-10.219,11.743-17.211,11.743-20.8,0-2.51-1.166-3.944-2.869-3.944M-81.247-63.305c-.179.177-.358.089-.358-.093v-63.013a.237.237,0,0,1,.269-.269c12.011.807,19.72,5.826,19.72,13.086a12.178,12.178,0,0,1-3.137,8.157c3.943,1.076,5.467,4.033,5.467,7.978,0,6.992-5.109,18.555-21.961,34.153" transform="translate(125.941 137.06)" fill="#02183a"/>
  </g>
</svg>
